{
.appVersion = "1075";
classes = (
{
automatic = 1;
code = "questiondown endash emdash periodcentered exclamdown parenleft parenright bracketleft bracketright braceleft braceright";
name = cap_0;
},
{
automatic = 1;
code = "zero one two three four five six seven eight nine zero.pnum one.pnum two.pnum three.pnum four.pnum five.pnum six.pnum seven.pnum eight.pnum nine.pnum zero.dnom one.dnom two.dnom three.dnom four.dnom five.dnom six.dnom seven.dnom eight.dnom nine.dnom zero.numr one.numr two.numr three.numr four.numr five.numr six.numr seven.numr eight.numr nine.numr zeroinferior oneinferior twoinferior threeinferior fourinferior fiveinferior sixinferior seveninferior eightinferior nineinferior";
name = frac3;
},
{
automatic = 1;
code = "questiondown.cap endash.cap emdash.cap periodcentered.cap exclamdown.cap parenleft.cap parenright.cap bracketleft.cap bracketright.cap braceleft.cap braceright.cap";
name = cap;
},
{
automatic = 1;
code = "zerosuperior onesuperior twosuperior threesuperior foursuperior fivesuperior sixsuperior sevensuperior eightsuperior ninesuperior zerosuperior onesuperior twosuperior threesuperior foursuperior fivesuperior sixsuperior sevensuperior eightsuperior ninesuperior zerosuperior onesuperior twosuperior threesuperior foursuperior fivesuperior sixsuperior sevensuperior eightsuperior ninesuperior zerosuperior onesuperior twosuperior threesuperior foursuperior fivesuperior sixsuperior sevensuperior eightsuperior ninesuperior zerosuperior onesuperior twosuperior threesuperior foursuperior fivesuperior sixsuperior sevensuperior eightsuperior ninesuperior";
name = frac4;
},
{
automatic = 1;
code = "zerosuperior onesuperior twosuperior threesuperior foursuperior fivesuperior sixsuperior sevensuperior eightsuperior ninesuperior";
name = frac1;
},
{
automatic = 1;

glyphs = (
{
glyphname = d;
lastChange = "2017-11-12 23:25:22 +0000";
layers = (
{
layerId = "B420756C-160B-4E3B-8A8F-018354DD19AA";
paths = (
{
closed = 1;
nodes = (
"309 -9 OFFCURVE",
"399 114 OFFCURVE",
"399 114 CURVE",
"373 0 LINE",
"407 0 LINE",
"576 730 LINE {\nname = hr00;\n}",
"541 730 LINE",
"486 493 LINE",
"486 493 OFFCURVE",
"413 509 OFFCURVE",
"343 509 CURVE SMOOTH",
"187 509 OFFCURVE",
"95 290 OFFCURVE",
"95 117 CURVE SMOOTH",
"95 30 OFFCURVE",
"135 -9 OFFCURVE",
"209 -9 CURVE SMOOTH"
);
},
{
closed = 1;
nodes = (
"160 23 OFFCURVE",
"132 55 OFFCURVE",
"132 117 CURVE SMOOTH",
"132 264 OFFCURVE",
"206 477 OFFCURVE",
"343 477 CURVE SMOOTH",
"409 477 OFFCURVE",
"479 462 OFFCURVE",
"479 462 CURVE",
"412 172 LINE",
"412 172 OFFCURVE",
"306 23 OFFCURVE",
"219 23 CURVE SMOOTH"
);
}
);
width = 481;
},
{
layerId = "7271F2A9-EB19-499E-973E-7497F9144823";
paths = (
{
closed = 1;
nodes = (
"296 -12 OFFCURVE",
"352 52 OFFCURVE",
"352 52 CURVE",
"343 0 LINE",
"473 0 LINE",
"635 700 LINE {\nname = hr00;\n}",
"501 700 LINE",
"452 490 LINE",
"452 490 OFFCURVE",
"374 511 OFFCURVE",
"332 511 CURVE SMOOTH",
"166 511 OFFCURVE",
"80 327 OFFCURVE",
"80 165 CURVE SMOOTH",
"80 53 OFFCURVE",
"128 -12 OFFCURVE",
"224 -12 CURVE SMOOTH"
);
},
{
closed = 1;
nodes = (
"231 102 OFFCURVE",
"216 130 OFFCURVE",
"216 166 CURVE SMOOTH",
"216 257 OFFCURVE",
"257 397 OFFCURVE",
"332 397 CURVE SMOOTH",
"370 397 OFFCURVE",
"428 383 OFFCURVE",
"428 383 CURVE",
"380 174 LINE",
"380 174 OFFCURVE",
"304 102 OFFCURVE",
"267 102 CURVE SMOOTH"
);
}
);
width = 528;
}
);
leftKerningGroup = a;
rightKerningGroup = d;
unicode = 0064;
},
{
glyphname = g;
lastChange = "2017-11-12 23:25:22 +0000";
layers = (
{
layerId = "B420756C-160B-4E3B-8A8F-018354DD19AA";
paths = (
{
closed = 1;
nodes = (
"337 -239 OFFCURVE",
"433 -149 OFFCURVE",
"433 -62 CURVE SMOOTH",
"433 7 OFFCURVE",
"400 38 OFFCURVE",
"276 52 CURVE SMOOTH",
"207 60 OFFCURVE",
"185 67 OFFCURVE",
"185 94 CURVE SMOOTH",
"185 127 OFFCURVE",
"226 180 OFFCURVE",
"226 180 CURVE",
"226 180 OFFCURVE",
"245 178 OFFCURVE",
"252 178 CURVE SMOOTH",
"405 178 OFFCURVE",
"464 303 OFFCURVE",
"464 385 CURVE SMOOTH",
"464 424 OFFCURVE",
"453 447 OFFCURVE",
"439 465 CURVE",
"549 465 LINE",
"557 500 LINE",
"408 494 LINE",
"408 494 OFFCURVE",
"382 509 OFFCURVE",
"329 509 CURVE SMOOTH",
"197 509 OFFCURVE",
"131 390 OFFCURVE",
"131 304 CURVE SMOOTH",
"131 247 OFFCURVE",
"154 207 OFFCURVE",
"201 188 CURVE",
"201 188 OFFCURVE",
"150 134 OFFCURVE",
"150 90 CURVE SMOOTH",
"150 73 OFFCURVE",
"156 59 OFFCURVE",
"163 53 CURVE",
"104 21 OFFCURVE",
"24 -32 OFFCURVE",
"24 -112 CURVE SMOOTH",
"24 -184 OFFCURVE",
"81 -239 OFFCURVE",
"177 -239 CURVE SMOOTH {\nname = hr00;\n}"
);
},
{
closed = 1;
nodes = (
"103 -207 OFFCURVE",
"61 -164 OFFCURVE",
"61 -105 CURVE SMOOTH",
"61 -48 OFFCURVE",
"129 4 OFFCURVE",
"189 34 CURVE",
"201 29 OFFCURVE",
"227 22 OFFCURVE",
"278 17 CURVE SMOOTH",
"366 8 OFFCURVE",
"396 -10 OFFCURVE",
"396 -62 CURVE SMOOTH",
"396 -146 OFFCURVE",
"299 -207 OFFCURVE",
"185 -207 CURVE SMOOTH"
);
},
{
closed = 1;
nodes = (
"189 210 OFFCURVE",
"167 250 OFFCURVE",
"167 306 CURVE SMOOTH",
"167 374 OFFCURVE",
"221 477 OFFCURVE",
"325 477 CURVE SMOOTH",
"402 477 OFFCURVE",
"428 442 OFFCURVE",
"428 374 CURVE SMOOTH",
"428 319 OFFCURVE",
"382 210 OFFCURVE",
"260 210 CURVE SMOOTH"
);
}
);
width = 458;
},
{
layerId = "7271F2A9-EB19-499E-973E-7497F9144823";
paths = (
{
closed = 1;
nodes = (
"377 -230 OFFCURVE",
"467 -149 OFFCURVE",
"467 -32 CURVE SMOOTH",
"467 58 OFFCURVE",
"392 84 OFFCURVE",
"325 94 CURVE SMOOTH",
"257 104 OFFCURVE",
"231 109 OFFCURVE",
"231 126 CURVE SMOOTH",
"231 142 OFFCURVE",
"246 162 OFFCURVE",
"246 162 CURVE",
"246 162 OFFCURVE",
"264 157 OFFCURVE",
"289 157 CURVE SMOOTH",
"411 157 OFFCURVE",
"498 240 OFFCURVE",
"498 341 CURVE SMOOTH",
"498 362 OFFCURVE",
"496 381 OFFCURVE",
"494 392 CURVE",
"552 392 LINE",
"577 500 LINE",
"431 494 LINE",
"431 494 OFFCURVE",
"359 512 OFFCURVE",
"310 512 CURVE SMOOTH",
"184 512 OFFCURVE",
"103 428 OFFCURVE",
"103 316 CURVE SMOOTH",
"103 249 OFFCURVE",
"130 215 OFFCURVE",
"171 191 CURVE",
"171 191 OFFCURVE",
"111 140 OFFCURVE",
"111 95 CURVE SMOOTH",
"111 71 OFFCURVE",
"115 58 OFFCURVE",
"131 42 CURVE",
"75 15 OFFCURVE",
"9 -23 OFFCURVE",
"9 -93 CURVE SMOOTH",
"9 -193 OFFCURVE",
"97 -230 OFFCURVE",
"226 -230 CURVE SMOOTH {\nname = hr00;\n}"
);
},
{
closed = 1;
nodes = (
"155 -118 OFFCURVE",
"131 -91 OFFCURVE",
"131 -62 CURVE SMOOTH",
"131 -35 OFFCURVE",
"166 -6 OFFCURVE",
"188 6 CURVE",
"205 2 OFFCURVE",
"238 -3 OFFCURVE",
"273 -9 CURVE SMOOTH",
"314 -16 OFFCURVE",
"341 -21 OFFCURVE",
"341 -48 CURVE SMOOTH",
"341 -107 OFFCURVE",
"277 -118 OFFCURVE",
"223 -118 CURVE SMOOTH"
);
},
{
closed = 1;
nodes = (
"248 266 OFFCURVE",
"226 287 OFFCURVE",
"226 322 CURVE SMOOTH",
"226 367 OFFCURVE",
"257 403 OFFCURVE",
"305 403 CURVE SMOOTH",
"353 403 OFFCURVE",
"375 382 OFFCURVE",
"375 347 CURVE SMOOTH",
"375 302 OFFCURVE",
"343 266 OFFCURVE",
"296 266 CURVE SMOOTH"
);
}
);
width = 484;
}
);
leftKerningGroup = g;
rightKerningGroup = g;
unicode = 0067;
},
{
glyphname = endash;
lastChange = "2017-11-12 23:25:22 +0000";
layers = (
{
layerId = "B420756C-160B-4E3B-8A8F-018354DD19AA";
paths = (
{
closed = 1;
nodes = (
"632 252 LINE",
"632 286 LINE",
"132 286 LINE {\nname = hr00;\n}",
"132 252 LINE"
);
}
);
width = 640;
},
{
layerId = "7271F2A9-EB19-499E-973E-7497F9144823";
paths = (
{
closed = 1;
nodes = (
"575 209 LINE",
"575 323 LINE",
"75 323 LINE {\nname = hr00;\n}",
"75 209 LINE"
);
}
);
width = 526;
}
);
leftKerningGroup = hyphen;
rightKerningGroup = hyphen;
unicode = 2013;
},
{
glyphname = exclam;
lastChange = "2017-11-12 23:25:22 +0000";
layers = (
{
layerId = "B420756C-160B-4E3B-8A8F-018354DD19AA";
paths = (
{
closed = 1;
nodes = (
"163 211 LINE",
"281 700 LINE",
"248 700 LINE",
"135 211 LINE {\nname = hr00;\n}"
);
},
{
closed = 1;
nodes = (
"125 0 LINE",
"144 83 LINE",
"108 83 LINE",
"89 0 LINE"
);
}
);
width = 207;
},
{
layerId = "7271F2A9-EB19-499E-973E-7497F9144823";
paths = (
{
closed = 1;
nodes = (
"203 258 LINE",
"315 700 LINE",
"172 700 LINE",
"77 258 LINE {\nname = hr00;\n}"
);
},
{
closed = 1;
nodes = (
"150 0 LINE",
"185 153 LINE",
"49 153 LINE",
"14 0 LINE"
);
}
);
width = 163;
}
);
unicode = 0021;
},
{
glyphname = summation;
lastChange = "2017-11-12 23:25:22 +0000";
layers = (
{
layerId = "B420756C-160B-4E3B-8A8F-018354DD19AA";
paths = (
{
closed = 1;
nodes = (
"573 -151 LINE",
"573 -117 LINE",
"160 -117 LINE",
"160 -85 LINE",
"444 298 LINE",
"444 328 LINE",
"160 688 LINE",
"160 715 LINE",
"573 715 LINE",
"573 749 LINE",
"123 749 LINE",
"123 676 LINE",
"409 314 LINE {\nname = hr00;\n}",
"123 -76 LINE",
"123 -151 LINE"
);
}
);
width = 560;
},
{
layerId = "7271F2A9-EB19-499E-973E-7497F9144823";
paths = (
{
closed = 1;
nodes = (
"596 -180 LINE",
"596 -60 LINE",
"242 -60 LINE",
"242 -45 LINE",
"457 251 LINE",
"457 344 LINE",
"242 625 LINE",
"242 640 LINE",
"596 640 LINE",
"596 760 LINE",
"96 760 LINE",
"96 620 LINE",
"334 298 LINE {\nname = hr00;\n}",
"96 -41 LINE",
"96 -180 LINE"
);
}
);
width = 560;
}
);
unicode = 2211;
},
{
glyphname = a;
lastChange = "2017-11-12 23:25:22 +0000";
layers = (
{
layerId = "B420756C-160B-4E3B-8A8F-018354DD19AA";
paths = (
{
closed = 1;
nodes = (
"308 -9 OFFCURVE",
"404 126 OFFCURVE",
"404 126 CURVE",
"399 103 OFFCURVE",
"382 -1 OFFCURVE",
"382 -1 CURVE",
"415 1 LINE",
"415 1 OFFCURVE",
"429 99 OFFCURVE",
"444 163 CURVE SMOOTH",
"520 489 LINE",
"520 489 OFFCURVE",
"402 509 OFFCURVE",
"345 509 CURVE SMOOTH",
"185 509 OFFCURVE",
"95 287 OFFCURVE",
"95 118 CURVE SMOOTH",
"95 35 OFFCURVE",
"134 -9 OFFCURVE",
"215 -9 CURVE SMOOTH {\nname = hr00;\n}"
);
},
{
closed = 1;
nodes = (
"156 24 OFFCURVE",
"132 58 OFFCURVE",
"132 118 CURVE SMOOTH",
"132 265 OFFCURVE",
"205 477 OFFCURVE",
"345 477 CURVE SMOOTH",
"406 477 OFFCURVE",
"479 462 OFFCURVE",
"479 462 CURVE",
"414 182 LINE",
"414 182 OFFCURVE",
"300 24 OFFCURVE",
"222 24 CURVE SMOOTH"
);
}
);
width = 482;
},
{
layerId = "7271F2A9-EB19-499E-973E-7497F9144823";
paths = (
{
closed = 1;
nodes = (
"298 -12 OFFCURVE",
"362 76 OFFCURVE",
"362 76 CURVE",
"358 59 OFFCURVE",
"349 -2 OFFCURVE",
"349 -2 CURVE",
"482 3 LINE",
"482 3 OFFCURVE",
"495 94 OFFCURVE",
"509 156 CURVE SMOOTH",
"584 479 LINE",
"584 479 OFFCURVE",
"407 512 OFFCURVE",
"334 512 CURVE SMOOTH",
"152 512 OFFCURVE",
"80 306 OFFCURVE",
"80 170 CURVE SMOOTH",
"80 66 OFFCURVE",
"119 -12 OFFCURVE",
"221 -12 CURVE SMOOTH {\nname = hr00;\n}"
);
},
{
closed = 1;
nodes = (
"226 102 OFFCURVE",
"216 127 OFFCURVE",
"216 170 CURVE SMOOTH",
"216 261 OFFCURVE",
"257 398 OFFCURVE",
"338 398 CURVE SMOOTH",
"364 398 OFFCURVE",
"430 384 OFFCURVE",
"430 384 CURVE",
"384 191 LINE",
"384 191 OFFCURVE",
"308 102 OFFCURVE",
"267 102 CURVE SMOOTH"
);
}
);
width = 528;
}
);
leftKerningGroup = a;
rightKerningGroup = a;
unicode = 0061;
userData = {
"-(D) ristretto\\012-(D) contrasto 3  com.typemytype.robofont.guides" = (
{
angle = 90;
isGlobal = 0;
magnetic = 5;
x = 411;
y = 0;
}
);
};
},
{
glyphname = o;
lastChange = "2017-11-12 23:25:22 +0000";
layers = (
{
layerId = "B420756C-160B-4E3B-8A8F-018354DD19AA";
paths = (
{
closed = 1;
nodes = (
"405 -9 OFFCURVE",
"507 150 OFFCURVE",
"507 352 CURVE SMOOTH",
"507 454 OFFCURVE",
"454 509 OFFCURVE",
"349 509 CURVE SMOOTH {\nname = hr00;\n}",
"207 509 OFFCURVE",
"99 346 OFFCURVE",
"99 139 CURVE SMOOTH",
"99 37 OFFCURVE",
"150 -9 OFFCURVE",
"252 -9 CURVE SMOOTH"
);
},
{
closed = 1;
nodes = (
"173 23 OFFCURVE",
"135 64 OFFCURVE",
"135 139 CURVE SMOOTH",
"135 319 OFFCURVE",
"222 477 OFFCURVE",
"349 477 CURVE SMOOTH",
"433 477 OFFCURVE",
"471 425 OFFCURVE",
"471 352 CURVE SMOOTH",
"471 172 OFFCURVE",
"384 23 OFFCURVE",
"252 23 CURVE SMOOTH"
);
}
);
width = 493;
},
{
layerId = "7271F2A9-EB19-499E-973E-7497F9144823";
paths = (
{
closed = 1;
nodes = (
"445 -12 OFFCURVE",
"530 168 OFFCURVE",
"530 322 CURVE SMOOTH",
"530 456 OFFCURVE",
"457 511 OFFCURVE",
"333 511 CURVE SMOOTH {\nname = hr00;\n}",
"173 511 OFFCURVE",
"80 331 OFFCURVE",
"80 177 CURVE SMOOTH",
"80 43 OFFCURVE",
"153 -12 OFFCURVE",
"277 -12 CURVE SMOOTH"
);
},
{
closed = 1;
nodes = (
"235 102 OFFCURVE",
"213 129 OFFCURVE",
"213 175 CURVE SMOOTH",
"213 279 OFFCURVE",
"257 397 OFFCURVE",
"333 397 CURVE SMOOTH",
"375 397 OFFCURVE",
"397 370 OFFCURVE",
"397 324 CURVE SMOOTH",
"397 220 OFFCURVE",
"353 102 OFFCURVE",
"277 102 CURVE SMOOTH"
);
}
);
width = 496;
}
);
leftKerningGroup = o;
rightKerningGroup = o;
unicode = 006F;
},
{
glyphname = numbersign;
lastChange = "2017-11-12 23:25:22 +0000";
layers = (
{
layerId = "B420756C-160B-4E3B-8A8F-018354DD19AA";
paths = (
{
closed = 1;
nodes = (
"181 0 LINE",
"227 190 LINE",
"415 190 LINE",
"369 0 LINE",
"405 0 LINE",
"451 190 LINE",
"571 190 LINE {\nname = hr00;\n}",
"579 222 LINE",
"459 222 LINE",
"515 448 LINE",
"635 448 LINE",
"643 480 LINE",
"523 480 LINE",
"571 670 LINE",
"535 670 LINE",
"487 480 LINE",
"299 480 LINE",
"347 670 LINE",
"311 670 LINE",
"263 480 LINE",
"143 480 LINE",
"135 448 LINE",
"255 448 LINE",
"199 222 LINE",
"79 222 LINE",
"71 190 LINE",
"191 190 LINE",
"145 0 LINE"
);
},
{
closed = 1;
nodes = (
"291 448 LINE",
"479 448 LINE",
"423 222 LINE",
"235 222 LINE"
);
}
);
width = 560;
},
{
layerId = "7271F2A9-EB19-499E-973E-7497F9144823";
paths = (
{
closed = 1;
nodes = (
"222 0 LINE",
"263 165 LINE",
"367 165 LINE",
"326 0 LINE",
"442 0 LINE",
"483 165 LINE",
"579 165 LINE {\nname = hr00;\n}",
"607 277 LINE",
"511 277 LINE",
"537 383 LINE",
"633 383 LINE",
"661 495 LINE",
"565 495 LINE",
"606 660 LINE",
"490 660 LINE",
"449 495 LINE",
"345 495 LINE",
"386 660 LINE",
"270 660 LINE",
"229 495 LINE",
"133 495 LINE",
"105 383 LINE",
"201 383 LINE",
"175 277 LINE",
"79 277 LINE",
"51 165 LINE",
"147 165 LINE",
"106 0 LINE"
);
},
{
closed = 1;
nodes = (
"317 383 LINE",
"421 383 LINE",
"395 277 LINE",
"291 277 LINE"
);
}
);
width = 560;
}
);
unicode = 0023;
},
{
glyphname = at;
lastChange = "2017-11-12 23:25:22 +0000";
layers = (
{
layerId = "B420756C-160B-4E3B-8A8F-018354DD19AA";
paths = (
{
closed = 1;
nodes = (
"470 -197 OFFCURVE",
"564 -188 OFFCURVE",
"564 -188 CURVE",
"569 -152 LINE",
"569 -152 OFFCURVE",
"470 -162 OFFCURVE",
"433 -162 CURVE SMOOTH",
"124 -162 OFFCURVE",
"96.96 29.01 OFFCURVE",
"154 261 CURVE SMOOTH",
"230.96 574.01 OFFCURVE",
"372 682 OFFCURVE",
"633 682 CURVE SMOOTH",
"923 682 OFFCURVE",
"951.259 514.941 OFFCURVE",
"904 307 CURVE SMOOTH",
"846.259 52.941 OFFCURVE",
"789 24 OFFCURVE",
"715 24 CURVE SMOOTH",
"676 24 OFFCURVE",
"654 27 OFFCURVE",
"654 72 CURVE SMOOTH",
"654 136 OFFCURVE",
"728 438 OFFCURVE",
"741 489 CURVE",
"701 497 OFFCURVE",
"615 509 OFFCURVE",
"579 509 CURVE SMOOTH",
"441 509 OFFCURVE",
"358.685 401.054 OFFCURVE",
"324 198 CURVE SMOOTH",
"310.685 120.053 OFFCURVE",
"290 -10 OFFCURVE",
"428 -9 CURVE",
"491 -9 OFFCURVE",
"580 34 OFFCURVE",
"620 54 CURVE",
"622 5 OFFCURVE",
"656 -10 OFFCURVE",
"708 -10 CURVE SMOOTH",
"802 -10 OFFCURVE",
"873.291 15.933 OFFCURVE",
"938 298 CURVE SMOOTH",
"990.291 525.934 OFFCURVE",
"951 717 OFFCURVE",
"641 717 CURVE SMOOTH {\nname = hr00;\n}",
"347 717 OFFCURVE",
"193.967 598.008 OFFCURVE",
"115 261 CURVE SMOOTH",
"66.967 56.008 OFFCURVE",
"63 -197 OFFCURVE",
"425 -197 CURVE SMOOTH"
);
},
{
closed = 1;
nodes = (
"341 27 OFFCURVE",
"342.918 119.017 OFFCURVE",
"359 197 CURVE SMOOTH",
"395.918 376.017 OFFCURVE",
"452 477 OFFCURVE",
"574 477 CURVE SMOOTH",
"623 477 OFFCURVE",
"672 469 OFFCURVE",
"700 462 CURVE",
"668 332 OFFCURVE",
"623 122 OFFCURVE",
"620 88 CURVE",
"578 66 OFFCURVE",
"499 27 OFFCURVE",
"435 27 CURVE SMOOTH"
);
}
);
width = 916;
},
{
layerId = "7271F2A9-EB19-499E-973E-7497F9144823";
paths = (
{
closed = 1;
nodes = (
"511 -207 OFFCURVE",
"608 -197 OFFCURVE",
"608 -197 CURVE",
"634 -86 LINE",
"634 -86 OFFCURVE",
"535 -95 OFFCURVE",
"497 -95 CURVE SMOOTH",
"229 -95 OFFCURVE",
"170.819 84.043 OFFCURVE",
"215 271 CURVE SMOOTH",
"265.819 486.043 OFFCURVE",
"383 615 OFFCURVE",
"615 615 CURVE SMOOTH",
"909 615 OFFCURVE",
"921.404 473.898 OFFCURVE",
"879 307 CURVE SMOOTH",
"843.404 166.897 OFFCURVE",
"816 117 OFFCURVE",
"777 117 CURVE SMOOTH",
"750 117 OFFCURVE",
"734 126 OFFCURVE",
"737 150 CURVE SMOOTH",
"741 182 OFFCURVE",
"800 444 OFFCURVE",
"808 479 CURVE",
"695 498 OFFCURVE",
"608 512 OFFCURVE",
"564 512 CURVE SMOOTH",
"421 512 OFFCURVE",
"343.774 402.045 OFFCURVE",
"312 242 CURVE SMOOTH",
"289.774 130.045 OFFCURVE",
"308 -12 OFFCURVE",
"445 -12 CURVE SMOOTH",
"504 -12 OFFCURVE",
"594 14 OFFCURVE",
"634 34 CURVE",
"654 4 OFFCURVE",
"691 -10 OFFCURVE",
"747 -10 CURVE SMOOTH",
"876 -10 OFFCURVE",
"943.091 77.976 OFFCURVE",
"1000 295 CURVE SMOOTH",
"1061.09 527.976 OFFCURVE",
"985 727 OFFCURVE",
"635 727 CURVE SMOOTH {\nname = hr00;\n}",
"345 727 OFFCURVE",
"169.906 601.023 OFFCURVE",
"91 271 CURVE SMOOTH",
"32.906 28.022 OFFCURVE",
"147 -207 OFFCURVE",
"466 -207 CURVE SMOOTH"
);
},
{
closed = 1;
nodes = (
"440.977 103.482 OFFCURVE",
"429 162 OFFCURVE",
"447 242 CURVE SMOOTH",
"465 322 OFFCURVE",
"496 398 OFFCURVE",
"563 398 CURVE SMOOTH",
"585 398 OFFCURVE",
"631 389 OFFCURVE",
"654 384 CURVE",
"635 304 OFFCURVE",
"605 174 OFFCURVE",
"602 140 CURVE",
"571 121 OFFCURVE",
"519.984 100.482 OFFCURVE",
"480 102 CURVE SMOOTH"
);
}
);
width = 959;
}
);
unicode = 0040;
},
{
glyphname = grave;
lastChange = "2017-11-12 23:25:22 +0000";
layers = (
{
layerId = "B420756C-160B-4E3B-8A8F-018354DD19AA";
paths = (
{
closed = 1;
nodes = (
"482 626 LINE",
"322 721 LINE",
"304 696 LINE",
"464 604 LINE"
);
}
);
width = 518;
},
{
layerId = "7271F2A9-EB19-499E-973E-7497F9144823";
paths = (
{
closed = 1;
nodes = (
"529 682 LINE",
"308 772 LINE",
"244 662 LINE",
"473 583 LINE"
);
}
);
width = 518;
}
);
unicode = 0060;
},
{
glyphname = tilde;
lastChange = "2017-11-12 23:25:22 +0000";
layers = (
{
layerId = "B420756C-160B-4E3B-8A8F-018354DD19AA";
paths = (
{
closed = 1;
nodes = (
"468 630 OFFCURVE",
"518 673 OFFCURVE",
"518 673 CURVE",
"513 703 LINE {\nname = hr00;\n}",
"513 703 OFFCURVE",
"462 662 OFFCURVE",
"445 662 CURVE SMOOTH",
"419 662 OFFCURVE",
"357 713 OFFCURVE",
"322 713 CURVE SMOOTH",
"292 713 OFFCURVE",
"234 667 OFFCURVE",
"234 667 CURVE",
"236 636 LINE",
"236 636 OFFCURVE",
"293 681 OFFCURVE",
"312 681 CURVE SMOOTH",
"340 681 OFFCURVE",
"405 630 OFFCURVE",
"439 630 CURVE SMOOTH"
);
}
);
width = 414;
},
{
layerId = "7271F2A9-EB19-499E-973E-7497F9144823";
paths = (
{
closed = 1;
nodes = (
"465 590 OFFCURVE",
"532 654 OFFCURVE",
"532 654 CURVE",
"528 747 LINE {\nname = hr00;\n}",
"528 747 OFFCURVE",
"466 708 OFFCURVE",
"442 708 CURVE SMOOTH",
"417 708 OFFCURVE",
"367 751 OFFCURVE",
"312 751 CURVE SMOOTH",
"264 751 OFFCURVE",
"197 686 OFFCURVE",
"197 686 CURVE",
"200 594 LINE",
"200 594 OFFCURVE",
"259 634 OFFCURVE",
"286 634 CURVE SMOOTH",
"317 634 OFFCURVE",
"368 590 OFFCURVE",
"416 590 CURVE SMOOTH"
);
}
);
width = 446;
}
);
unicode = 02DC;
},
{
glyphname = ring;
lastChange = "2017-11-12 23:25:22 +0000";
layers = (
{
layerId = "B420756C-160B-4E3B-8A8F-018354DD19AA";
paths = (
{
closed = 1;
nodes = (
"443 556 OFFCURVE",
"493 604 OFFCURVE",
"493 668 CURVE SMOOTH",
"493 713 OFFCURVE",
"470 738 OFFCURVE",
"428 738 CURVE SMOOTH",
"369 738 OFFCURVE",
"327.98 693.003 OFFCURVE",
"320 647 CURVE SMOOTH {\nname = hr00;\n}",
"310.98 595.003 OFFCURVE",
"327 556 OFFCURVE",
"384 556 CURVE SMOOTH"
);
},
{
closed = 1;
nodes = (
"357 585 OFFCURVE",
"341.317 616.928 OFFCURVE",
"348 647 CURVE SMOOTH",
"355.318 679.931 OFFCURVE",
"387 707 OFFCURVE",
"421 707 CURVE SMOOTH",
"455 707 OFFCURVE",
"469.91 676.022 OFFCURVE",
"463 647 CURVE SMOOTH",
"454.91 613.021 OFFCURVE",
"425 585 OFFCURVE",
"391 585 CURVE SMOOTH"
);
}
);
width = 791;
},
{
layerId = "7271F2A9-EB19-499E-973E-7497F9144823";
paths = (
{
closed = 1;
nodes = (
"436 527 OFFCURVE",
"487.059 566.986 OFFCURVE",
"503 635 CURVE SMOOTH",
"517.059 694.986 OFFCURVE",
"496 743 OFFCURVE",
"430 743 CURVE SMOOTH",
"366 743 OFFCURVE",
"317.47 696.882 OFFCURVE",
"302 636 CURVE SMOOTH {\nname = hr00;\n}",
"286.469 574.879 OFFCURVE",
"309 527 OFFCURVE",
"374 527 CURVE SMOOTH"
);
},
{
closed = 1;
nodes = (
"379 606 OFFCURVE",
"369.146 620.952 OFFCURVE",
"374 636 CURVE SMOOTH",
"379.146 651.954 OFFCURVE",
"393 663 OFFCURVE",
"410 663 CURVE SMOOTH",
"424 663 OFFCURVE",
"437.139 651.959 OFFCURVE",
"432 635 CURVE SMOOTH",
"427.139 618.957 OFFCURVE",
"413 606 OFFCURVE",
"396 606 CURVE SMOOTH"
);
}
);
width = 791;
}
);
unicode = 02DA;
},
{
glyphname = caron;
lastChange = "2017-11-12 23:25:22 +0000";
layers = (
{
layerId = "B420756C-160B-4E3B-8A8F-018354DD19AA";
paths = (
{
closed = 1;
nodes = (
"534 595 LINE",
"686 730 LINE",
"647 730 LINE",
"532 625 LINE",
"466 730 LINE",
"434 730 LINE",
"520 595 LINE {\nname = hr00;\n}"
);
}
);
width = 791;
},
{
layerId = "7271F2A9-EB19-499E-973E-7497F9144823";
paths = (
{
closed = 1;
nodes = (
"562 575 LINE",
"729 750 LINE",
"600 750 LINE",
"547 684 LINE",
"518 750 LINE",
"395 750 LINE",
"477 575 LINE {\nname = hr00;\n}"
);
}
);
width = 791;
}
);
unicode = 02C7;
},
{
glyphname = degree;
lastChange = "2017-11-12 23:25:22 +0000";
layers = (
{
layerId = "B420756C-160B-4E3B-8A8F-018354DD19AA";
paths = (
{
closed = 1;
nodes = (
"492 438 OFFCURVE",
"547 492 OFFCURVE",
"547 573 CURVE SMOOTH",
"547 654 OFFCURVE",
"492 709 OFFCURVE",
"411 709 CURVE SMOOTH",
"330 709 OFFCURVE",
"275 654 OFFCURVE",
"275 573 CURVE SMOOTH {\nname = hr00;\n}",
"275 492 OFFCURVE",
"330 438 OFFCURVE",
"411 438 CURVE SMOOTH"
);
},
{
closed = 1;
nodes = (
"349 470 OFFCURVE",
"309 511 OFFCURVE",
"309 573 CURVE SMOOTH",
"309 635 OFFCURVE",
"349 677 OFFCURVE",
"411 677 CURVE SMOOTH",
"473 677 OFFCURVE",
"515 635 OFFCURVE",
"515 573 CURVE SMOOTH",
"515 511 OFFCURVE",
"473 470 OFFCURVE",
"411 470 CURVE SMOOTH"
);
}
);
width = 560;
},
{
layerId = "7271F2A9-EB19-499E-973E-7497F9144823";
paths = (
{
closed = 1;
nodes = (
"494 393 OFFCURVE",
"555 453 OFFCURVE",
"555 542 CURVE SMOOTH",
"555 631 OFFCURVE",
"494 692 OFFCURVE",
"405 692 CURVE SMOOTH",
"316 692 OFFCURVE",
"255 631 OFFCURVE",
"255 542 CURVE SMOOTH {\nname = hr00;\n}",
"255 453 OFFCURVE",
"316 393 OFFCURVE",
"405 393 CURVE SMOOTH"
);
},
{
closed = 1;
nodes = (
"360 466 OFFCURVE",
"330 497 OFFCURVE",
"330 542 CURVE SMOOTH",
"330 587 OFFCURVE",
"360 619 OFFCURVE",
"405 619 CURVE SMOOTH",
"450 619 OFFCURVE",
"482 587 OFFCURVE",
"482 542 CURVE SMOOTH",
"482 497 OFFCURVE",
"450 466 OFFCURVE",
"405 466 CURVE SMOOTH"
);
}
);
width = 560;
}
);
unicode = 00B0;
},
{
glyphname = section;
lastChange = "2017-11-12 23:25:22 +0000";
layers = (
{
layerId = "B420756C-160B-4E3B-8A8F-018354DD19AA";
paths = (
{
closed = 1;
nodes = (
"361 -122 OFFCURVE",
"407 20 OFFCURVE",
"407 70 CURVE SMOOTH",
"407 95 OFFCURVE",
"406 110 OFFCURVE",
"390 129 CURVE",
"390 129 OFFCURVE",
"463 221 OFFCURVE",
"463 295 CURVE SMOOTH",
"463 343 OFFCURVE",
"431 380 OFFCURVE",
"332 396 CURVE SMOOTH",
"252 409 OFFCURVE",
"222 418 OFFCURVE",
"222 476 CURVE SMOOTH",
"222 562 OFFCURVE",
"274 623 OFFCURVE",
"380 623 CURVE",
"425 623 OFFCURVE",
"522 610 OFFCURVE",
"522 610 CURVE",
"532 646 LINE {\nname = hr00;\n}",
"532 646 OFFCURVE",
"446 659 OFFCURVE",
"388 659 CURVE",
"252 659 OFFCURVE",
"181 568 OFFCURVE",
"181 474 CURVE SMOOTH",
"181 434 OFFCURVE",
"188 422 OFFCURVE",
"201 403 CURVE",
"201 403 OFFCURVE",
"119 328 OFFCURVE",
"119 246 CURVE SMOOTH",
"119 191 OFFCURVE",
"150 152 OFFCURVE",
"256 138 CURVE SMOOTH",
"349 125 OFFCURVE",
"368 109 OFFCURVE",
"368 66 CURVE SMOOTH",
"368 5 OFFCURVE",
"315 -87 OFFCURVE",
"209 -87 CURVE SMOOTH",
"158 -87 OFFCURVE",
"56 -73 OFFCURVE",
"56 -73 CURVE",
"45 -109 LINE",
"45 -109 OFFCURVE",
"144 -122 OFFCURVE",
"201 -122 CURVE SMOOTH"
);
},
{
closed = 1;
nodes = (
"342 161 OFFCURVE",
"311 168 OFFCURVE",
"271 174 CURVE SMOOTH",
"179 187 OFFCURVE",
"156 212 OFFCURVE",
"156 259 CURVE SMOOTH",
"156 318 OFFCURVE",
"225 386 OFFCURVE",
"225 386 CURVE",
"234 378 OFFCURVE",
"276 367 OFFCURVE",
"318 360 CURVE SMOOTH",
"400 347 OFFCURVE",
"428 324 OFFCURVE",
"428 286 CURVE SMOOTH",
"428 230 OFFCURVE",
"366 147 OFFCURVE",
"366 147 CURVE"
);
}
);
width = 459;
},
{
layerId = "7271F2A9-EB19-499E-973E-7497F9144823";
paths = (
{
closed = 1;
nodes = (
"417 -188 OFFCURVE",
"442 -15 OFFCURVE",
"442 46 CURVE SMOOTH",
"442 63 OFFCURVE",
"440 79 OFFCURVE",
"425 103 CURVE",
"460 143 OFFCURVE",
"512 202 OFFCURVE",
"512 266 CURVE SMOOTH",
"512 306 OFFCURVE",
"496 369 OFFCURVE",
"396 393 CURVE SMOOTH",
"342 406 OFFCURVE",
"283 414 OFFCURVE",
"283 455 CURVE SMOOTH",
"283 494 OFFCURVE",
"321 518 OFFCURVE",
"390 518 CURVE",
"434 518 OFFCURVE",
"538 502 OFFCURVE",
"538 502 CURVE",
"568 613 LINE {\nname = hr00;\n}",
"568 613 OFFCURVE",
"475 637 OFFCURVE",
"409 637 CURVE",
"235 637 OFFCURVE",
"154 508 OFFCURVE",
"154 428 CURVE SMOOTH",
"154 409 OFFCURVE",
"154 364 OFFCURVE",
"174 346 CURVE",
"139 320 OFFCURVE",
"78 266 OFFCURVE",
"78 182 CURVE SMOOTH",
"78 122 OFFCURVE",
"109 84 OFFCURVE",
"195 57 CURVE SMOOTH",
"287 28 OFFCURVE",
"311 31 OFFCURVE",
"311 -9 CURVE SMOOTH",
"311 -46 OFFCURVE",
"268 -69 OFFCURVE",
"204 -69 CURVE SMOOTH",
"153 -69 OFFCURVE",
"54 -55 OFFCURVE",
"54 -55 CURVE",
"16 -166 LINE",
"16 -166 OFFCURVE",
"120 -188 OFFCURVE",
"186 -188 CURVE SMOOTH"
);
},
{
closed = 1;
nodes = (
"317 160 OFFCURVE",
"292 168 OFFCURVE",
"261 180 CURVE SMOOTH",
"235 190 OFFCURVE",
"215 195 OFFCURVE",
"215 216 CURVE SMOOTH",
"215 244 OFFCURVE",
"239 289 OFFCURVE",
"249 301 CURVE",
"256 297 OFFCURVE",
"286 289 OFFCURVE",
"310 283 CURVE SMOOTH",
"354 271 OFFCURVE",
"373 260 OFFCURVE",
"373 236 CURVE SMOOTH",
"373 210 OFFCURVE",
"351 165 OFFCURVE",
"337 151 CURVE"
);
}
);
width = 487;
}
);
unicode = 00A7;
},
{
glyphname = copyright;
lastChange = "2017-11-12 23:25:22 +0000";
layers = (
{
layerId = "B420756C-160B-4E3B-8A8F-018354DD19AA";
paths = (
{
closed = 1;
nodes = (
"570 169 OFFCURVE",
"679 287 OFFCURVE",
"679 434 CURVE SMOOTH",
"679 581 OFFCURVE",
"570 700 OFFCURVE",
"423 700 CURVE SMOOTH",
"276 700 OFFCURVE",
"168 581 OFFCURVE",
"168 434 CURVE SMOOTH {\nname = hr00;\n}",
"168 287 OFFCURVE",
"276 169 OFFCURVE",
"423 169 CURVE SMOOTH"
);
},
{
closed = 1;
nodes = (
"454 281 OFFCURVE",
"497 289 OFFCURVE",
"497 289 CURVE",
"496 321 LINE",
"496 321 OFFCURVE",
"451 313 OFFCURVE",
"423 313 CURVE SMOOTH",
"359 313 OFFCURVE",
"346 357 OFFCURVE",
"346 433 CURVE SMOOTH",
"346 510 OFFCURVE",
"353 555 OFFCURVE",
"423 555 CURVE SMOOTH",
"455 555 OFFCURVE",
"496 548 OFFCURVE",
"496 548 CURVE",
"497 580 LINE",
"497 580 OFFCURVE",
"461 587 OFFCURVE",
"423 587 CURVE SMOOTH",
"333 587 OFFCURVE",
"314 524 OFFCURVE",
"314 433 CURVE SMOOTH",
"314 342 OFFCURVE",
"335 281 OFFCURVE",
"423 281 CURVE SMOOTH"
);
},
{
closed = 1;
nodes = (
"294 201 OFFCURVE",
"200 305 OFFCURVE",
"200 434 CURVE SMOOTH",
"200 563 OFFCURVE",
"294 668 OFFCURVE",
"423 668 CURVE SMOOTH",
"552 668 OFFCURVE",
"647 563 OFFCURVE",
"647 434 CURVE SMOOTH",
"647 305 OFFCURVE",
"552 201 OFFCURVE",
"423 201 CURVE SMOOTH"
);
}
);
width = 646;
},
{
layerId = "7271F2A9-EB19-499E-973E-7497F9144823";
paths = (
{
closed = 1;
nodes = (
"589 150 OFFCURVE",
"696 273 OFFCURVE",
"696 434 CURVE SMOOTH",
"696 588 OFFCURVE",
"589 718 OFFCURVE",
"421 718 CURVE SMOOTH",
"261 718 OFFCURVE",
"145 598 OFFCURVE",
"145 434 CURVE SMOOTH {\nname = hr00;\n}",
"145 274 OFFCURVE",
"262 150 OFFCURVE",
"419 150 CURVE SMOOTH"
);
},
{
closed = 1;
nodes = (
"485 269 OFFCURVE",
"513 287 OFFCURVE",
"513 287 CURVE",
"506 369 LINE",
"506 369 OFFCURVE",
"471 364 OFFCURVE",
"439 364 CURVE SMOOTH",
"414 364 OFFCURVE",
"404 386 OFFCURVE",
"404 439 CURVE SMOOTH",
"404 488 OFFCURVE",
"413 503 OFFCURVE",
"439 503 CURVE SMOOTH",
"471 503 OFFCURVE",
"506 497 OFFCURVE",
"506 497 CURVE",
"513 583 LINE",
"513 583 OFFCURVE",
"481 598 OFFCURVE",
"433 598 CURVE SMOOTH",
"341 598 OFFCURVE",
"301 561 OFFCURVE",
"301 439 CURVE SMOOTH",
"301 303 OFFCURVE",
"341 269 OFFCURVE",
"429 269 CURVE SMOOTH"
);
},
{
closed = 1;
nodes = (
"297 210 OFFCURVE",
"207 312 OFFCURVE",
"207 434 CURVE SMOOTH",
"207 556 OFFCURVE",
"298 658 OFFCURVE",
"420 658 CURVE SMOOTH",
"542 658 OFFCURVE",
"634 556 OFFCURVE",
"634 434 CURVE SMOOTH",
"634 311 OFFCURVE",
"544 210 OFFCURVE",
"419 210 CURVE SMOOTH"
);
}
);
width = 641;
}
);
unicode = 00A9;
},
{
glyphname = trademark;
lastChange = "2017-11-12 23:25:22 +0000";
layers = (
{
layerId = "B420756C-160B-4E3B-8A8F-018354DD19AA";
paths = (
{
closed = 1;
nodes = (
"489 331 LINE",
"489 589 LINE",
"573 342 LINE",
"608 342 LINE",
"696 589 LINE",
"696 331 LINE",
"728 331 LINE",
"728 621 LINE",
"678 621 LINE",
"591 379 LINE",
"507 621 LINE",
"457 621 LINE",
"457 331 LINE {\nname = hr01;\n}"
);
},
{
closed = 1;
nodes = (
"339 332 LINE",
"339 590 LINE",
"422 590 LINE",
"422 621 LINE",
"222 621 LINE",
"222 590 LINE",
"306 590 LINE",
"306 332 LINE"
);
}
);
width = 706;
},
{
layerId = "7271F2A9-EB19-499E-973E-7497F9144823";
paths = (
{
closed = 1;
nodes = (
"521 331 LINE",
"521 505 LINE",
"559 352 LINE",
"614 352 LINE",
"648 505 LINE",
"648 331 LINE",
"730 331 LINE",
"730 644 LINE",
"628 644 LINE",
"583 486 LINE",
"542 644 LINE",
"439 644 LINE",
"439 331 LINE {\nname = hr01;\n}"
);
},
{
closed = 1;
nodes = (
"373 332 LINE",
"373 565 LINE",
"414 565 LINE",
"414 644 LINE",
"214 644 LINE",
"214 565 LINE",
"285 565 LINE",
"285 332 LINE"
);
}
);
width = 689;
}
);
unicode = 2122;
},
{
glyphname = registered;
lastChange = "2017-11-12 23:25:22 +0000";
layers = (
{
layerId = "B420756C-160B-4E3B-8A8F-018354DD19AA";
paths = (
{
closed = 1;
nodes = (
"570 169 OFFCURVE",
"679 287 OFFCURVE",
"679 434 CURVE SMOOTH",
"679 581 OFFCURVE",
"570 700 OFFCURVE",
"423 700 CURVE SMOOTH",
"276 700 OFFCURVE",
"168 581 OFFCURVE",
"168 434 CURVE SMOOTH {\nname = hr00;\n}",
"168 287 OFFCURVE",
"276 169 OFFCURVE",
"423 169 CURVE SMOOTH"
);
},
{
closed = 1;
nodes = (
"294 201 OFFCURVE",
"200 305 OFFCURVE",
"200 434 CURVE SMOOTH",
"200 563 OFFCURVE",
"294 668 OFFCURVE",
"423 668 CURVE SMOOTH",
"552 668 OFFCURVE",
"647 563 OFFCURVE",
"647 434 CURVE SMOOTH",
"647 305 OFFCURVE",
"552 201 OFFCURVE",
"423 201 CURVE SMOOTH"
);
},
{
closed = 1;
nodes = (
"353 286 LINE",
"353 402 LINE",
"434 402 LINE",
"497 286 LINE",
"533 286 LINE",
"468 405 LINE",
"512 416 OFFCURVE",
"527 445 OFFCURVE",
"527 492 CURVE SMOOTH",
"527 560 OFFCURVE",
"490 581 OFFCURVE",
"414 581 CURVE SMOOTH",
"321 581 LINE",
"321 286 LINE"
);
},
{
closed = 1;
nodes = (
"353 550 LINE",
"415 550 LINE",
"469 550 OFFCURVE",
"495 537 OFFCURVE",
"495 492 CURVE SMOOTH",
"495 447 OFFCURVE",
"477 433 OFFCURVE",
"433 433 CURVE",
"353 433 LINE"
);
}
);
width = 646;
},
{
layerId = "7271F2A9-EB19-499E-973E-7497F9144823";
paths = (
{
closed = 1;
nodes = (
"589 150 OFFCURVE",
"696 273 OFFCURVE",
"696 434 CURVE SMOOTH",
"696 588 OFFCURVE",
"589 718 OFFCURVE",
"420 718 CURVE SMOOTH",
"261 718 OFFCURVE",
"145 598 OFFCURVE",
"145 434 CURVE SMOOTH {\nname = hr00;\n}",
"145 274 OFFCURVE",
"262 150 OFFCURVE",
"420 150 CURVE SMOOTH"
);
},
{
closed = 1;
nodes = (
"301 210 OFFCURVE",
"207 312 OFFCURVE",
"207 434 CURVE SMOOTH",
"207 556 OFFCURVE",
"299 658 OFFCURVE",
"420 658 CURVE SMOOTH",
"542 658 OFFCURVE",
"634 556 OFFCURVE",
"634 434 CURVE SMOOTH",
"634 311 OFFCURVE",
"544 210 OFFCURVE",
"420 210 CURVE SMOOTH"
);
},
{
closed = 1;
nodes = (
"396 276 LINE",
"396 369 LINE",
"425 369 LINE",
"453 276 LINE",
"553 276 LINE",
"512 386 LINE",
"541 410 OFFCURVE",
"550 434 OFFCURVE",
"550 486 CURVE SMOOTH",
"550 562 OFFCURVE",
"501 591 OFFCURVE",
"436 591 CURVE SMOOTH",
"300 591 LINE",
"300 276 LINE"
);
},
{
closed = 1;
nodes = (
"395 519 LINE",
"422 519 LINE",
"446 519 OFFCURVE",
"457 503 OFFCURVE",
"457 479 CURVE SMOOTH",
"457 456 OFFCURVE",
"445 440 OFFCURVE",
"423 440 CURVE",
"395 440 LINE"
);
}
);
width = 641;
}
);
unicode = 00AE;
},
{
glyphname = minus;
lastChange = "2017-11-12 23:25:22 +0000";
layers = (
{
layerId = "B420756C-160B-4E3B-8A8F-018354DD19AA";
paths = (
{
closed = 1;
nodes = (
"549 234 LINE",
"549 268 LINE",
"127 268 LINE",
"127 234 LINE {\nname = hr00;\n}"
);
}
);
width = 560;
},
{
layerId = "7271F2A9-EB19-499E-973E-7497F9144823";
paths = (
{
closed = 1;
nodes = (
"555 191 LINE",
"555 311 LINE",
"119 311 LINE",
"119 191 LINE {\nname = hr00;\n}"
);
}
);
width = 560;
}
);
unicode = 2212;
},
{
glyphname = multiply;
lastChange = "2017-11-12 23:25:22 +0000";
layers = (
{
layerId = "B420756C-160B-4E3B-8A8F-018354DD19AA";
paths = (
{
closed = 1;
nodes = (
"337 228 LINE",
"512 52 LINE",
"536 76 LINE",
"360 251 LINE",
"536 426 LINE",
"512 450 LINE",
"337 274 LINE",
"162 450 LINE {\nname = hr00;\n}",
"138 426 LINE",
"314 251 LINE",
"138 76 LINE",
"162 52 LINE"
);
}
);
width = 560;
},
{
layerId = "7271F2A9-EB19-499E-973E-7497F9144823";
paths = (
{
closed = 1;
nodes = (
"562 111 LINE",
"419 250 LINE",
"562 390 LINE",
"478 475 LINE",
"338 332 LINE",
"200 473 LINE {\nname = hr00;\n}",
"115 388 LINE",
"256 250 LINE",
"114 111 LINE",
"199 27 LINE",
"338 168 LINE",
"477 26 LINE"
);
}
);
width = 560;
}
);
unicode = 00D7;
},
{
glyphname = dotlessi;
lastChange = "2017-11-12 23:25:22 +0000";
layers = (
{
layerId = "B420756C-160B-4E3B-8A8F-018354DD19AA";
paths = (
{
closed = 1;
nodes = (
"108 0 LINE",
"224 500 LINE",
"189 500 LINE",
"73 0 LINE {\nname = hr00;\n}"
);
}
);
width = 182;
},
{
layerId = "7271F2A9-EB19-499E-973E-7497F9144823";
paths = (
{
closed = 1;
nodes = (
"189 0 LINE",
"304 500 LINE",
"170 500 LINE",
"55 0 LINE {\nname = hr00;\n}"
);
}
);
width = 244;
}
);
leftKerningGroup = i;
rightKerningGroup = i;
unicode = 0131;
},
{
glyphname = cedilla;
lastChange = "2017-11-12 23:25:22 +0000";
layers = (
{
layerId = "B420756C-160B-4E3B-8A8F-018354DD19AA";
paths = (
{
closed = 1;
nodes = (
"454 -199 OFFCURVE",
"484.893 -177.976 OFFCURVE",
"497 -124 CURVE SMOOTH {\nname = hr00;\n}",
"508.893 -70.976 OFFCURVE",
"471 -53 OFFCURVE",
"420 -53 CURVE SMOOTH",
"415 -53 LINE",
"430 5 LINE",
"398 5 LINE",
"377 -83 LINE",
"428 -83 LINE",
"450 -83 OFFCURVE",
"471.113 -90.027 OFFCURVE",
"463 -124 CURVE SMOOTH",
"455.113 -157.027 OFFCURVE",
"436 -168 OFFCURVE",
"407 -168 CURVE SMOOTH",
"375 -168 OFFCURVE",
"334 -164 OFFCURVE",
"334 -164 CURVE",
"326 -195 LINE",
"326 -195 OFFCURVE",
"360 -199 OFFCURVE",
"402 -199 CURVE SMOOTH"
);
}
);
width = 791;
},
{
layerId = "7271F2A9-EB19-499E-973E-7497F9144823";
paths = (
{
closed = 1;
nodes = (
"445 -229 OFFCURVE",
"489.081 -192.019 OFFCURVE",
"505 -124 CURVE SMOOTH {\nname = hr00;\n}",
"522.081 -51.019 OFFCURVE",
"477 -33 OFFCURVE",
"416 -33 CURVE SMOOTH",
"410 -33 LINE",
"421 5 LINE",
"369 5 LINE",
"347 -94 LINE",
"369 -94 LINE",
"391 -94 OFFCURVE",
"404.78 -95.94 OFFCURVE",
"400 -114 CURVE SMOOTH",
"395.78 -129.943 OFFCURVE",
"384 -138 OFFCURVE",
"358 -138 CURVE SMOOTH",
"342 -138 OFFCURVE",
"312 -137 OFFCURVE",
"312 -137 CURVE",
"292 -218 LINE",
"292 -218 OFFCURVE",
"335 -229 OFFCURVE",
"376 -229 CURVE SMOOTH"
);
}
);
width = 791;
}
);
unicode = 00B8;
},
{
glyphname = Lslash;
lastChange = "2017-11-12 23:29:48 +0000";
layers = (
{
components = (
{
name = L;
transform = "{1, 0, 0, 1, 2, 0}";
}
);
layerId = "B420756C-160B-4E3B-8A8F-018354DD19AA";
paths = (
{
closed = 1;
nodes = (
"405 463 LINE",
"394 493 LINE {\nname = hr00;\n}",
"75 293 LINE",
"88 265 LINE"
);
}
);
width = 442;
},
{
components = (
{
name = L;
transform = "{1, 0, 0, 1, 2, 0}";
}
);
layerId = "7271F2A9-EB19-499E-973E-7497F9144823";
paths = (
{
closed = 1;
nodes = (
"445 414 LINE",
"404 506 LINE {\nname = hr00;\n}",
"46 284 LINE",
"87 191 LINE"
);
}
);
width = 423;
}
);
leftKerningGroup = I;
rightKerningGroup = L;
unicode = 0141;
},
{
glyphname = eth;
lastChange = "2017-11-12 23:25:22 +0000";
layers = (
{
layerId = "B420756C-160B-4E3B-8A8F-018354DD19AA";
paths = (
{
closed = 1;
nodes = (
"376 -9 OFFCURVE",
"475 92 OFFCURVE",
"538 360 CURVE SMOOTH",
"579 538 OFFCURVE",
"491 667 OFFCURVE",
"289 736 CURVE {\nname = hr00;\n}",
"270 702 LINE",
"423 650 OFFCURVE",
"535 556 OFFCURVE",
"506 382 CURVE",
"506 382 OFFCURVE",
"412 426 OFFCURVE",
"338 426 CURVE SMOOTH",
"206 426 OFFCURVE",
"83 316 OFFCURVE",
"83 135 CURVE SMOOTH",
"83 60 OFFCURVE",
"125 -9 OFFCURVE",
"247 -9 CURVE SMOOTH"
);
},
{
closed = 1;
nodes = (
"164 29 OFFCURVE",
"123 75 OFFCURVE",
"123 139 CURVE SMOOTH",
"123 280 OFFCURVE",
"215 388 OFFCURVE",
"332 388 CURVE SMOOTH",
"399 388 OFFCURVE",
"493 346 OFFCURVE",
"498 343 CURVE",
"452 163 OFFCURVE",
"381 29 OFFCURVE",
"255 29 CURVE SMOOTH"
);
},
{
closed = 1;
nodes = (
"545 713 LINE",
"529 742 LINE",
"266 582 LINE",
"282 554 LINE"
);
}
);
width = 510;
},
{
layerId = "7271F2A9-EB19-499E-973E-7497F9144823";
paths = (
{
closed = 1;
nodes = (
"433 -9 OFFCURVE",
"516 112 OFFCURVE",
"575 353 CURVE SMOOTH",
"629 570 OFFCURVE",
"519 687 OFFCURVE",
"253 698 CURVE {\nname = hr00;\n}",
"209 582 LINE",
"306 568 OFFCURVE",
"478 556 OFFCURVE",
"453 416 CURVE",
"453 416 OFFCURVE",
"404 438 OFFCURVE",
"339 438 CURVE SMOOTH",
"206 438 OFFCURVE",
"114 345 OFFCURVE",
"81 221 CURVE SMOOTH",
"49 102 OFFCURVE",
"105 -9 OFFCURVE",
"249 -9 CURVE SMOOTH"
);
},
{
closed = 1;
nodes = (
"208 118 OFFCURVE",
"201 160 OFFCURVE",
"218 222 CURVE SMOOTH",
"233 277 OFFCURVE",
"271 318 OFFCURVE",
"320 318 CURVE SMOOTH",
"385 318 OFFCURVE",
"425 297 OFFCURVE",
"427 296 CURVE",
"396 173 OFFCURVE",
"346 118 OFFCURVE",
"279 118 CURVE SMOOTH"
);
},
{
closed = 1;
nodes = (
"558 667 LINE",
"515 739 LINE",
"228 542 LINE",
"274 470 LINE"
);
}
);
width = 527;
}
);
unicode = 00F0;
userData = {
"- fatto thin\\012- fatto bold\\012- aggiunti hint  com.typemytype.robofont.guides" = (
{
angle = 90;
isGlobal = 0;
magnetic = 5;
x = 487;
y = 0;
},
{
angle = 90;
isGlobal = 0;
magnetic = 5;
x = 457;
y = 0;
}
);
};
},
{
glyphname = Eth;
lastChange = "2017-11-12 23:25:22 +0000";
layers = (
{
components = (
{
name = D;
transform = "{1, 0, 0, 1, 2, 0}";
}
);
layerId = "B420756C-160B-4E3B-8A8F-018354DD19AA";
paths = (
{
closed = 1;
nodes = (
"363 332 LINE",
"372 370 LINE",
"96 370 LINE",
"89 332 LINE"
);
}
);
width = 610;
},
{
components = (
{
name = D;
transform = "{1, 0, 0, 1, 8, 0}";
}
);
layerId = "7271F2A9-EB19-499E-973E-7497F9144823";
paths = (
{
closed = 1;
nodes = (
"385 275 LINE",
"415 411 LINE",
"112 411 LINE",
"83 275 LINE"
);
}
);
width = 613;
}
);
leftKerningGroup = I;
rightKerningGroup = D;
unicode = 00D0;
},
{
glyphname = Thorn;
lastChange = "2017-11-12 23:25:22 +0000";
layers = (
{
layerId = "B420756C-160B-4E3B-8A8F-018354DD19AA";
paths = (
{
closed = 1;
nodes = (
"121 0 LINE",
"152 134 LINE",
"353 134 LINE SMOOTH",
"490 134 OFFCURVE",
"568 234 OFFCURVE",
"597 367 CURVE SMOOTH",
"622 482 OFFCURVE",
"600 579 OFFCURVE",
"452 579 CURVE SMOOTH",
"257 579 LINE",
"285 700 LINE",
"249 700 LINE",
"85 0 LINE"
);
},
{
closed = 1;
nodes = (
"250 547 LINE",
"444 547 LINE",
"571 547 OFFCURVE",
"584 462 OFFCURVE",
"560 367 CURVE SMOOTH",
"532 257 OFFCURVE",
"475 166 OFFCURVE",
"361 166 CURVE {\nname = hr00;\n}",
"160 166 LINE"
);
}
);
width = 556;
},
{
layerId = "7271F2A9-EB19-499E-973E-7497F9144823";
paths = (
{
closed = 1;
nodes = (
"193 0 LINE",
"216 100 LINE",
"312 99 LINE SMOOTH",
"458 97 OFFCURVE",
"565 193 OFFCURVE",
"599 348 CURVE SMOOTH",
"628 483 OFFCURVE",
"564 593 OFFCURVE",
"428 593 CURVE SMOOTH",
"332 593 LINE",
"357 690 LINE",
"226 690 LINE",
"63 0 LINE"
);
},
{
closed = 1;
nodes = (
"301 459 LINE",
"397 457 LINE",
"466 455 OFFCURVE",
"481 404 OFFCURVE",
"467 348 CURVE SMOOTH",
"449 277 OFFCURVE",
"408 236 OFFCURVE",
"343 236 CURVE {\nname = hr00;\n}",
"248 236 LINE"
);
}
);
width = 538;
}
);
leftKerningGroup = I;
unicode = 00DE;
},
{
glyphname = thorn;
lastChange = "2017-11-12 23:25:22 +0000";
layers = (
{
layerId = "B420756C-160B-4E3B-8A8F-018354DD19AA";
paths = (
{
closed = 1;
nodes = (
"52 -228 LINE",
"107 3 LINE",
"107 1 OFFCURVE",
"167 -9 OFFCURVE",
"221 -9 CURVE SMOOTH",
"364 -9 OFFCURVE",
"435 85 OFFCURVE",
"482 260 CURVE SMOOTH",
"509 358 OFFCURVE",
"510 509 OFFCURVE",
"378 509 CURVE SMOOTH",
"302 509 OFFCURVE",
"222 449 OFFCURVE",
"209 438 CURVE",
"279 728 LINE",
"245 728 LINE",
"19 -228 LINE"
);
},
{
closed = 1;
nodes = (
"227 27 OFFCURVE",
"114 39 OFFCURVE",
"114 39 CURVE",
"198 395 LINE {\nname = hr00;\n}",
"198 393 OFFCURVE",
"287 473 OFFCURVE",
"371 473 CURVE SMOOTH",
"471 473 OFFCURVE",
"470 339 OFFCURVE",
"448 261 CURVE SMOOTH",
"403 102 OFFCURVE",
"349 27 OFFCURVE",
"227 27 CURVE SMOOTH"
);
}
);
width = 475;
},
{
layerId = "7271F2A9-EB19-499E-973E-7497F9144823";
paths = (
{
closed = 1;
nodes = (
"130 -208 LINE",
"177 -7 LINE",
"177 -9 OFFCURVE",
"213 -12 OFFCURVE",
"248 -12 CURVE SMOOTH",
"389 -12 OFFCURVE",
"467 50 OFFCURVE",
"523 255 CURVE SMOOTH",
"553 364 OFFCURVE",
"549 511 OFFCURVE",
"394 511 CURVE SMOOTH",
"343 511 OFFCURVE",
"294 470 OFFCURVE",
"291 469 CURVE",
"344 698 LINE",
"218 698 LINE",
"4 -208 LINE"
);
},
{
closed = 1;
nodes = (
"273 107 OFFCURVE",
"206 113 OFFCURVE",
"206 113 CURVE",
"262 350 LINE {\nname = hr00;\n}",
"262 348 OFFCURVE",
"317 388 OFFCURVE",
"349 388 CURVE SMOOTH",
"416 388 OFFCURVE",
"407 305 OFFCURVE",
"394 255 CURVE SMOOTH",
"371 166 OFFCURVE",
"335 107 OFFCURVE",
"273 107 CURVE SMOOTH"
);
}
);
width = 495;
}
);
leftKerningGroup = b;
rightKerningGroup = b;
unicode = 00FE;
},
{
glyphname = zero.pnum;
lastChange = "2017-11-12 23:25:22 +0000";
layers = (
{
layerId = "B420756C-160B-4E3B-8A8F-018354DD19AA";
paths = (
{
closed = 1;
nodes = (
"324 -9 OFFCURVE",
"381 15 OFFCURVE",
"423 56 CURVE SMOOTH",
"504 134 OFFCURVE",
"536 265 OFFCURVE",
"536 351 CURVE SMOOTH",
"536 447 OFFCURVE",
"501 509 OFFCURVE",
"381 509 CURVE SMOOTH {\nname = hr00;\n}",
"328 509 OFFCURVE",
"281 494 OFFCURVE",
"241 465 CURVE SMOOTH",
"153 401 OFFCURVE",
"103 276 OFFCURVE",
"103 153 CURVE SMOOTH",
"103 52 OFFCURVE",
"135 -9 OFFCURVE",
"253 -9 CURVE SMOOTH"
);
},
{
closed = 1;
nodes = (
"171 23 OFFCURVE",
"138 62 OFFCURVE",
"138 154 CURVE SMOOTH",
"138 321 OFFCURVE",
"234 477 OFFCURVE",
"374 477 CURVE SMOOTH",
"472 477 OFFCURVE",
"501 435 OFFCURVE",
"501 342 CURVE SMOOTH",
"501 272 OFFCURVE",
"449 23 OFFCURVE",
"262 23 CURVE SMOOTH"
);
}
);
width = 522;
},
{
layerId = "7271F2A9-EB19-499E-973E-7497F9144823";
paths = (
{
closed = 1;
nodes = (
"318 -8 OFFCURVE",
"383 12 OFFCURVE",
"432 46 CURVE SMOOTH",
"527 112 OFFCURVE",
"568 228 OFFCURVE",
"568 328 CURVE SMOOTH",
"568 456 OFFCURVE",
"501 509 OFFCURVE",
"371 509 CURVE SMOOTH {\nname = hr00;\n}",
"306 509 OFFCURVE",
"249 494 OFFCURVE",
"203 465 CURVE SMOOTH",
"101 400 OFFCURVE",
"49 275 OFFCURVE",
"49 156 CURVE SMOOTH",
"49 44 OFFCURVE",
"127 -8 OFFCURVE",
"239 -8 CURVE SMOOTH"
);
},
{
closed = 1;
nodes = (
"227 118 OFFCURVE",
"200 146 OFFCURVE",
"200 187 CURVE SMOOTH",
"200 275 OFFCURVE",
"247 382 OFFCURVE",
"342 382 CURVE SMOOTH",
"387 382 OFFCURVE",
"415 358 OFFCURVE",
"415 301 CURVE SMOOTH",
"415 288 OFFCURVE",
"407 118 OFFCURVE",
"272 118 CURVE SMOOTH"
);
}
);
width = 504;
}
);
},
{
glyphname = one.pnum;
lastChange = "2017-11-12 23:25:22 +0000";
layers = (
{
layerId = "B420756C-160B-4E3B-8A8F-018354DD19AA";
paths = (
{
closed = 1;
nodes = (
"229 0 LINE",
"353 500 LINE",
"318 500 LINE",
"121 391 LINE {\nname = hr00;\n}",
"132 360 LINE",
"308 458 LINE",
"194 0 LINE"
);
}
);
width = 311;
},
{
layerId = "7271F2A9-EB19-499E-973E-7497F9144823";
paths = (
{
closed = 1;
nodes = (
"326 0 LINE",
"450 500 LINE",
"312 500 LINE",
"80 372 LINE {\nname = hr00;\n}",
"118 257 LINE",
"261 334 LINE",
"178 0 LINE"
);
}
);
width = 344;
}
);
},
{
glyphname = two.pnum;
lastChange = "2017-11-12 23:16:04 +0000";
layers = (
{
layerId = "B420756C-160B-4E3B-8A8F-018354DD19AA";
paths = (
{
closed = 1;
nodes = (
"407 0 LINE {\nname = hr00;\n}",
"407 32 LINE",
"107 32 LINE",
"334 192 LINE",
"404 241 OFFCURVE",
"482 308 OFFCURVE",
"482 412 CURVE SMOOTH",
"482 470 OFFCURVE",
"442 509 OFFCURVE",
"348 509 CURVE SMOOTH",
"277 509 OFFCURVE",
"170 488 OFFCURVE",
"170 488 CURVE",
"165 457 LINE",
"166 458 OFFCURVE",
"277 477 OFFCURVE",
"335 477 CURVE SMOOTH",
"429 477 OFFCURVE",
"446 444 OFFCURVE",
"446 400 CURVE SMOOTH",
"446 323 OFFCURVE",
"378 262 OFFCURVE",
"301 207 CURVE SMOOTH",
"56 32 LINE",
"49 0 LINE"
);
}
);
width = 451;
},
{
layerId = "7271F2A9-EB19-499E-973E-7497F9144823";
paths = (
{
closed = 1;
nodes = (
"417 0 LINE {\nname = hr00;\n}",
"449 129 LINE",
"260 129 LINE",
"360 198 LINE",
"439 252 OFFCURVE",
"489 297 OFFCURVE",
"489 387 CURVE SMOOTH",
"489 447 OFFCURVE",
"447 509 OFFCURVE",
"322 509 CURVE SMOOTH",
"229 509 OFFCURVE",
"123 483 OFFCURVE",
"123 483 CURVE",
"101 363 LINE",
"101 364 OFFCURVE",
"187 378 OFFCURVE",
"255 378 CURVE SMOOTH",
"310 378 OFFCURVE",
"325 369 OFFCURVE",
"325 353 CURVE SMOOTH",
"325 323 OFFCURVE",
"213 243 OFFCURVE",
"139 194 CURVE SMOOTH",
"33 123 LINE",
"3 0 LINE"
);
}
);
width = 422;
}
);
},
{
glyphname = three.pnum;
lastChange = "2017-11-12 23:25:22 +0000";
layers = (
{
layerId = "B420756C-160B-4E3B-8A8F-018354DD19AA";
paths = (
{
closed = 1;
nodes = (
"392 -9 OFFCURVE",
"448 85 OFFCURVE",
"448 179 CURVE SMOOTH",
"448 226 OFFCURVE",
"409 260 OFFCURVE",
"363 267 CURVE",
"396 268 OFFCURVE",
"495 302 OFFCURVE",
"495 426 CURVE SMOOTH",
"495 478 OFFCURVE",
"455 509 OFFCURVE",
"360 509 CURVE SMOOTH",
"284 509 OFFCURVE",
"183 491 CURVE {\nname = hr00;\n}",
"179 459 LINE",
"179 459 OFFCURVE",
"277 477 OFFCURVE",
"353 477 CURVE SMOOTH",
"429 477 OFFCURVE",
"459 465 OFFCURVE",
"459 415 CURVE SMOOTH",
"459 329 OFFCURVE",
"376 282 OFFCURVE",
"315 282 CURVE",
"194 282 LINE",
"186 250 LINE",
"304 250 LINE",
"337 250 OFFCURVE",
"412 242 OFFCURVE",
"412 172 CURVE SMOOTH",
"412 102 OFFCURVE",
"371 23 OFFCURVE",
"245 23 CURVE SMOOTH",
"164 23 OFFCURVE",
"69 41 OFFCURVE",
"69 41 CURVE",
"56 9 LINE",
"56 9 OFFCURVE",
"160 -9 OFFCURVE",
"243 -9 CURVE SMOOTH"
);
}
);
width = 469;
},
{
layerId = "7271F2A9-EB19-499E-973E-7497F9144823";
paths = (
{
closed = 1;
nodes = (
"397 -9 OFFCURVE",
"463 93 OFFCURVE",
"463 185 CURVE SMOOTH",
"463 217 OFFCURVE",
"443 247 OFFCURVE",
"397 260 CURVE",
"442 270 OFFCURVE",
"505 305 OFFCURVE",
"505 401 CURVE SMOOTH",
"505 449 OFFCURVE",
"473 510 OFFCURVE",
"322 510 CURVE SMOOTH",
"242 510 OFFCURVE",
"127 485 CURVE {\nname = hr00;\n}",
"111 369 LINE",
"111 369 OFFCURVE",
"213 381 OFFCURVE",
"289 381 CURVE SMOOTH",
"345 381 OFFCURVE",
"361 373 OFFCURVE",
"361 353 CURVE SMOOTH",
"361 321 OFFCURVE",
"329 310 OFFCURVE",
"277 310 CURVE",
"149 310 LINE",
"119 190 LINE",
"247 190 LINE",
"300 190 OFFCURVE",
"326 182 OFFCURVE",
"326 164 CURVE SMOOTH",
"326 128 OFFCURVE",
"280 120 OFFCURVE",
"222 120 CURVE SMOOTH",
"156 120 OFFCURVE",
"44 131 OFFCURVE",
"44 131 CURVE",
"2 14 LINE",
"2 14 OFFCURVE",
"112 -9 OFFCURVE",
"205 -9 CURVE SMOOTH"
);
}
);
width = 427;
}
);
},
{
glyphname = four.pnum;
lastChange = "2017-11-12 23:25:22 +0000";
layers = (
{
layerId = "B420756C-160B-4E3B-8A8F-018354DD19AA";
paths = (
{
closed = 1;
nodes = (
"355 0 LINE",
"382 111 LINE",
"443 111 LINE",
"451 143 LINE",
"390 143 LINE",
"424 280 LINE",
"389 280 LINE",
"355 143 LINE",
"116 143 LINE",
"378 500 LINE",
"336 500 LINE",
"73 142 LINE",
"66 111 LINE",
"347 111 LINE",
"320 0 LINE {\nname = hr00;\n}"
);
}
);
width = 454;
},
{
layerId = "7271F2A9-EB19-499E-973E-7497F9144823";
paths = (
{
closed = 1;
nodes = (
"400 0 LINE",
"421 84 LINE",
"484 84 LINE",
"513 205 LINE",
"452 205 LINE",
"479 315 LINE",
"341 315 LINE",
"314 205 LINE",
"215 205 LINE",
"433 500 LINE",
"274 500 LINE",
"47 187 LINE",
"20 84 LINE",
"283 84 LINE",
"262 0 LINE {\nname = hr00;\n}"
);
}
);
width = 468;
}
);
},
{
glyphname = five.pnum;
lastChange = "2017-11-12 23:25:22 +0000";
layers = (
{
layerId = "B420756C-160B-4E3B-8A8F-018354DD19AA";
paths = (
{
closed = 1;
nodes = (
"372 -9 OFFCURVE",
"448 86 OFFCURVE",
"448 206 CURVE SMOOTH",
"448 270 OFFCURVE",
"405 313 OFFCURVE",
"315 313 CURVE SMOOTH",
"257 313 OFFCURVE",
"166 276 OFFCURVE",
"166 276 CURVE",
"228 469 LINE",
"491 469 LINE",
"499 501 LINE {\nname = hr00;\n}",
"203 501 LINE",
"123 244 LINE",
"146 238 LINE",
"146 238 OFFCURVE",
"244 281 OFFCURVE",
"306 281 CURVE SMOOTH",
"390 281 OFFCURVE",
"411 249 OFFCURVE",
"411 198 CURVE SMOOTH",
"411 105 OFFCURVE",
"346 23 OFFCURVE",
"240 23 CURVE SMOOTH",
"177 23 OFFCURVE",
"76 41 OFFCURVE",
"76 41 CURVE",
"64 9 LINE",
"64 9 OFFCURVE",
"166 -9 OFFCURVE",
"232 -9 CURVE SMOOTH"
);
}
);
width = 459;
},
{
layerId = "7271F2A9-EB19-499E-973E-7497F9144823";
paths = (
{
closed = 1;
nodes = (
"408 -9 OFFCURVE",
"497 66 OFFCURVE",
"497 183 CURVE SMOOTH",
"497 293 OFFCURVE",
"418 321 OFFCURVE",
"314 321 CURVE SMOOTH",
"266 321 OFFCURVE",
"221 306 OFFCURVE",
"221 306 CURVE",
"251 368 LINE",
"522 368 LINE",
"555 500 LINE {\nname = hr00;\n}",
"160 500 LINE",
"66 209 LINE",
"166 186 LINE",
"166 186 OFFCURVE",
"232 205 OFFCURVE",
"273 205 CURVE SMOOTH",
"332 205 OFFCURVE",
"353 192 OFFCURVE",
"353 166 CURVE SMOOTH",
"353 127 OFFCURVE",
"311 113 OFFCURVE",
"253 113 CURVE SMOOTH",
"179 113 OFFCURVE",
"47 145 OFFCURVE",
"47 145 CURVE",
"5 24 LINE",
"5 24 OFFCURVE",
"148 -9 OFFCURVE",
"237 -9 CURVE SMOOTH"
);
}
);
width = 461;
}
);
},
{
glyphname = six.pnum;
lastChange = "2017-11-12 23:25:22 +0000";
layers = (
{
layerId = "B420756C-160B-4E3B-8A8F-018354DD19AA";
paths = (
{
closed = 1;
nodes = (
"420 -10 OFFCURVE",
"471 119 OFFCURVE",
"471 208 CURVE SMOOTH",
"471 272 OFFCURVE",
"446 313 OFFCURVE",
"331 313 CURVE SMOOTH",
"274 313 OFFCURVE",
"181 283 OFFCURVE",
"155 270 CURVE",
"193 417 OFFCURVE",
"279 477 OFFCURVE",
"373 477 CURVE SMOOTH",
"437 477 OFFCURVE",
"508 463 OFFCURVE",
"508 463 CURVE",
"519 494 LINE {\nname = hr00;\n}",
"519 494 OFFCURVE",
"445 509 OFFCURVE",
"381 509 CURVE SMOOTH",
"185 509 OFFCURVE",
"102 319 OFFCURVE",
"102 126 CURVE SMOOTH",
"102 44 OFFCURVE",
"140 -10 OFFCURVE",
"236 -10 CURVE SMOOTH"
);
},
{
closed = 1;
nodes = (
"162 21 OFFCURVE",
"137 67 OFFCURVE",
"137 135 CURVE SMOOTH",
"137 165 OFFCURVE",
"144 212 OFFCURVE",
"149 237 CURVE",
"149 237 OFFCURVE",
"250 281 OFFCURVE",
"321 281 CURVE SMOOTH",
"422 281 OFFCURVE",
"435 247 OFFCURVE",
"435 206 CURVE SMOOTH",
"435 177 OFFCURVE",
"425 21 OFFCURVE",
"246 21 CURVE SMOOTH"
);
}
);
width = 480;
},
{
layerId = "7271F2A9-EB19-499E-973E-7497F9144823";
paths = (
{
closed = 1;
nodes = (
"425 -10 OFFCURVE",
"499 75 OFFCURVE",
"499 194 CURVE SMOOTH",
"499 274 OFFCURVE",
"455 318 OFFCURVE",
"332 318 CURVE SMOOTH",
"286 318 OFFCURVE",
"245 307 OFFCURVE",
"214 292 CURVE",
"233 363 OFFCURVE",
"270 390 OFFCURVE",
"356 390 CURVE SMOOTH",
"436 390 OFFCURVE",
"512 375 OFFCURVE",
"512 375 CURVE",
"551 482 LINE {\nname = hr00;\n}",
"551 482 OFFCURVE",
"442 511 OFFCURVE",
"368 511 CURVE SMOOTH",
"174 511 OFFCURVE",
"52 360 OFFCURVE",
"52 163 CURVE SMOOTH",
"52 64 OFFCURVE",
"106 -10 OFFCURVE",
"235 -10 CURVE SMOOTH"
);
},
{
closed = 1;
nodes = (
"192 99 OFFCURVE",
"185 142 OFFCURVE",
"185 169 CURVE SMOOTH",
"185 175 OFFCURVE",
"186 181 OFFCURVE",
"187 185 CURVE",
"187 185 OFFCURVE",
"233 208 OFFCURVE",
"292 208 CURVE SMOOTH",
"344 208 OFFCURVE",
"364 196 OFFCURVE",
"364 171 CURVE SMOOTH",
"364 131 OFFCURVE",
"338 99 OFFCURVE",
"264 99 CURVE SMOOTH"
);
}
);
width = 462;
}
);
},
{
glyphname = seven.pnum;
lastChange = "2017-11-12 23:25:22 +0000";
layers = (
{
layerId = "B420756C-160B-4E3B-8A8F-018354DD19AA";
paths = (
{
closed = 1;
nodes = (
"455 448 LINE",
"468 501 LINE",
"151 501 LINE",
"143 469 LINE {\nname = hr00;\n}",
"424 469 LINE",
"419 451 LINE",
"98 7 LINE",
"127 -10 LINE"
);
}
);
width = 389;
},
{
layerId = "7271F2A9-EB19-499E-973E-7497F9144823";
paths = (
{
closed = 1;
nodes = (
"483 334 LINE",
"524 501 LINE",
"120 501 LINE",
"88 377 LINE {\nname = hr00;\n}",
"343 377 LINE",
"334 344 LINE",
"73 38 LINE",
"185 -25 LINE"
);
}
);
width = 411;
}
);
},
{
glyphname = eight.pnum;
lastChange = "2017-11-12 23:25:22 +0000";
layers = (
{
layerId = "B420756C-160B-4E3B-8A8F-018354DD19AA";
paths = (
{
closed = 1;
nodes = (
"410 -10 OFFCURVE",
"472 66 OFFCURVE",
"472 173 CURVE SMOOTH",
"472 217 OFFCURVE",
"446 247 OFFCURVE",
"386 263 CURVE",
"460 278 OFFCURVE",
"526 322 OFFCURVE",
"526 415 CURVE SMOOTH",
"526 473 OFFCURVE",
"475 509 OFFCURVE",
"369 509 CURVE SMOOTH {\nname = hr00;\n}",
"218 509 OFFCURVE",
"154 432 OFFCURVE",
"154 353 CURVE SMOOTH",
"154 312 OFFCURVE",
"172 283 OFFCURVE",
"226 263 CURVE",
"156 240 OFFCURVE",
"82 197 OFFCURVE",
"82 86 CURVE SMOOTH",
"82 27 OFFCURVE",
"134 -10 OFFCURVE",
"240 -10 CURVE SMOOTH"
);
},
{
closed = 1;
nodes = (
"163 22 OFFCURVE",
"118 44 OFFCURVE",
"118 90 CURVE SMOOTH",
"118 186 OFFCURVE",
"186 230 OFFCURVE",
"256 246 CURVE",
"345 246 LINE",
"406 230 OFFCURVE",
"436 209 OFFCURVE",
"436 176 CURVE SMOOTH",
"436 80 OFFCURVE",
"380 22 OFFCURVE",
"248 22 CURVE SMOOTH"
);
},
{
closed = 1;
nodes = (
"203 297 OFFCURVE",
"190 318 OFFCURVE",
"190 352 CURVE SMOOTH",
"190 390 OFFCURVE",
"209 477 OFFCURVE",
"355 477 CURVE SMOOTH",
"450 477 OFFCURVE",
"490 454 OFFCURVE",
"490 410 CURVE SMOOTH",
"490 326 OFFCURVE",
"428 299 OFFCURVE",
"353 278 CURVE",
"264 278 LINE"
);
}
);
width = 497;
},
{
layerId = "7271F2A9-EB19-499E-973E-7497F9144823";
paths = (
{
closed = 1;
nodes = (
"448 -10 OFFCURVE",
"511 84 OFFCURVE",
"511 169 CURVE SMOOTH",
"511 195 OFFCURVE",
"501 231 OFFCURVE",
"457 265 CURVE",
"524 293 OFFCURVE",
"557 339 OFFCURVE",
"557 394 CURVE SMOOTH",
"557 454 OFFCURVE",
"493 509 OFFCURVE",
"361 509 CURVE SMOOTH {\nname = hr00;\n}",
"185 509 OFFCURVE",
"99 428 OFFCURVE",
"99 346 CURVE SMOOTH",
"99 335 OFFCURVE",
"100 301 OFFCURVE",
"148 265 CURVE",
"78 233 OFFCURVE",
"30 179 OFFCURVE",
"30 109 CURVE SMOOTH",
"30 42 OFFCURVE",
"103 -10 OFFCURVE",
"232 -10 CURVE SMOOTH"
);
},
{
closed = 1;
nodes = (
"201 117 OFFCURVE",
"185 133 OFFCURVE",
"185 151 CURVE SMOOTH",
"185 169 OFFCURVE",
"199 194 OFFCURVE",
"241 200 CURVE",
"329 200 LINE",
"353 196 OFFCURVE",
"365 187 OFFCURVE",
"365 169 CURVE SMOOTH",
"365 147 OFFCURVE",
"350 117 OFFCURVE",
"264 117 CURVE SMOOTH"
);
},
{
closed = 1;
nodes = (
"249 326 OFFCURVE",
"245 335 OFFCURVE",
"245 345 CURVE SMOOTH",
"245 358 OFFCURVE",
"246 392 OFFCURVE",
"332 392 CURVE SMOOTH",
"388 392 OFFCURVE",
"404 379 OFFCURVE",
"404 363 CURVE SMOOTH",
"404 346 OFFCURVE",
"394 329 OFFCURVE",
"359 317 CURVE",
"271 317 LINE"
);
}
);
width = 478;
}
);
},
{
glyphname = nine.pnum;
lastChange = "2017-11-12 23:25:22 +0000";
layers = (
{
layerId = "B420756C-160B-4E3B-8A8F-018354DD19AA";
paths = (
{
closed = 1;
nodes = (
"409 -10 OFFCURVE",
"492 173 OFFCURVE",
"492 372 CURVE SMOOTH",
"492 454 OFFCURVE",
"454 509 OFFCURVE",
"358 509 CURVE SMOOTH",
"174 509 OFFCURVE",
"126 387 OFFCURVE",
"126 301 CURVE SMOOTH",
"126 247 OFFCURVE",
"150 194 OFFCURVE",
"265 194 CURVE SMOOTH",
"326 194 OFFCURVE",
"401 219 OFFCURVE",
"444 238 CURVE",
"415 101 OFFCURVE",
"320 22 OFFCURVE",
"221 22 CURVE SMOOTH",
"157 22 OFFCURVE",
"86 36 OFFCURVE",
"86 36 CURVE",
"75 5 LINE {\nname = hr00;\n}",
"75 5 OFFCURVE",
"149 -10 OFFCURVE",
"213 -10 CURVE SMOOTH"
);
},
{
closed = 1;
nodes = (
"174 226 OFFCURVE",
"161 269 OFFCURVE",
"161 301 CURVE SMOOTH",
"161 330 OFFCURVE",
"169 478 OFFCURVE",
"348 478 CURVE SMOOTH",
"432 478 OFFCURVE",
"458 432 OFFCURVE",
"458 364 CURVE SMOOTH",
"458 334 OFFCURVE",
"455 295 OFFCURVE",
"449 270 CURVE SMOOTH",
"449 270 OFFCURVE",
"346 226 OFFCURVE",
"275 226 CURVE SMOOTH"
);
}
);
width = 480;
},
{
layerId = "7271F2A9-EB19-499E-973E-7497F9144823";
paths = (
{
closed = 1;
nodes = (
"401 -10 OFFCURVE",
"523 141 OFFCURVE",
"523 338 CURVE SMOOTH",
"523 437 OFFCURVE",
"469 511 OFFCURVE",
"340 511 CURVE SMOOTH",
"156 511 OFFCURVE",
"76 402 OFFCURVE",
"76 307 CURVE SMOOTH",
"76 227 OFFCURVE",
"120 183 OFFCURVE",
"243 183 CURVE SMOOTH",
"289 183 OFFCURVE",
"329 196 OFFCURVE",
"361 209 CURVE",
"342 138 OFFCURVE",
"305 111 OFFCURVE",
"219 111 CURVE SMOOTH",
"139 111 OFFCURVE",
"63 126 OFFCURVE",
"63 126 CURVE",
"24 19 LINE {\nname = hr00;\n}",
"24 19 OFFCURVE",
"133 -10 OFFCURVE",
"207 -10 CURVE SMOOTH"
);
},
{
closed = 1;
nodes = (
"231 293 OFFCURVE",
"211 305 OFFCURVE",
"211 330 CURVE SMOOTH",
"211 370 OFFCURVE",
"237 402 OFFCURVE",
"311 402 CURVE SMOOTH",
"383 402 OFFCURVE",
"390 359 OFFCURVE",
"390 332 CURVE SMOOTH",
"390 326 OFFCURVE",
"389 320 OFFCURVE",
"388 316 CURVE SMOOTH",
"388 316 OFFCURVE",
"342 293 OFFCURVE",
"283 293 CURVE SMOOTH"
);
}
);
width = 459;
}
);
},
{
glyphname = brokenbar;
lastChange = "2017-11-12 23:25:22 +0000";
layers = (
{
layerId = "B420756C-160B-4E3B-8A8F-018354DD19AA";
paths = (
{
closed = 1;
nodes = (
"228 354 LINE",
"228 730 LINE",
"193 730 LINE {\nname = hr00;\n}",
"193 354 LINE"
);
},
{
closed = 1;
nodes = (
"228 -230 LINE",
"228 146 LINE",
"193 146 LINE",
"193 -230 LINE"
);
}
);
width = 306;
},
{
layerId = "7271F2A9-EB19-499E-973E-7497F9144823";
paths = (
{
closed = 1;
nodes = (
"291 -210 LINE",
"291 170 LINE",
"157 170 LINE",
"157 -210 LINE"
);
},
{
closed = 1;
nodes = (
"291 328 LINE",
"291 700 LINE",
"157 700 LINE {\nname = hr00;\n}",
"157 328 LINE"
);
}
);
width = 335;
}
);
unicode = 00A6;
},
{
glyphname = plusminus;
lastChange = "2017-11-12 23:25:22 +0000";
layers = (
{
layerId = "B420756C-160B-4E3B-8A8F-018354DD19AA";
paths = (
{
closed = 1;
nodes = (
"343 164 LINE",
"343 308 LINE",
"547 308 LINE",
"547 342 LINE",
"343 342 LINE",
"343 480 LINE",
"307 480 LINE",
"307 342 LINE",
"105 342 LINE",
"105 308 LINE {\nname = hr00;\n}",
"307 308 LINE",
"307 164 LINE"
);
},
{
closed = 1;
nodes = (
"547 50 LINE",
"547 84 LINE",
"105 84 LINE",
"105 50 LINE"
);
}
);
width = 560;
},
{
layerId = "7271F2A9-EB19-499E-973E-7497F9144823";
paths = (
{
closed = 1;
nodes = (
"388 170 LINE",
"388 270 LINE",
"559 270 LINE",
"559 390 LINE",
"388 390 LINE",
"388 498 LINE",
"268 498 LINE",
"268 390 LINE",
"99 390 LINE",
"99 270 LINE {\nname = hr00;\n}",
"268 270 LINE",
"268 170 LINE"
);
},
{
closed = 1;
nodes = (
"559 19 LINE",
"559 139 LINE",
"99 139 LINE",
"99 19 LINE"
);
}
);
width = 560;
}
);
unicode = 00B1;
},
{
glyphname = pi;
lastChange = "2017-11-12 23:25:22 +0000";
layers = (
{
layerId = "B420756C-160B-4E3B-8A8F-018354DD19AA";
paths = (
{
closed = 1;
nodes = (
"216 0 LINE",
"245 468 LINE",
"449 468 LINE",
"449 154 LINE {\nname = hr00;\n}",
"449 30 OFFCURVE",
"482 0 OFFCURVE",
"583 0 CURVE",
"583 32 LINE",
"506 32 OFFCURVE",
"484 51 OFFCURVE",
"484 154 CURVE SMOOTH",
"484 469 LINE",
"564 471 OFFCURVE",
"595 484 OFFCURVE",
"595 484 CURVE",
"595 516 LINE",
"595 516 OFFCURVE",
"533 500 OFFCURVE",
"450 500 CURVE SMOOTH",
"226 500 LINE",
"145 500 OFFCURVE",
"89 487 OFFCURVE",
"89 487 CURVE",
"89 455 LINE",
"89 455 OFFCURVE",
"123 466 OFFCURVE",
"210 467 CURVE",
"180 0 LINE"
);
}
);
width = 560;
},
{
layerId = "7271F2A9-EB19-499E-973E-7497F9144823";
paths = (
{
closed = 1;
nodes = (
"587 104 LINE",
"529 104 OFFCURVE",
"518 121 OFFCURVE",
"518 154 CURVE SMOOTH",
"518 388 LINE",
"568 391 OFFCURVE",
"592 402 OFFCURVE",
"592 402 CURVE",
"592 512 LINE",
"592 512 OFFCURVE",
"540 500 OFFCURVE",
"483 500 CURVE SMOOTH",
"232 500 LINE",
"146 500 OFFCURVE",
"82 482 OFFCURVE",
"82 482 CURVE",
"82 373 LINE",
"82 373 OFFCURVE",
"139 386 OFFCURVE",
"170 386 CURVE",
"138 0 LINE",
"273 0 LINE",
"299 386 LINE",
"384 386 LINE",
"384 154 LINE {\nname = hr00;\n}",
"384 20 OFFCURVE",
"406 -10 OFFCURVE",
"587 -10 CURVE"
);
}
);
width = 560;
}
);
unicode = 03C0;
},
{
glyphname = bullet;
lastChange = "2017-11-12 23:25:22 +0000";
layers = (
{
layerId = "B420756C-160B-4E3B-8A8F-018354DD19AA";
paths = (
{
closed = 1;
nodes = (
"435 110 LINE",
"435 400 LINE",
"185 400 LINE",
"185 110 LINE {\nname = hr00;\n}"
);
}
);
width = 503;
},
{
layerId = "7271F2A9-EB19-499E-973E-7497F9144823";
paths = (
{
closed = 1;
nodes = (
"410 100 LINE",
"410 380 LINE",
"160 380 LINE",
"160 100 LINE {\nname = hr00;\n}"
);
}
);
width = 458;
}
);
unicode = 2022;
},
{
glyphname = ordfeminine;
lastChange = "2017-11-12 23:25:22 +0000";
layers = (
{
layerId = "B420756C-160B-4E3B-8A8F-018354DD19AA";
paths = (
{
closed = 1;
nodes = (
"271 386 OFFCURVE",
"339 408 OFFCURVE",
"339 408 CURVE",
"352 393 OFFCURVE",
"363 387 OFFCURVE",
"388 386 CURVE",
"396 413 LINE",
"382 416 OFFCURVE",
"370 421 OFFCURVE",
"365 434 CURVE",
"397 571 LINE SMOOTH",
"412 634 OFFCURVE",
"392 659 OFFCURVE",
"335 659 CURVE SMOOTH",
"298 659 OFFCURVE",
"227 651 OFFCURVE",
"227 651 CURVE",
"223 622 LINE",
"223 622 OFFCURVE",
"294 629 OFFCURVE",
"328 629 CURVE SMOOTH",
"363 629 OFFCURVE",
"375 615 OFFCURVE",
"365 572 CURVE",
"359 549 LINE",
"257 542 LINE SMOOTH",
"202 538 OFFCURVE",
"176 514 OFFCURVE",
"164 466 CURVE SMOOTH",
"152 417 OFFCURVE",
"174 386 OFFCURVE",
"215 386 CURVE SMOOTH"
);
},
{
closed = 1;
nodes = (
"201 417 OFFCURVE",
"190 432 OFFCURVE",
"198 464 CURVE SMOOTH",
"206 497 OFFCURVE",
"222 512 OFFCURVE",
"257 514 CURVE SMOOTH",
"352 520 LINE",
"332 435 LINE",
"332 435 OFFCURVE",
"271 417 OFFCURVE",
"226 417 CURVE SMOOTH"
);
}
);
width = 354;
},
{
layerId = "7271F2A9-EB19-499E-973E-7497F9144823";
paths = (
{
closed = 1;
nodes = (
"418 395 LINE",
"413 396 OFFCURVE",
"405 400 OFFCURVE",
"402 403 CURVE",
"434 544 LINE SMOOTH",
"455 638 OFFCURVE",
"402 659 OFFCURVE",
"308 659 CURVE SMOOTH",
"237 659 OFFCURVE",
"160 633 OFFCURVE",
"160 633 CURVE",
"146 558 LINE",
"146 558 OFFCURVE",
"235 565 OFFCURVE",
"279 565 CURVE SMOOTH",
"308 565 OFFCURVE",
"319 560 OFFCURVE",
"318 550 CURVE",
"312 528 LINE",
"248 525 LINE SMOOTH",
"156 521 OFFCURVE",
"115 490 OFFCURVE",
"100 424 CURVE SMOOTH",
"84 357 OFFCURVE",
"112 314 OFFCURVE",
"181 314 CURVE SMOOTH",
"228 314 OFFCURVE",
"278 346 OFFCURVE",
"278 346 CURVE",
"287 325 OFFCURVE",
"298 313 OFFCURVE",
"397 313 CURVE"
);
},
{
closed = 1;
nodes = (
"218 402 OFFCURVE",
"210 409 OFFCURVE",
"213 428 CURVE SMOOTH",
"217 446 OFFCURVE",
"230 453 OFFCURVE",
"252 455 CURVE SMOOTH",
"296 458 LINE",
"288 418 LINE",
"288 418 OFFCURVE",
"259 402 OFFCURVE",
"239 402 CURVE SMOOTH"
);
}
);
width = 329;
}
);
unicode = 00AA;
userData = {
"[LA] versione BOLD  com.typemytype.robofont.guides" = (
{
angle = 0;
isGlobal = 0;
magnetic = 5;
x = 0;
y = 475;
},
{
angle = 90;
isGlobal = 0;
magnetic = 5;
x = 211;
y = 0;
}
);
};
},
{
glyphname = ordmasculine;
lastChange = "2017-11-12 23:25:22 +0000";
layers = (
{
layerId = "B420756C-160B-4E3B-8A8F-018354DD19AA";
paths = (
{
closed = 1;
nodes = (
"335 383 OFFCURVE",
"379 428 OFFCURVE",
"398 515 CURVE SMOOTH",
"403 538 OFFCURVE",
"406 556 OFFCURVE",
"406 580 CURVE SMOOTH",
"406 634 OFFCURVE",
"376 658 OFFCURVE",
"321 658 CURVE SMOOTH",
"243 658 OFFCURVE",
"202 619 OFFCURVE",
"178 522 CURVE SMOOTH",
"173 501 OFFCURVE",
"171 482 OFFCURVE",
"171 466 CURVE SMOOTH",
"171 411 OFFCURVE",
"202 383 OFFCURVE",
"257 383 CURVE SMOOTH"
);
},
{
closed = 1;
nodes = (
"225 419 OFFCURVE",
"206 435 OFFCURVE",
"206 472 CURVE SMOOTH",
"206 486 OFFCURVE",
"208 502 OFFCURVE",
"213 522 CURVE SMOOTH",
"231 596 OFFCURVE",
"260 622 OFFCURVE",
"314 622 CURVE SMOOTH",
"353 622 OFFCURVE",
"370 609 OFFCURVE",
"370 573 CURVE SMOOTH",
"370 560 OFFCURVE",
"369 543 OFFCURVE",
"364 522 CURVE SMOOTH",
"346 447 OFFCURVE",
"318 419 OFFCURVE",
"264 419 CURVE SMOOTH"
);
}
);
width = 339;
},
{
layerId = "7271F2A9-EB19-499E-973E-7497F9144823";
paths = (
{
closed = 1;
nodes = (
"358 314 OFFCURVE",
"421 357 OFFCURVE",
"454 494 CURVE SMOOTH",
"461 523 OFFCURVE",
"465 557 OFFCURVE",
"457 591 CURVE SMOOTH",
"445 641 OFFCURVE",
"377 660 OFFCURVE",
"321 660 CURVE SMOOTH",
"213 660 OFFCURVE",
"147 617 OFFCURVE",
"117 495 CURVE SMOOTH",
"112 475 OFFCURVE",
"109 457 OFFCURVE",
"108 440 CURVE SMOOTH",
"103 362 OFFCURVE",
"153 314 OFFCURVE",
"239 314 CURVE SMOOTH"
);
},
{
closed = 1;
nodes = (
"233 410 OFFCURVE",
"224 422 OFFCURVE",
"224 449 CURVE SMOOTH",
"224 464 OFFCURVE",
"227 479 OFFCURVE",
"232 498 CURVE SMOOTH",
"245 550 OFFCURVE",
"264 568 OFFCURVE",
"301 568 CURVE SMOOTH",
"330 568 OFFCURVE",
"344 556 OFFCURVE",
"344 528 CURVE SMOOTH",
"344 515 OFFCURVE",
"342 504 OFFCURVE",
"339 492 CURVE SMOOTH",
"321 428 OFFCURVE",
"301 410 OFFCURVE",
"263 410 CURVE SMOOTH"
);
}
);
width = 343;
}
);
unicode = 00BA;
userData = {
"[LA] versione BOLD  com.typemytype.robofont.guides" = (
{
angle = 90;
isGlobal = 0;
magnetic = 5;
x = 262;
y = 0;
}
);
};
},
{
glyphname = guilsinglleft;
lastChange = "2017-11-12 23:25:22 +0000";
layers = (
{
layerId = "B420756C-160B-4E3B-8A8F-018354DD19AA";
paths = (
{
closed = 1;
nodes = (
"233 139 LINE",
"139 249 LINE",
"283 350 LINE",
"295 391 LINE {\nname = hr00;\n}",
"106 263 LINE",
"98 241 LINE",
"222 104 LINE"
);
}
);
width = 272;
},
{
layerId = "7271F2A9-EB19-499E-973E-7497F9144823";
paths = (
{
closed = 1;
nodes = (
"256 163 LINE",
"176 240 LINE",
"289 305 LINE",
"326 436 LINE {\nname = hr00;\n}",
"76 273 LINE",
"53 212 LINE",
"223 43 LINE"
);
}
);
width = 232;
}
);
leftKerningGroup = guilsinglleft;
rightKerningGroup = guilsinglleft;
unicode = 2039;
},
{
glyphname = asciitilde;
lastChange = "2017-11-12 23:25:22 +0000";
layers = (
{
layerId = "B420756C-160B-4E3B-8A8F-018354DD19AA";
paths = (
{
closed = 1;
nodes = (
"491 212 OFFCURVE",
"553 267 OFFCURVE",
"553 267 CURVE",
"542 298 LINE {\nname = hr00;\n}",
"542 298 OFFCURVE",
"476 246 OFFCURVE",
"440 246 CURVE SMOOTH",
"396 246 OFFCURVE",
"300 319 OFFCURVE",
"243 319 CURVE SMOOTH",
"193 319 OFFCURVE",
"131 265 OFFCURVE",
"131 265 CURVE",
"142 233 LINE",
"142 233 OFFCURVE",
"208 285 OFFCURVE",
"244 285 CURVE SMOOTH",
"288 285 OFFCURVE",
"384 212 OFFCURVE",
"441 212 CURVE SMOOTH"
);
}
);
width = 560;
},
{
layerId = "7271F2A9-EB19-499E-973E-7497F9144823";
paths = (
{
closed = 1;
nodes = (
"503 170 OFFCURVE",
"556 221 OFFCURVE",
"556 221 CURVE",
"548 328 LINE {\nname = hr00;\n}",
"548 328 OFFCURVE",
"485 290 OFFCURVE",
"446 290 CURVE SMOOTH",
"398 290 OFFCURVE",
"297 334 OFFCURVE",
"243 334 CURVE SMOOTH",
"183 334 OFFCURVE",
"120 282 OFFCURVE",
"120 282 CURVE",
"130 175 LINE",
"130 175 OFFCURVE",
"191 214 OFFCURVE",
"239 214 CURVE SMOOTH",
"277 214 OFFCURVE",
"389 170 OFFCURVE",
"443 170 CURVE SMOOTH"
);
}
);
width = 560;
}
);
unicode = 007E;
},
{
glyphname = emdash;
lastChange = "2017-11-12 23:25:22 +0000";
layers = (
{
layerId = "B420756C-160B-4E3B-8A8F-018354DD19AA";
paths = (
{
closed = 1;
nodes = (
"1132 252 LINE",
"1132 286 LINE",
"132 286 LINE {\nname = hr00;\n}",
"132 252 LINE"
);
}
);
width = 1140;
},
{
layerId = "7271F2A9-EB19-499E-973E-7497F9144823";
paths = (
{
closed = 1;
nodes = (
"1075 209 LINE",
"1075 323 LINE",
"75 323 LINE {\nname = hr00;\n}",
"75 209 LINE"
);
}
);
width = 1026;
}
);
leftKerningGroup = hyphen;
rightKerningGroup = hyphen;
unicode = 2014;
},
{
glyphname = nine;
lastChange = "2017-11-12 23:25:22 +0000";
layers = (
{
layerId = "B420756C-160B-4E3B-8A8F-018354DD19AA";
paths = (
{
closed = 1;
nodes = (
"391 -9 OFFCURVE",
"508 72 OFFCURVE",
"571 324 CURVE SMOOTH",
"626 545 OFFCURVE",
"585 670 OFFCURVE",
"433 670 CURVE SMOOTH",
"310 670 OFFCURVE",
"196 590 OFFCURVE",
"162 457 CURVE SMOOTH",
"129 321 OFFCURVE",
"192 256 OFFCURVE",
"318 256 CURVE SMOOTH",
"396 256 OFFCURVE",
"528 298 OFFCURVE",
"528 298 CURVE",
"478 106 OFFCURVE",
"382 25 OFFCURVE",
"251 25 CURVE SMOOTH",
"174 25 OFFCURVE",
"92 44 OFFCURVE",
"92 44 CURVE",
"78 12 LINE {\nname = hr00;\n}",
"78 12 OFFCURVE",
"168 -9 OFFCURVE",
"242 -9 CURVE SMOOTH"
);
},
{
closed = 1;
nodes = (
"222 290 OFFCURVE",
"172 343 OFFCURVE",
"200 457 CURVE SMOOTH",
"228 569 OFFCURVE",
"319 636 OFFCURVE",
"424 636 CURVE SMOOTH",
"554 636 OFFCURVE",
"582 520 OFFCURVE",
"538 333 CURVE",
"538 333 OFFCURVE",
"401 290 OFFCURVE",
"329 290 CURVE SMOOTH"
);
}
);
width = 560;
},
{
layerId = "7271F2A9-EB19-499E-973E-7497F9144823";
paths = (
{
closed = 1;
nodes = (
"426 -12 OFFCURVE",
"605 138 OFFCURVE",
"605 420 CURVE SMOOTH",
"605 573 OFFCURVE",
"548 672 OFFCURVE",
"418 672 CURVE SMOOTH",
"213 672 OFFCURVE",
"125 525 OFFCURVE",
"125 416 CURVE SMOOTH",
"125 290 OFFCURVE",
"183 239 OFFCURVE",
"296 239 CURVE SMOOTH",
"344 239 OFFCURVE",
"444 266 OFFCURVE",
"444 265 CURVE",
"421 173 OFFCURVE",
"344 114 OFFCURVE",
"258 114 CURVE SMOOTH",
"179 114 OFFCURVE",
"121 129 OFFCURVE",
"121 129 CURVE",
"79 10 LINE {\nname = hr00;\n}",
"79 10 OFFCURVE",
"153 -12 OFFCURVE",
"227 -12 CURVE SMOOTH"
);
},
{
closed = 1;
nodes = (
"283 361 OFFCURVE",
"259 374 OFFCURVE",
"259 428 CURVE SMOOTH",
"259 501 OFFCURVE",
"322 547 OFFCURVE",
"388 547 CURVE SMOOTH",
"470 547 OFFCURVE",
"491 472 OFFCURVE",
"472 376 CURVE",
"472 376 OFFCURVE",
"393 361 OFFCURVE",
"339 361 CURVE SMOOTH"
);
}
);
width = 560;
}
);
unicode = 0039;
},
{
glyphname = less;
lastChange = "2017-11-12 23:25:22 +0000";
layers = (
{
layerId = "B420756C-160B-4E3B-8A8F-018354DD19AA";
paths = (
{
closed = 1;
nodes = (
"525 56 LINE",
"134 251 LINE",
"525 446 LINE {\nname = hr00;\n}",
"525 485 LINE",
"101 269 LINE",
"101 233 LINE",
"525 15 LINE"
);
}
);
width = 560;
},
{
layerId = "7271F2A9-EB19-499E-973E-7497F9144823";
paths = (
{
closed = 1;
nodes = (
"520 146 LINE",
"259 254 LINE",
"520 353 LINE {\nname = hr00;\n}",
"520 489 LINE",
"114 306 LINE",
"114 196 LINE",
"520 10 LINE"
);
}
);
width = 560;
}
);
unicode = 003C;
},
{
glyphname = bracketleft;
lastChange = "2017-11-12 23:25:22 +0000";
layers = (
{
layerId = "B420756C-160B-4E3B-8A8F-018354DD19AA";
paths = (
{
closed = 1;
nodes = (
"223 -122 LINE",
"232 -89 LINE",
"93 -89 LINE",
"282 714 LINE",
"421 714 LINE",
"428 747 LINE {\nname = hr00;\n}",
"255 747 LINE",
"51 -122 LINE"
);
}
);
width = 296;
},
{
layerId = "7271F2A9-EB19-499E-973E-7497F9144823";
paths = (
{
closed = 1;
nodes = (
"211 -122 LINE",
"239 -8 LINE",
"151 -8 LINE",
"300 633 LINE",
"388 633 LINE",
"416 747 LINE {\nname = hr00;\n}",
"187 747 LINE",
"-15 -122 LINE"
);
}
);
width = 246;
}
);
unicode = 005B;
},
{
glyphname = backslash;
lastChange = "2017-11-12 23:25:22 +0000";
layers = (
{
layerId = "B420756C-160B-4E3B-8A8F-018354DD19AA";
paths = (
{
closed = 1;
nodes = (
"358 14 LINE",
"228 701 LINE",
"190 687 LINE",
"320 0 LINE {\nname = hr00;\n}"
);
}
);
width = 387;
},
{
layerId = "7271F2A9-EB19-499E-973E-7497F9144823";
paths = (
{
closed = 1;
nodes = (
"458 0 LINE",
"326 702 LINE",
"186 702 LINE",
"319 0 LINE {\nname = hr00;\n}"
);
}
);
width = 484;
}
);
unicode = 005C;
},
{
glyphname = bar;
lastChange = "2017-11-12 23:25:22 +0000";
layers = (
{
layerId = "B420756C-160B-4E3B-8A8F-018354DD19AA";
paths = (
{
closed = 1;
nodes = (
"223 -230 LINE",
"223 730 LINE",
"188 730 LINE",
"188 -230 LINE {\nname = hr00;\n}"
);
}
);
width = 296;
},
{
layerId = "7271F2A9-EB19-499E-973E-7497F9144823";
paths = (
{
closed = 1;
nodes = (
"291 -210 LINE",
"291 700 LINE",
"157 700 LINE",
"157 -210 LINE {\nname = hr00;\n}"
);
}
);
width = 335;
}
);
unicode = 007C;
},
{
glyphname = notequal;
lastChange = "2017-11-12 23:16:04 +0000";
layers = (
{
components = (
{
name = equal;
transform = "{1, 0, 0, 1, -1, 0}";
}
);
layerId = "B420756C-160B-4E3B-8A8F-018354DD19AA";
paths = (
{
closed = 1;
nodes = (
"453 496 LINE",
"421 509 LINE",
"201 4 LINE",
"233 -9 LINE"
);
}
);
width = 560;
},
{
components = (
{
name = equal;
}
);
layerId = "7271F2A9-EB19-499E-973E-7497F9144823";
paths = (
{
closed = 1;
nodes = (
"516 529 LINE",
"412 570 LINE",
"155 -15 LINE",
"259 -56 LINE"
);
}
);
width = 560;
}
);
unicode = 2260;
},
{
glyphname = AE;
lastChange = "2017-11-12 23:25:22 +0000";
layers = (
{
layerId = "B420756C-160B-4E3B-8A8F-018354DD19AA";
paths = (
{
closed = 1;
nodes = (
"67 0 LINE",
"181 215 LINE",
"421 215 LINE",
"372 0 LINE {\nname = hr00;\n}",
"749 0 LINE",
"755 33 LINE",
"414 33 LINE",
"487 343 LINE",
"774 343 LINE",
"780 376 LINE",
"493 376 LINE",
"564 669 LINE",
"907 667 LINE",
"913 700 LINE",
"402 700 LINE",
"32 0 LINE"
);
},
{
closed = 1;
nodes = (
"418 667 LINE",
"530 667 LINE",
"428 247 LINE",
"197 247 LINE"
);
}
);
width = 797;
},
{
layerId = "7271F2A9-EB19-499E-973E-7497F9144823";
paths = (
{
closed = 1;
nodes = (
"145 0 LINE",
"198 119 LINE",
"341 119 LINE",
"313 0 LINE {\nname = hr00;\n}",
"719 0 LINE",
"748 130 LINE",
"472 130 LINE",
"507 277 LINE",
"728 277 LINE",
"757 402 LINE",
"537 402 LINE",
"575 561 LINE",
"851 559 LINE",
"881 690 LINE",
"322 690 LINE",
"14 0 LINE"
);
},
{
closed = 1;
nodes = (
"393 560 LINE",
"445 560 LINE",
"372 247 LINE",
"256 247 LINE"
);
}
);
width = 754;
}
);
leftKerningGroup = A;
rightKerningGroup = E;
unicode = 00C6;
},
{
glyphname = ae;
lastChange = "2017-11-12 23:25:22 +0000";
layers = (
{
layerId = "B420756C-160B-4E3B-8A8F-018354DD19AA";
paths = (
{
closed = 1;
nodes = (
"233 -9 OFFCURVE",
"342 23 OFFCURVE",
"408 49 CURVE",
"426 13 OFFCURVE",
"464 -9 OFFCURVE",
"529 -9 CURVE SMOOTH",
"597 -9 OFFCURVE",
"705 0 OFFCURVE",
"705 0 CURVE",
"712 36 LINE",
"712 36 OFFCURVE",
"605 27 OFFCURVE",
"537 27 CURVE SMOOTH",
"459 27 OFFCURVE",
"433 65 OFFCURVE",
"433 132 CURVE SMOOTH",
"433 161 OFFCURVE",
"439 196 OFFCURVE",
"448 236 CURVE",
"778 234 LINE",
"787 269 LINE",
"797 307 OFFCURVE",
"801 340 OFFCURVE",
"801 373 CURVE SMOOTH",
"801 469 OFFCURVE",
"752 509 OFFCURVE",
"664 509 CURVE SMOOTH",
"588 509 OFFCURVE",
"522 480 OFFCURVE",
"477 414 CURVE",
"475 475 OFFCURVE",
"430 509 OFFCURVE",
"370 509 CURVE SMOOTH",
"295 509 OFFCURVE",
"189 499 OFFCURVE",
"189 499 CURVE",
"183 462 LINE",
"183 462 OFFCURVE",
"293 471 OFFCURVE",
"362 471 CURVE SMOOTH",
"475 471 OFFCURVE",
"439 357 OFFCURVE",
"421 301 CURVE",
"370 297 OFFCURVE",
"317 291 OFFCURVE",
"261 283 CURVE SMOOTH",
"162 269 OFFCURVE",
"91 237 OFFCURVE",
"73 138 CURVE SMOOTH",
"59 62 OFFCURVE",
"75 -9 OFFCURVE",
"164 -9 CURVE SMOOTH"
);
},
{
closed = 1;
nodes = (
"107 27 OFFCURVE",
"102 90 OFFCURVE",
"114 138 CURVE SMOOTH",
"131 204 OFFCURVE",
"173 233 OFFCURVE",
"239 244 CURVE SMOOTH",
"286 252 OFFCURVE",
"341 258 OFFCURVE",
"416 266 CURVE",
"402 202 OFFCURVE",
"386 142 OFFCURVE",
"399 81 CURVE",
"342 60 OFFCURVE",
"236 27 OFFCURVE",
"173 27 CURVE SMOOTH"
);
},
{
closed = 1;
nodes = (
"455 270 LINE",
"490 418 OFFCURVE",
"560 473 OFFCURVE",
"656 473 CURVE SMOOTH",
"728 473 OFFCURVE",
"765 443 OFFCURVE",
"765 368 CURVE SMOOTH",
"765 340 OFFCURVE",
"760 308 OFFCURVE",
"749 268 CURVE"
);
}
);
width = 772;
},
{
layerId = "7271F2A9-EB19-499E-973E-7497F9144823";
paths = (
{
closed = 1;
nodes = (
"216 -12 OFFCURVE",
"314 21 OFFCURVE",
"344 37 CURVE",
"370 3 OFFCURVE",
"420 -12 OFFCURVE",
"483 -12 CURVE SMOOTH",
"579 -12 OFFCURVE",
"670 16 OFFCURVE",
"670 16 CURVE",
"693 118 LINE",
"693 118 OFFCURVE",
"590 109 OFFCURVE",
"521 109 CURVE SMOOTH",
"477 109 OFFCURVE",
"458 127 OFFCURVE",
"453 153 CURVE SMOOTH",
"451 165 OFFCURVE",
"452 180 OFFCURVE",
"455 194 CURVE",
"724 192 LINE",
"747 277 LINE",
"756 309 OFFCURVE",
"762 346 OFFCURVE",
"760 378 CURVE SMOOTH",
"755 460 OFFCURVE",
"706 511 OFFCURVE",
"606 511 CURVE SMOOTH",
"555 511 OFFCURVE",
"510 497 OFFCURVE",
"473 470 CURVE",
"451 500 OFFCURVE",
"409 511 OFFCURVE",
"359 511 CURVE SMOOTH",
"290 511 OFFCURVE",
"163 489 OFFCURVE",
"163 489 CURVE",
"142 372 LINE",
"142 372 OFFCURVE",
"254 386 OFFCURVE",
"324 386 CURVE SMOOTH",
"362 386 OFFCURVE",
"358 337 OFFCURVE",
"349 312 CURVE",
"302 313 OFFCURVE",
"255 310 OFFCURVE",
"210 302 CURVE SMOOTH",
"139 289 OFFCURVE",
"79 249 OFFCURVE",
"57 153 CURVE",
"37 72 OFFCURVE",
"82 -12 OFFCURVE",
"168 -12 CURVE SMOOTH"
);
},
{
closed = 1;
nodes = (
"186 103 OFFCURVE",
"180 135 OFFCURVE",
"185 157 CURVE SMOOTH",
"192 187 OFFCURVE",
"218 206 OFFCURVE",
"247 208 CURVE SMOOTH",
"274 210 OFFCURVE",
"308 212 OFFCURVE",
"326 212 CURVE",
"317 179 OFFCURVE",
"312 146 OFFCURVE",
"316 116 CURVE",
"283 108 OFFCURVE",
"241 103 OFFCURVE",
"215 103 CURVE SMOOTH"
);
},
{
closed = 1;
nodes = (
"478 296 LINE",
"493 355 OFFCURVE",
"516 396 OFFCURVE",
"576 396 CURVE SMOOTH",
"611 396 OFFCURVE",
"628 381 OFFCURVE",
"633 358 CURVE SMOOTH",
"636 341 OFFCURVE",
"634 318 OFFCURVE",
"628 294 CURVE"
);
}
);
width = 714;
}
);
leftKerningGroup = a;
rightKerningGroup = e;
unicode = 00E6;
},
{
glyphname = florin;
lastChange = "2017-11-12 23:25:22 +0000";
layers = (
{
layerId = "B420756C-160B-4E3B-8A8F-018354DD19AA";
paths = (
{
closed = 1;
nodes = (
"164 -243 OFFCURVE",
"218 -197 OFFCURVE",
"248 -70 CURVE SMOOTH",
"348 349 LINE {\nname = hr00;\n}",
"520 349 LINE",
"529 385 LINE",
"356 385 LINE",
"369 437 LINE",
"404 578 OFFCURVE",
"430 635 OFFCURVE",
"503 635 CURVE SMOOTH",
"531 635 OFFCURVE",
"606 630 OFFCURVE",
"606 630 CURVE",
"615 665 LINE",
"615 665 OFFCURVE",
"553 672 OFFCURVE",
"511 672 CURVE SMOOTH",
"427 672 OFFCURVE",
"378 622 OFFCURVE",
"338 456 CURVE SMOOTH",
"321 385 LINE",
"207 385 LINE",
"200 349 LINE",
"313 349 LINE",
"214 -63 LINE",
"188 -170 OFFCURVE",
"152 -206 OFFCURVE",
"97 -206 CURVE SMOOTH",
"71 -206 OFFCURVE",
"41 -203 OFFCURVE",
"41 -203 CURVE",
"32 -238 LINE",
"32 -238 OFFCURVE",
"56 -243 OFFCURVE",
"88 -243 CURVE SMOOTH"
);
}
);
width = 560;
},
{
layerId = "7271F2A9-EB19-499E-973E-7497F9144823";
paths = (
{
closed = 1;
nodes = (
"216 -243 OFFCURVE",
"273 -206 OFFCURVE",
"307 -63 CURVE SMOOTH",
"412 375 LINE {\nname = hr00;\n}",
"545 375 LINE",
"574 499 LINE",
"441 499 LINE",
"443 512 LINE",
"449 548 OFFCURVE",
"467 585 OFFCURVE",
"507 585 CURVE SMOOTH",
"537 585 OFFCURVE",
"596 583 OFFCURVE",
"596 583 CURVE",
"623 695 LINE",
"590 702 OFFCURVE",
"537 708 OFFCURVE",
"501 708 CURVE SMOOTH",
"399 708 OFFCURVE",
"357 663 OFFCURVE",
"316 520 CURVE SMOOTH",
"310 499 LINE",
"221 499 LINE",
"193 375 LINE",
"281 375 LINE",
"177 -63 LINE",
"166 -111 OFFCURVE",
"145 -127 OFFCURVE",
"118 -127 CURVE SMOOTH",
"91 -127 OFFCURVE",
"41 -124 OFFCURVE",
"41 -124 CURVE",
"17 -230 LINE",
"17 -230 OFFCURVE",
"78 -243 OFFCURVE",
"110 -243 CURVE SMOOTH"
);
}
);
width = 560;
}
);
unicode = 0192;
},
{
glyphname = OE;
lastChange = "2017-11-12 23:25:22 +0000";
layers = (
{
layerId = "B420756C-160B-4E3B-8A8F-018354DD19AA";
paths = (
{
closed = 1;
nodes = (
"339 -9 OFFCURVE",
"407 -5 OFFCURVE",
"456 -1 CURVE",
"827 -1 LINE",
"837 38 LINE",
"499 38 LINE",
"571 343 LINE",
"852 341 LINE",
"859 379 LINE",
"578 379 LINE",
"647 662 LINE",
"985 662 LINE",
"992 700 LINE",
"620 700 LINE",
"600 702 OFFCURVE",
"485 709 OFFCURVE",
"474 709 CURVE SMOOTH",
"282 709 OFFCURVE",
"195 575 OFFCURVE",
"140 345 CURVE SMOOTH",
"124 277 OFFCURVE",
"115 220 OFFCURVE",
"115 171 CURVE SMOOTH",
"115 54 OFFCURVE",
"168 -9 OFFCURVE",
"305 -9 CURVE SMOOTH"
);
},
{
closed = 1;
nodes = (
"195 29 OFFCURVE",
"152 80 OFFCURVE",
"152 178 CURVE SMOOTH",
"152 225 OFFCURVE",
"161 280 OFFCURVE",
"177 347 CURVE SMOOTH",
"226 554 OFFCURVE",
"295 671 OFFCURVE",
"466 671 CURVE SMOOTH",
"515 671 OFFCURVE",
"585 667 OFFCURVE",
"611 664 CURVE",
"463 38 LINE",
"421 34 OFFCURVE",
"334 29 OFFCURVE",
"313 29 CURVE SMOOTH"
);
}
);
width = 876;
},
{
layerId = "7271F2A9-EB19-499E-973E-7497F9144823";
paths = (
{
closed = 1;
nodes = (
"313 -12 OFFCURVE",
"358 -6 OFFCURVE",
"395 0 CURVE",
"796 0 LINE",
"826 131 LINE",
"551 131 LINE",
"586 279 LINE",
"805 277 LINE",
"834 402 LINE",
"614 402 LINE",
"653 559 LINE",
"929 559 LINE",
"959 690 LINE",
"555 690 LINE",
"522 696 OFFCURVE",
"480 702 OFFCURVE",
"447 702 CURVE SMOOTH",
"285 702 OFFCURVE",
"176 595 OFFCURVE",
"117 345 CURVE SMOOTH",
"99 268 OFFCURVE",
"92 204 OFFCURVE",
"95 151 CURVE SMOOTH",
"102 45 OFFCURVE",
"159 -12 OFFCURVE",
"279 -12 CURVE SMOOTH"
);
},
{
closed = 1;
nodes = (
"260 120 OFFCURVE",
"232 148 OFFCURVE",
"232 215 CURVE SMOOTH",
"232 249 OFFCURVE",
"239 291 OFFCURVE",
"252 345 CURVE SMOOTH",
"292 514 OFFCURVE",
"345 570 OFFCURVE",
"433 570 CURVE SMOOTH",
"465 570 OFFCURVE",
"509 566 OFFCURVE",
"526 564 CURVE",
"421 126 LINE",
"388 123 OFFCURVE",
"349 120 OFFCURVE",
"328 120 CURVE SMOOTH"
);
}
);
width = 831;
}
);
leftKerningGroup = O;
rightKerningGroup = E;
unicode = 0152;
},
{
glyphname = oe;
lastChange = "2017-11-12 23:25:22 +0000";
layers = (
{
layerId = "B420756C-160B-4E3B-8A8F-018354DD19AA";
paths = (
{
closed = 1;
nodes = (
"349 -9 OFFCURVE",
"407 24 OFFCURVE",
"446 98 CURVE",
"454 31 OFFCURVE",
"492 -9 OFFCURVE",
"580 -9 CURVE SMOOTH",
"650 -9 OFFCURVE",
"758 0 OFFCURVE",
"758 0 CURVE",
"763 36 LINE",
"763 36 OFFCURVE",
"655 27 OFFCURVE",
"589 27 CURVE SMOOTH {\nname = hr00;\n}",
"512 27 OFFCURVE",
"481 62 OFFCURVE",
"481 132 CURVE SMOOTH",
"481 161 OFFCURVE",
"488 196 OFFCURVE",
"498 236 CURVE",
"832 234 LINE",
"841 268 LINE",
"851 308 OFFCURVE",
"856 342 OFFCURVE",
"856 372 CURVE SMOOTH",
"856 468 OFFCURVE",
"805 509 OFFCURVE",
"715 509 CURVE SMOOTH",
"629 509 OFFCURVE",
"558 475 OFFCURVE",
"514 389 CURVE",
"508 472 OFFCURVE",
"460 509 OFFCURVE",
"370 509 CURVE SMOOTH",
"224 509 OFFCURVE",
"158 440 OFFCURVE",
"116 261 CURVE SMOOTH",
"103 206 OFFCURVE",
"95 159 OFFCURVE",
"95 113 CURVE SMOOTH",
"95 25 OFFCURVE",
"143 -9 OFFCURVE",
"249 -9 CURVE SMOOTH"
);
},
{
closed = 1;
nodes = (
"165 27 OFFCURVE",
"131 55 OFFCURVE",
"131 122 CURVE SMOOTH",
"131 158 OFFCURVE",
"140 203 OFFCURVE",
"154 261 CURVE SMOOTH",
"191 420 OFFCURVE",
"247 473 OFFCURVE",
"363 473 CURVE SMOOTH",
"425 473 OFFCURVE",
"461 453 OFFCURVE",
"474 404 CURVE SMOOTH",
"486 355 OFFCURVE",
"475 304 OFFCURVE",
"464 259 CURVE SMOOTH",
"428 115 OFFCURVE",
"396 27 OFFCURVE",
"256 27 CURVE SMOOTH"
);
},
{
closed = 1;
nodes = (
"506 270 LINE",
"541 418 OFFCURVE",
"613 473 OFFCURVE",
"708 473 CURVE SMOOTH",
"780 473 OFFCURVE",
"818 444 OFFCURVE",
"818 369 CURVE SMOOTH",
"818 341 OFFCURVE",
"813 308 OFFCURVE",
"803 268 CURVE"
);
}
);
width = 826;
},
{
layerId = "7271F2A9-EB19-499E-973E-7497F9144823";
paths = (
{
closed = 1;
nodes = (
"305 -12 OFFCURVE",
"353 6 OFFCURVE",
"395 37 CURVE",
"420 4 OFFCURVE",
"467 -12 OFFCURVE",
"530 -12 CURVE SMOOTH",
"627 -12 OFFCURVE",
"718 16 OFFCURVE",
"718 16 CURVE",
"741 118 LINE",
"741 118 OFFCURVE",
"637 109 OFFCURVE",
"568 109 CURVE SMOOTH {\nname = hr00;\n}",
"525 109 OFFCURVE",
"503 124 OFFCURVE",
"497 149 CURVE SMOOTH",
"494 162 OFFCURVE",
"495 177 OFFCURVE",
"499 194 CURVE",
"767 192 LINE",
"796 284 LINE",
"809 324 OFFCURVE",
"809 361 OFFCURVE",
"806 390 CURVE SMOOTH",
"798 465 OFFCURVE",
"747 511 OFFCURVE",
"650 511 CURVE SMOOTH",
"588 511 OFFCURVE",
"540 493 OFFCURVE",
"498 457 CURVE",
"471 491 OFFCURVE",
"430 511 OFFCURVE",
"362 511 CURVE SMOOTH",
"185 511 OFFCURVE",
"123 389 OFFCURVE",
"88 250 CURVE SMOOTH",
"76 201 OFFCURVE",
"72 152 OFFCURVE",
"80 105 CURVE SMOOTH",
"91 35 OFFCURVE",
"137 -12 OFFCURVE",
"239 -12 CURVE SMOOTH"
);
},
{
closed = 1;
nodes = (
"230 107 OFFCURVE",
"214 122 OFFCURVE",
"208 147 CURVE SMOOTH",
"202 173 OFFCURVE",
"207 209 OFFCURVE",
"217 250 CURVE SMOOTH",
"236 330 OFFCURVE",
"264 392 OFFCURVE",
"334 392 CURVE SMOOTH",
"381 392 OFFCURVE",
"397 370 OFFCURVE",
"397 329 CURVE SMOOTH",
"397 303 OFFCURVE",
"393 279 OFFCURVE",
"387 257 CURVE SMOOTH",
"370 193 OFFCURVE",
"348 107 OFFCURVE",
"266 107 CURVE SMOOTH"
);
},
{
closed = 1;
nodes = (
"522 296 LINE",
"536 356 OFFCURVE",
"564 389 OFFCURVE",
"626 389 CURVE SMOOTH",
"662 389 OFFCURVE",
"677 380 OFFCURVE",
"681 358 CURVE SMOOTH",
"684 343 OFFCURVE",
"681 321 OFFCURVE",
"674 294 CURVE"
);
}
);
width = 759;
}
);
leftKerningGroup = o;
rightKerningGroup = e;
unicode = 0153;
},
{
glyphname = daggerdbl;
lastChange = "2017-11-12 23:25:22 +0000";
layers = (
{
layerId = "B420756C-160B-4E3B-8A8F-018354DD19AA";
paths = (
{
closed = 1;
nodes = (
"240 -78 LINE",
"287 124 LINE",
"459 122 LINE",
"468 158 LINE",
"296 158 LINE",
"367 462 LINE",
"540 460 LINE",
"550 498 LINE",
"377 498 LINE",
"423 698 LINE",
"390 698 LINE",
"342 496 LINE",
"171 498 LINE",
"162 460 LINE",
"333 460 LINE",
"262 156 LINE",
"89 158 LINE",
"81 122 LINE",
"254 122 LINE",
"207 -78 LINE {\nname = hr00;\n}"
);
}
);
width = 487;
},
{
layerId = "7271F2A9-EB19-499E-973E-7497F9144823";
paths = (
{
closed = 1;
nodes = (
"281 -70 LINE",
"321 100 LINE",
"459 100 LINE",
"491 235 LINE",
"353 235 LINE",
"384 362 LINE",
"521 362 LINE",
"550 497 LINE",
"415 497 LINE",
"455 668 LINE",
"330 668 LINE",
"290 496 LINE",
"152 497 LINE",
"122 362 LINE",
"258 362 LINE",
"228 235 LINE",
"90 235 LINE",
"59 100 LINE",
"196 100 LINE",
"157 -70 LINE {\nname = hr00;\n}"
);
}
);
width = 473;
}
);
unicode = 2021;
},
{
glyphname = quotesingle;
lastChange = "2017-11-12 23:25:22 +0000";
layers = (
{
layerId = "B420756C-160B-4E3B-8A8F-018354DD19AA";
paths = (
{
closed = 1;
nodes = (
"217 486 LINE",
"267 698 LINE",
"232 698 LINE",
"184 486 LINE {\nname = hr00;\n}"
);
}
);
width = 178;
},
{
layerId = "7271F2A9-EB19-499E-973E-7497F9144823";
paths = (
{
closed = 1;
nodes = (
"224 437 LINE",
"292 688 LINE",
"167 688 LINE",
"109 437 LINE {\nname = hr00;\n}"
);
}
);
width = 138;
}
);
leftKerningGroup = quotesingle;
rightKerningGroup = quotesingle;
unicode = 0027;
},
{
glyphname = parenleft;
lastChange = "2017-11-12 23:25:22 +0000";
layers = (
{
layerId = "B420756C-160B-4E3B-8A8F-018354DD19AA";
paths = (
{
closed = 1;
nodes = (
"150 -124 LINE",
"150 -124 OFFCURVE",
"136 -41 OFFCURVE",
"136 101 CURVE SMOOTH",
"136 413 OFFCURVE",
"356 748 OFFCURVE",
"356 748 CURVE {\nname = hr00;\n}",
"321 748 LINE",
"321 748 OFFCURVE",
"101 431 OFFCURVE",
"101 101 CURVE SMOOTH",
"101 -45 OFFCURVE",
"117 -124 OFFCURVE",
"117 -124 CURVE"
);
}
);
width = 223;
},
{
layerId = "7271F2A9-EB19-499E-973E-7497F9144823";
paths = (
{
closed = 1;
nodes = (
"208 -123 LINE",
"208 -123 OFFCURVE",
"192 -8 OFFCURVE",
"192 132 CURVE SMOOTH",
"192 419 OFFCURVE",
"412 748 OFFCURVE",
"412 748 CURVE {\nname = hr00;\n}",
"287 748 LINE",
"287 748 OFFCURVE",
"51 449 OFFCURVE",
"51 132 CURVE SMOOTH",
"51 -26 OFFCURVE",
"80 -123 OFFCURVE",
"80 -123 CURVE"
);
}
);
width = 234;
}
);
unicode = 0028;
},
{
glyphname = slash;
lastChange = "2017-11-12 23:25:22 +0000";
layers = (
{
layerId = "B420756C-160B-4E3B-8A8F-018354DD19AA";
paths = (
{
closed = 1;
nodes = (
"503 686 LINE",
"470 700 LINE",
"45 12 LINE",
"78 -1 LINE {\nname = hr00;\n}"
);
}
);
width = 386;
},
{
layerId = "7271F2A9-EB19-499E-973E-7497F9144823";
paths = (
{
closed = 1;
nodes = (
"594 674 LINE",
"468 718 LINE",
"37 20 LINE",
"163 -24 LINE {\nname = hr00;\n}"
);
}
);
width = 468;
}
);
unicode = 002F;
},
{
glyphname = equal;
lastChange = "2017-11-12 23:25:22 +0000";
layers = (
{
layerId = "B420756C-160B-4E3B-8A8F-018354DD19AA";
paths = (
{
closed = 1;
nodes = (
"550 318 LINE",
"550 352 LINE",
"126 352 LINE",
"126 318 LINE {\nname = hr00;\n}"
);
},
{
closed = 1;
nodes = (
"550 149 LINE",
"550 183 LINE",
"126 183 LINE",
"126 149 LINE"
);
}
);
width = 560;
},
{
layerId = "7271F2A9-EB19-499E-973E-7497F9144823";
paths = (
{
closed = 1;
nodes = (
"560 295 LINE",
"560 416 LINE",
"116 416 LINE",
"116 295 LINE {\nname = hr00;\n}"
);
},
{
closed = 1;
nodes = (
"560 87 LINE",
"560 208 LINE",
"116 208 LINE",
"116 87 LINE"
);
}
);
width = 560;
}
);
unicode = 003D;
},
{
glyphname = question;
lastChange = "2017-11-12 23:25:22 +0000";
layers = (
{
layerId = "B420756C-160B-4E3B-8A8F-018354DD19AA";
paths = (
{
closed = 1;
nodes = (
"223 188 LINE",
"231 227 LINE",
"238 263 OFFCURVE",
"263.962 301.047 OFFCURVE",
"319 346 CURVE SMOOTH",
"454.962 457.047 OFFCURVE",
"492 492 OFFCURVE",
"492 595 CURVE SMOOTH {\nname = hr00;\n}",
"492 678 OFFCURVE",
"425 709 OFFCURVE",
"340 709 CURVE SMOOTH",
"276 709 OFFCURVE",
"189 685 OFFCURVE",
"189 685 CURVE",
"189 653 LINE",
"189 653 OFFCURVE",
"280 675 OFFCURVE",
"334 675 CURVE SMOOTH",
"407 675 OFFCURVE",
"454 652 OFFCURVE",
"454 595 CURVE SMOOTH",
"454 507 OFFCURVE",
"419.141 470.826 OFFCURVE",
"301 375 CURVE SMOOTH",
"239.141 324.826 OFFCURVE",
"204.92 282.016 OFFCURVE",
"195 231 CURVE SMOOTH",
"190.92 210.015 OFFCURVE",
"189 188 OFFCURVE",
"189 188 CURVE"
);
},
{
closed = 1;
nodes = (
"191 1 LINE {\nname = hr01;\n}",
"209 83 LINE",
"172 83 LINE",
"155 1 LINE"
);
}
);
width = 403;
},
{
layerId = "7271F2A9-EB19-499E-973E-7497F9144823";
paths = (
{
closed = 1;
nodes = (
"300 208 LINE",
"309 248 LINE",
"314 270 OFFCURVE",
"334.955 296.065 OFFCURVE",
"371 321 CURVE SMOOTH",
"480.955 397.065 OFFCURVE",
"522 441 OFFCURVE",
"522 536 CURVE SMOOTH {\nname = hr00;\n}",
"522 648 OFFCURVE",
"451 692 OFFCURVE",
"338 692 CURVE SMOOTH",
"268 692 OFFCURVE",
"178 665 OFFCURVE",
"178 665 CURVE",
"164 560 LINE",
"164 560 OFFCURVE",
"237 572 OFFCURVE",
"307 572 CURVE SMOOTH",
"352 572 OFFCURVE",
"380 567 OFFCURVE",
"380 522 CURVE SMOOTH",
"380 485 OFFCURVE",
"346.852 458.21 OFFCURVE",
"276 408 CURVE SMOOTH",
"219.851 368.209 OFFCURVE",
"188.335 331.939 OFFCURVE",
"182 298 CURVE SMOOTH",
"174.335 256.936 OFFCURVE",
"174 208 OFFCURVE",
"174 208 CURVE"
);
},
{
closed = 1;
nodes = (
"256 0 LINE {\nname = hr01;\n}",
"294 168 LINE",
"158 168 LINE",
"120 0 LINE"
);
}
);
width = 431;
}
);
unicode = 003F;
userData = {
"NM 20/05/2011\\012Wt0 SL0: sist. stems, altezza e overshhoting, reg. manipolatori\\012Wt1 Sl0: sist.stems, altezza e overshooting, reg.manipolatori.\\012Wt0 SI1: sist.stems, altezza e overshooting, reg.manipolatori, correzzione ottica punto.\\012Wt1 Sl1:sist.stems, altez  com.typemytype.robofont.guides" = (
{
angle = 0;
isGlobal = 0;
magnetic = 5;
x = 0;
y = 665;
},
{
angle = 90;
isGlobal = 0;
magnetic = 5;
x = 134;
y = 0;
},
{
angle = 90;
isGlobal = 0;
magnetic = 5;
x = 167;
y = 0;
},
{
angle = 90;
isGlobal = 0;
magnetic = 5;
x = 179;
y = 0;
},
{
angle = 90;
isGlobal = 0;
magnetic = 5;
x = 211;
y = 0;
}
);
};
},
{
glyphname = underscore;
lastChange = "2017-11-12 23:25:22 +0000";
layers = (
{
layerId = "B420756C-160B-4E3B-8A8F-018354DD19AA";
paths = (
{
closed = 1;
nodes = (
"518 -117 LINE",
"528 -79 LINE",
"79 -79 LINE {\nname = hr00;\n}",
"71 -117 LINE"
);
}
);
width = 643;
},
{
layerId = "7271F2A9-EB19-499E-973E-7497F9144823";
paths = (
{
closed = 1;
nodes = (
"416 -205 LINE",
"444 -80 LINE",
"-4 -80 LINE {\nname = hr00;\n}",
"-32 -205 LINE"
);
}
);
width = 478;
}
);
unicode = 005F;
},
{
glyphname = braceleft;
lastChange = "2017-11-12 23:25:22 +0000";
layers = (
{
layerId = "B420756C-160B-4E3B-8A8F-018354DD19AA";
paths = (
{
closed = 1;
nodes = (
"266 -87 LINE",
"191 -87 OFFCURVE",
"157 -60 OFFCURVE",
"157 -4 CURVE SMOOTH",
"157 60 OFFCURVE",
"207 183 OFFCURVE",
"207 224 CURVE SMOOTH {\nname = hr00;\n}",
"207 276 OFFCURVE",
"177 299 OFFCURVE",
"143 311 CURVE",
"215 334 OFFCURVE",
"245.936 365.014 OFFCURVE",
"265 453 CURVE SMOOTH",
"271.936 485.014 OFFCURVE",
"279 534 OFFCURVE",
"286 568 CURVE SMOOTH",
"305 660 OFFCURVE",
"347 708 OFFCURVE",
"456 713 CURVE",
"462 749 LINE",
"348 744 OFFCURVE",
"293.941 697.019 OFFCURVE",
"261 596 CURVE SMOOTH",
"248.941 559.019 OFFCURVE",
"242 505 OFFCURVE",
"233 461 CURVE SMOOTH",
"218 385 OFFCURVE",
"196 352 OFFCURVE",
"104 327 CURVE",
"96 292 LINE",
"146 279 OFFCURVE",
"172 261 OFFCURVE",
"172 213 CURVE SMOOTH",
"172 175 OFFCURVE",
"122 53 OFFCURVE",
"122 -14 CURVE SMOOTH",
"122 -84 OFFCURVE",
"162 -119 OFFCURVE",
"256 -123 CURVE"
);
}
);
width = 329;
},
{
layerId = "7271F2A9-EB19-499E-973E-7497F9144823";
paths = (
{
closed = 1;
nodes = (
"278 -18 LINE",
"240 -18 OFFCURVE",
"220 0 OFFCURVE",
"220 30 CURVE SMOOTH",
"220 66 OFFCURVE",
"265 181 OFFCURVE",
"265 219 CURVE SMOOTH {\nname = hr00;\n}",
"265 267 OFFCURVE",
"245 290 OFFCURVE",
"204 313 CURVE",
"272 337 OFFCURVE",
"304 368 OFFCURVE",
"323 446 CURVE",
"323 446 OFFCURVE",
"347 572 OFFCURVE",
"347 572 CURVE",
"357 611 OFFCURVE",
"378 639 OFFCURVE",
"436 644 CURVE",
"458 759 LINE",
"325 754 OFFCURVE",
"259 717 OFFCURVE",
"225 603 CURVE",
"225 603 OFFCURVE",
"203 481 OFFCURVE",
"196 457 CURVE SMOOTH",
"185 415 OFFCURVE",
"175 393 OFFCURVE",
"87 370 CURVE",
"63 275 LINE",
"114 248 OFFCURVE",
"130 220 OFFCURVE",
"130 190 CURVE SMOOTH",
"130 150 OFFCURVE",
"88 33 OFFCURVE",
"88 -8 CURVE SMOOTH",
"88 -88 OFFCURVE",
"151 -133 OFFCURVE",
"247 -133 CURVE"
);
}
);
width = 288;
}
);
unicode = 007B;
},
{
glyphname = cent;
lastChange = "2017-11-12 23:25:22 +0000";
layers = (
{
layerId = "B420756C-160B-4E3B-8A8F-018354DD19AA";
paths = (
{
closed = 1;
nodes = (
"295 -84 LINE",
"325 43 LINE",
"366 42 OFFCURVE",
"437 50 OFFCURVE",
"437 50 CURVE",
"446 84 LINE",
"446 84 OFFCURVE",
"357 76 OFFCURVE",
"312 76 CURVE SMOOTH",
"184 76 OFFCURVE",
"190 155 OFFCURVE",
"213 247 CURVE SMOOTH",
"239 353 OFFCURVE",
"300 425 OFFCURVE",
"394 425 CURVE SMOOTH",
"430 425 OFFCURVE",
"519 415 OFFCURVE",
"519 415 CURVE",
"529 450 LINE",
"529 450 OFFCURVE",
"465 458 OFFCURVE",
"422 460 CURVE",
"453 590 LINE",
"420 590 LINE",
"389 459 LINE",
"287 457 OFFCURVE",
"211 386 OFFCURVE",
"175 247 CURVE SMOOTH",
"148 143 OFFCURVE",
"153 41 OFFCURVE",
"291 41 CURVE",
"261 -84 LINE {\nname = hr00;\n}"
);
}
);
width = 560;
},
{
layerId = "7271F2A9-EB19-499E-973E-7497F9144823";
paths = (
{
closed = 1;
nodes = (
"357 -74 LINE",
"382 36 LINE",
"420 39 OFFCURVE",
"457 45 OFFCURVE",
"457 45 CURVE",
"478 157 LINE",
"478 157 OFFCURVE",
"405 153 OFFCURVE",
"370 153 CURVE SMOOTH",
"282 153 OFFCURVE",
"267 183 OFFCURVE",
"283 250 CURVE SMOOTH",
"301 320 OFFCURVE",
"333 346 OFFCURVE",
"413 346 CURVE SMOOTH",
"449 346 OFFCURVE",
"520 343 OFFCURVE",
"520 343 CURVE",
"554 455 LINE",
"554 455 OFFCURVE",
"521 461 OFFCURVE",
"484 465 CURVE",
"510 570 LINE",
"402 570 LINE",
"379 468 LINE",
"273 461 OFFCURVE",
"190 391 OFFCURVE",
"155 250 CURVE SMOOTH",
"131 149 OFFCURVE",
"151 37 OFFCURVE",
"274 29 CURVE",
"251 -74 LINE {\nname = hr00;\n}"
);
}
);
width = 560;
}
);
unicode = 00A2;
},
{
glyphname = quoteleft;
lastChange = "2017-11-12 23:25:22 +0000";
layers = (
{
layerId = "B420756C-160B-4E3B-8A8F-018354DD19AA";
paths = (
{
closed = 1;
nodes = (
"209 498 LINE",
"291 700 LINE {\nname = hr01;\n}",
"264 700 LINE",
"171 498 LINE"
);
}
);
width = 185;
},
{
layerId = "7271F2A9-EB19-499E-973E-7497F9144823";
paths = (
{
closed = 1;
nodes = (
"228 424 LINE",
"333 679 LINE {\nname = hr01;\n}",
"233 679 LINE",
"96 424 LINE"
);
}
);
width = 174;
}
);
leftKerningGroup = quoteleft;
rightKerningGroup = quoteleft;
unicode = 2018;
},
{
glyphname = divide;
lastChange = "2017-11-12 23:25:22 +0000";
layers = (
{
layerId = "B420756C-160B-4E3B-8A8F-018354DD19AA";
paths = (
{
closed = 1;
nodes = (
"560 234 LINE",
"560 268 LINE",
"116 268 LINE",
"116 234 LINE {\nname = hr00;\n}"
);
},
{
closed = 1;
nodes = (
"357 39 LINE",
"357 119 LINE",
"319 119 LINE",
"319 39 LINE"
);
},
{
closed = 1;
nodes = (
"357 383 LINE",
"357 463 LINE",
"319 463 LINE",
"319 383 LINE"
);
}
);
width = 560;
},
{
layerId = "7271F2A9-EB19-499E-973E-7497F9144823";
paths = (
{
closed = 1;
nodes = (
"568 191 LINE",
"568 311 LINE",
"108 311 LINE",
"108 191 LINE"
);
},
{
closed = 1;
nodes = (
"403 17 LINE",
"403 149 LINE",
"271 149 LINE",
"271 17 LINE"
);
},
{
closed = 1;
nodes = (
"403 352 LINE",
"403 484 LINE",
"271 484 LINE",
"271 352 LINE {\nname = hr00;\n}"
);
}
);
width = 560;
}
);
unicode = 00F7;
},
{
glyphname = Euro;
lastChange = "2017-11-12 23:16:04 +0000";
layers = (
{
components = (
{
name = C;
transform = "{0.945, 0, 0, 0.945, 39, 0}";
}
);
layerId = "B420756C-160B-4E3B-8A8F-018354DD19AA";
paths = (
{
closed = 1;
nodes = (
"534 389 LINE {\nname = hr00;\n}",
"541 421 LINE",
"151 421 LINE",
"143 389 LINE"
);
},
{
closed = 1;
nodes = (
"497 227 LINE",
"504 259 LINE",
"114 259 LINE",
"106 227 LINE"
);
}
);
width = 560;
},
{
components = (
{
name = C;
transform = "{0.971, 0, 0, 0.971, 53, 0}";
}
);
layerId = "7271F2A9-EB19-499E-973E-7497F9144823";
paths = (
{
closed = 1;
nodes = (
"531 357 LINE {\nname = hr00;\n}",
"555 462 LINE",
"155 462 LINE",
"130 357 LINE"
);
},
{
closed = 1;
nodes = (
"492 183 LINE",
"516 288 LINE",
"115 288 LINE",
"91 183 LINE"
);
}
);
width = 560;
}
);
unicode = 20AC;
userData = {
com.typemytype.robofont.guides = (
{
angle = 90;
isGlobal = 0;
magnetic = 5;
x = -458;
y = 0;
}
);
};
},
{
glyphname = Oslash;
lastChange = "2017-11-12 23:25:22 +0000";
layers = (
{
components = (
{
name = O;
}
);
layerId = "B420756C-160B-4E3B-8A8F-018354DD19AA";
paths = (
{
closed = 1;
nodes = (
"409 332 LINE",
"712 777 LINE",
"682 791 LINE",
"380 348 LINE",
"79 -94 LINE",
"106 -110 LINE {\nname = hr00;\n}"
);
}
);
width = 636;
},
{
components = (
{
name = O;
}
);
layerId = "7271F2A9-EB19-499E-973E-7497F9144823";
paths = (
{
closed = 1;
nodes = (
"423 325 LINE",
"728 774 LINE",
"654 805 LINE",
"353 363 LINE",
"53 -81 LINE",
"119 -121 LINE {\nname = hr00;\n}"
);
}
);
width = 615;
}
);
leftKerningGroup = O;
rightKerningGroup = O;
unicode = 00D8;
},
{
glyphname = asterisk;
lastChange = "2017-11-12 23:25:22 +0000";
layers = (
{
layerId = "B420756C-160B-4E3B-8A8F-018354DD19AA";
paths = (
{
closed = 1;
nodes = (
"385 390 LINE",
"343 519 LINE",
"480 519 LINE {\nname = hr00;\n}",
"480 553 LINE",
"345 553 LINE",
"387 683 LINE",
"355 693 LINE",
"313 564 LINE",
"203 645 LINE",
"183 618 LINE",
"292 538 LINE",
"182 458 LINE",
"201 431 LINE",
"311 510 LINE",
"353 380 LINE"
);
}
);
width = 407;
},
{
layerId = "7271F2A9-EB19-499E-973E-7497F9144823";
paths = (
{
closed = 1;
nodes = (
"426 379 LINE",
"388 499 LINE",
"511 499 LINE {\nname = hr00;\n}",
"511 573 LINE",
"388 573 LINE",
"426 695 LINE",
"351 720 LINE",
"312 599 LINE",
"211 672 LINE",
"165 609 LINE",
"267 536 LINE",
"162 458 LINE",
"209 399 LINE",
"312 478 LINE",
"353 357 LINE"
);
}
);
width = 423;
}
);
unicode = 002A;
},
{
glyphname = sterling;
lastChange = "2017-11-12 23:25:22 +0000";
layers = (
{
layerId = "B420756C-160B-4E3B-8A8F-018354DD19AA";
paths = (
{
closed = 1;
nodes = (
"393 0 LINE",
"474 18 LINE",
"474 49 LINE",
"393 33 LINE",
"224 33 LINE",
"300 373 LINE",
"519 373 LINE",
"527 406 LINE",
"308 406 LINE",
"322 464 LINE SMOOTH",
"348 571 OFFCURVE",
"365 646 OFFCURVE",
"460 646 CURVE SMOOTH",
"515 646 OFFCURVE",
"589 638 OFFCURVE",
"589 638 CURVE",
"596 668 LINE",
"596 668 OFFCURVE",
"523 679 OFFCURVE",
"468 679 CURVE SMOOTH",
"343 679 OFFCURVE",
"315 593 OFFCURVE",
"286 468 CURVE",
"272 406 LINE",
"200 406 LINE",
"192 373 LINE",
"264 373 LINE",
"187 33 LINE",
"91 33 LINE",
"83 0 LINE"
);
}
);
width = 560;
},
{
layerId = "7271F2A9-EB19-499E-973E-7497F9144823";
paths = (
{
closed = 1;
nodes = (
"415 0 LINE",
"489 17 LINE",
"492 132 LINE",
"424 114 LINE",
"332 114 LINE",
"382 329 LINE",
"538 329 LINE",
"565 443 LINE",
"408 443 LINE",
"413 463 LINE SMOOTH",
"428 523 OFFCURVE",
"439 561 OFFCURVE",
"490 561 CURVE SMOOTH",
"530 561 OFFCURVE",
"593 553 OFFCURVE",
"593 553 CURVE",
"624 654 LINE",
"624 654 OFFCURVE",
"531 679 OFFCURVE",
"481 679 CURVE SMOOTH",
"364 679 OFFCURVE",
"316 623 OFFCURVE",
"280 479 CURVE",
"271 443 LINE",
"192 443 LINE",
"165 329 LINE",
"245 329 LINE",
"196 114 LINE",
"101 114 LINE",
"75 0 LINE"
);
}
);
width = 560;
}
);
unicode = 00A3;
},
{
glyphname = paragraph;
lastChange = "2017-11-12 23:25:22 +0000";
layers = (
{
layerId = "B420756C-160B-4E3B-8A8F-018354DD19AA";
paths = (
{
closed = 1;
nodes = (
"244 0 LINE",
"403 664 LINE",
"546 664 LINE",
"388 0 LINE {\nname = hr00;\n}",
"422 0 LINE",
"580 664 LINE",
"672 664 LINE",
"679 700 LINE",
"370 700 LINE",
"241 700 OFFCURVE",
"149 581 OFFCURVE",
"149 481 CURVE SMOOTH",
"149 413 OFFCURVE",
"192 350 OFFCURVE",
"295 349 CURVE",
"210 0 LINE"
);
}
);
width = 551;
},
{
layerId = "7271F2A9-EB19-499E-973E-7497F9144823";
paths = (
{
closed = 1;
nodes = (
"314 0 LINE",
"456 594 LINE",
"513 594 LINE",
"372 0 LINE {\nname = hr00;\n}",
"479 0 LINE",
"621 594 LINE",
"655 594 LINE",
"680 700 LINE",
"367 700 LINE",
"230 700 OFFCURVE",
"140 579 OFFCURVE",
"140 460 CURVE SMOOTH",
"140 380 OFFCURVE",
"173 308 OFFCURVE",
"279 306 CURVE",
"206 0 LINE"
);
}
);
width = 565;
}
);
unicode = 00B6;
},
{
glyphname = percent;
lastChange = "2017-11-12 23:25:22 +0000";
layers = (
{
layerId = "B420756C-160B-4E3B-8A8F-018354DD19AA";
paths = (
{
closed = 1;
nodes = (
"535 696 LINE",
"503 701 LINE",
"186 6 LINE",
"218 1 LINE"
);
},
{
closed = 1;
nodes = (
"475 0 OFFCURVE",
"528 42 OFFCURVE",
"552 138 CURVE SMOOTH",
"576 234 OFFCURVE",
"543 272 OFFCURVE",
"482 272 CURVE SMOOTH",
"420 272 OFFCURVE",
"370 234 OFFCURVE",
"346 139 CURVE SMOOTH",
"322 42 OFFCURVE",
"354 0 OFFCURVE",
"415 0 CURVE SMOOTH"
);
},
{
closed = 1;
nodes = (
"373 32 OFFCURVE",
"364 70 OFFCURVE",
"381 139 CURVE SMOOTH",
"398 206 OFFCURVE",
"425 240 OFFCURVE",
"474 240 CURVE SMOOTH",
"524 240 OFFCURVE",
"534 206 OFFCURVE",
"517 138 CURVE SMOOTH",
"500 70 OFFCURVE",
"472 32 OFFCURVE",
"422 32 CURVE SMOOTH"
);
},
{
closed = 1;
nodes = (
"301 430 OFFCURVE",
"354 472 OFFCURVE",
"378 568 CURVE SMOOTH",
"402 664 OFFCURVE",
"370 702 OFFCURVE",
"309 702 CURVE SMOOTH",
"247 702 OFFCURVE",
"196 664 OFFCURVE",
"172 569 CURVE SMOOTH",
"148 472 OFFCURVE",
"180 430 OFFCURVE",
"241 430 CURVE SMOOTH"
);
},
{
closed = 1;
nodes = (
"200 462 OFFCURVE",
"190 501 OFFCURVE",
"207 569 CURVE SMOOTH",
"224 636 OFFCURVE",
"252 670 OFFCURVE",
"301 670 CURVE SMOOTH {\nname = hr00;\n}",
"351 670 OFFCURVE",
"360 636 OFFCURVE",
"343 568 CURVE SMOOTH",
"326 500 OFFCURVE",
"299 462 OFFCURVE",
"249 462 CURVE SMOOTH"
);
}
);
width = 560;
},
{
layerId = "7271F2A9-EB19-499E-973E-7497F9144823";
paths = (
{
closed = 1;
nodes = (
"611 690 LINE",
"532 720 LINE",
"108 6 LINE",
"187 -24 LINE"
);
},
{
closed = 1;
nodes = (
"492 0 OFFCURVE",
"547 49 OFFCURVE",
"571 146 CURVE SMOOTH",
"595 243 OFFCURVE",
"564 291 OFFCURVE",
"487 291 CURVE SMOOTH",
"410 291 OFFCURVE",
"355 243 OFFCURVE",
"331 146 CURVE SMOOTH",
"307 49 OFFCURVE",
"338 0 OFFCURVE",
"415 0 CURVE SMOOTH"
);
},
{
closed = 1;
nodes = (
"416 80 OFFCURVE",
"417 100 OFFCURVE",
"429 146 CURVE SMOOTH",
"440 192 OFFCURVE",
"449 211 OFFCURVE",
"467 211 CURVE SMOOTH",
"485 211 OFFCURVE",
"484 192 OFFCURVE",
"473 146 CURVE SMOOTH",
"461 100 OFFCURVE",
"452 80 OFFCURVE",
"434 80 CURVE SMOOTH"
);
},
{
closed = 1;
nodes = (
"312 410 OFFCURVE",
"367 459 OFFCURVE",
"391 556 CURVE SMOOTH",
"415 653 OFFCURVE",
"384 701 OFFCURVE",
"307 701 CURVE SMOOTH",
"230 701 OFFCURVE",
"175 653 OFFCURVE",
"151 556 CURVE SMOOTH",
"127 459 OFFCURVE",
"158 410 OFFCURVE",
"235 410 CURVE SMOOTH"
);
},
{
closed = 1;
nodes = (
"237 490 OFFCURVE",
"238 510 OFFCURVE",
"249 556 CURVE SMOOTH",
"261 602 OFFCURVE",
"269 621 OFFCURVE",
"287 621 CURVE SMOOTH {\nname = hr00;\n}",
"305 621 OFFCURVE",
"305 602 OFFCURVE",
"293 556 CURVE SMOOTH",
"282 510 OFFCURVE",
"273 490 OFFCURVE",
"255 490 CURVE SMOOTH"
);
}
);
width = 560;
}
);
unicode = 0025;
},
{
glyphname = plus;
lastChange = "2017-11-12 23:25:22 +0000";
layers = (
{
layerId = "B420756C-160B-4E3B-8A8F-018354DD19AA";
paths = (
{
closed = 1;
nodes = (
"355 20 LINE",
"355 234 LINE",
"559 234 LINE {\nname = hr02;\n}",
"559 268 LINE",
"355 268 LINE {\nname = hr03;\n}",
"355 480 LINE",
"319 480 LINE",
"319 268 LINE",
"117 268 LINE {\nname = hr04;\n}",
"117 234 LINE",
"319 234 LINE {\nname = hr01;\n}",
"319 20 LINE"
);
}
);
width = 560;
},
{
layerId = "7271F2A9-EB19-499E-973E-7497F9144823";
paths = (
{
closed = 1;
nodes = (
"396 21 LINE",
"396 191 LINE",
"567 191 LINE {\nname = hr02;\n}",
"567 311 LINE",
"396 311 LINE {\nname = hr03;\n}",
"396 479 LINE",
"276 479 LINE",
"276 311 LINE",
"107 311 LINE {\nname = hr04;\n}",
"107 191 LINE",
"276 191 LINE {\nname = hr01;\n}",
"276 21 LINE"
);
}
);
width = 560;
}
);
unicode = 002B;
},
{
glyphname = asciicircum;
lastChange = "2017-11-12 23:25:22 +0000";
layers = (
{
layerId = "B420756C-160B-4E3B-8A8F-018354DD19AA";
paths = (
{
closed = 1;
nodes = (
"197 323 LINE",
"355 624 LINE",
"522 323 LINE",
"562 323 LINE",
"373 660 LINE",
"337 660 LINE",
"157 323 LINE"
);
}
);
width = 560;
},
{
layerId = "7271F2A9-EB19-499E-973E-7497F9144823";
paths = (
{
closed = 1;
nodes = (
"195 313 LINE",
"308 530 LINE",
"417 313 LINE",
"557 313 LINE",
"363 660 LINE",
"249 660 LINE",
"55 313 LINE"
);
}
);
width = 560;
}
);
unicode = 005E;
},
{
glyphname = periodcentered;
lastChange = "2017-11-12 23:25:22 +0000";
layers = (
{
layerId = "B420756C-160B-4E3B-8A8F-018354DD19AA";
paths = (
{
closed = 1;
nodes = (
"172 270 LINE",
"190 353 LINE",
"152 353 LINE",
"134 270 LINE {\nname = hr00;\n}"
);
}
);
width = 182;
},
{
layerId = "7271F2A9-EB19-499E-973E-7497F9144823";
paths = (
{
closed = 1;
nodes = (
"191 207 LINE",
"229 376 LINE",
"94 376 LINE",
"56 207 LINE {\nname = hr00;\n}"
);
}
);
width = 151;
}
);
unicode = 00B7;
},
{
glyphname = grave.cap;
lastChange = "2017-11-12 23:25:22 +0000";
layers = (
{
layerId = "B420756C-160B-4E3B-8A8F-018354DD19AA";
paths = (
{
closed = 1;
nodes = (
"529 820 LINE",
"369 917 LINE",
"352 890 LINE",
"514 798 LINE"
);
}
);
width = 475;
},
{
layerId = "7271F2A9-EB19-499E-973E-7497F9144823";
paths = (
{
closed = 1;
nodes = (
"571 859 LINE",
"349 950 LINE",
"283 831 LINE",
"510 754 LINE"
);
}
);
width = 513;
}
);
},
{
glyphname = caron.cap;
lastChange = "2017-11-12 23:25:22 +0000";
layers = (
{
layerId = "B420756C-160B-4E3B-8A8F-018354DD19AA";
paths = (
{
closed = 1;
nodes = (
"409 803 LINE",
"564 931 LINE {\nname = hr00;\n}",
"524 931 LINE",
"404 832 LINE",
"327 931 LINE",
"292 931 LINE",
"392 803 LINE"
);
}
);
width = 424;
},
{
layerId = "7271F2A9-EB19-499E-973E-7497F9144823";
paths = (
{
closed = 1;
nodes = (
"433 776 LINE",
"593 927 LINE {\nname = hr00;\n}",
"462 927 LINE",
"409 870 LINE",
"380 927 LINE",
"248 927 LINE",
"341 776 LINE"
);
}
);
width = 462;
}
);
userData = {
com.typemytype.robofont.guides = (
{
angle = 0;
isGlobal = 0;
magnetic = 5;
x = 0;
y = 968;
}
);
};
},
{
glyphname = tilde.cap;
lastChange = "2017-11-12 23:25:22 +0000";
layers = (
{
layerId = "B420756C-160B-4E3B-8A8F-018354DD19AA";
paths = (
{
closed = 1;
nodes = (
"525 829 OFFCURVE",
"588 886 OFFCURVE",
"588 886 CURVE",
"584 911 LINE",
"584 911 OFFCURVE",
"522 860 OFFCURVE",
"505 860 CURVE SMOOTH",
"474 860 OFFCURVE",
"411 923 OFFCURVE",
"369 923 CURVE SMOOTH",
"338 923 OFFCURVE",
"272 866 OFFCURVE",
"272 866 CURVE",
"273 838 LINE",
"273 838 OFFCURVE",
"342 893 OFFCURVE",
"362 893 CURVE SMOOTH",
"391 893 OFFCURVE",
"457 829 OFFCURVE",
"497 829 CURVE SMOOTH"
);
}
);
width = 418;
},
{
layerId = "7271F2A9-EB19-499E-973E-7497F9144823";
paths = (
{
closed = 1;
nodes = (
"530 779 OFFCURVE",
"594 842 OFFCURVE",
"594 842 CURVE",
"592 936 LINE",
"592 936 OFFCURVE",
"530 898 OFFCURVE",
"505 898 CURVE SMOOTH",
"480 898 OFFCURVE",
"418 940 OFFCURVE",
"358 940 CURVE SMOOTH",
"310 940 OFFCURVE",
"242 876 OFFCURVE",
"242 876 CURVE",
"246 783 LINE",
"246 783 OFFCURVE",
"305 822 OFFCURVE",
"330 822 CURVE SMOOTH",
"367 822 OFFCURVE",
"430 779 OFFCURVE",
"480 779 CURVE SMOOTH"
);
}
);
width = 456;
}
);
},
{
glyphname = ring.cap;
lastChange = "2017-11-12 23:25:22 +0000";
layers = (
{
layerId = "B420756C-160B-4E3B-8A8F-018354DD19AA";
paths = (
{
closed = 1;
nodes = (
"380 729 OFFCURVE",
"415 765 OFFCURVE",
"428 817 CURVE SMOOTH",
"443 879 OFFCURVE",
"414 906 OFFCURVE",
"363 906 CURVE SMOOTH",
"310 906 OFFCURVE",
"271 876 OFFCURVE",
"255 817 CURVE SMOOTH",
"240 764 OFFCURVE",
"265 729 OFFCURVE",
"320 729 CURVE SMOOTH"
);
},
{
closed = 1;
nodes = (
"285 758 OFFCURVE",
"274 785 OFFCURVE",
"281 817 CURVE",
"291 856 OFFCURVE",
"318 877 OFFCURVE",
"356 877 CURVE SMOOTH",
"395 877 OFFCURVE",
"410 853 OFFCURVE",
"402 817 CURVE SMOOTH",
"393 779 OFFCURVE",
"366 758 OFFCURVE",
"327 758 CURVE SMOOTH"
);
}
);
width = 300;
},
{
layerId = "7271F2A9-EB19-499E-973E-7497F9144823";
paths = (
{
closed = 1;
nodes = (
"370 600 OFFCURVE",
"433 639 OFFCURVE",
"452 717 CURVE SMOOTH",
"472 800 OFFCURVE",
"421 834 OFFCURVE",
"350 834 CURVE SMOOTH",
"274 834 OFFCURVE",
"210 798 OFFCURVE",
"190 717 CURVE SMOOTH",
"170 638 OFFCURVE",
"219 600 OFFCURVE",
"292 600 CURVE SMOOTH"
);
},
{
closed = 1;
nodes = (
"287 686 OFFCURVE",
"272 698 OFFCURVE",
"276 717 CURVE SMOOTH",
"281 736 OFFCURVE",
"301 748 OFFCURVE",
"328 748 CURVE SMOOTH",
"344 748 OFFCURVE",
"371 742 OFFCURVE",
"365 717 CURVE SMOOTH",
"361 698 OFFCURVE",
"340 686 OFFCURVE",
"313 686 CURVE SMOOTH"
);
}
);
width = 338;
}
);
},
{
glyphname = hungarumlaut;
lastChange = "2017-11-12 23:25:22 +0000";
layers = (
{
layerId = "B420756C-160B-4E3B-8A8F-018354DD19AA";
paths = (
{
closed = 1;
nodes = (
"651 698 LINE",
"639 724 LINE",
"461 619 LINE",
"472 594 LINE"
);
},
{
closed = 1;
nodes = (
"476 698 LINE",
"464 724 LINE",
"287 619 LINE",
"298 594 LINE"
);
}
);
width = 651;
},
{
layerId = "7271F2A9-EB19-499E-973E-7497F9144823";
paths = (
{
closed = 1;
nodes = (
"710 751 LINE",
"621 818 LINE",
"465 628 LINE",
"546 563 LINE"
);
},
{
closed = 1;
nodes = (
"516 751 LINE",
"427 817 LINE",
"272 628 LINE",
"352 563 LINE"
);
}
);
width = 689;
}
);
unicode = 02DD;
},
{
glyphname = hungarumlaut.cap;
lastChange = "2017-11-12 23:25:22 +0000";
layers = (
{
layerId = "B420756C-160B-4E3B-8A8F-018354DD19AA";
paths = (
{
closed = 1;
nodes = (
"703 852 LINE",
"695 875 LINE",
"496 789 LINE",
"500 765 LINE"
);
},
{
closed = 1;
nodes = (
"522 852 LINE",
"518 876 LINE",
"315 789 LINE",
"321 766 LINE"
);
}
);
width = 651;
},
{
layerId = "7271F2A9-EB19-499E-973E-7497F9144823";
paths = (
{
closed = 1;
nodes = (
"533 934 LINE",
"424 979 LINE",
"312 780 LINE",
"412 741 LINE"
);
},
{
closed = 1;
nodes = (
"737 933 LINE",
"628 978 LINE",
"517 780 LINE",
"616 740 LINE"
);
}
);
width = 689;
}
);
},
{
glyphname = perthousand;
lastChange = "2017-11-12 23:25:22 +0000";
layers = (
{
layerId = "B420756C-160B-4E3B-8A8F-018354DD19AA";
paths = (
{
closed = 1;
nodes = (
"552 693 LINE",
"521 701 LINE",
"164 8 LINE",
"195 1 LINE"
);
},
{
closed = 1;
nodes = (
"468 0 OFFCURVE",
"521 42 OFFCURVE",
"545 138 CURVE SMOOTH",
"569 234 OFFCURVE",
"536 272 OFFCURVE",
"475 272 CURVE SMOOTH",
"413 272 OFFCURVE",
"363 234 OFFCURVE",
"339 139 CURVE SMOOTH",
"315 42 OFFCURVE",
"347 0 OFFCURVE",
"408 0 CURVE SMOOTH"
);
},
{
closed = 1;
nodes = (
"366 32 OFFCURVE",
"357 70 OFFCURVE",
"374 139 CURVE SMOOTH",
"391 206 OFFCURVE",
"418 240 OFFCURVE",
"467 240 CURVE SMOOTH",
"517 240 OFFCURVE",
"527 206 OFFCURVE",
"510 138 CURVE SMOOTH",
"493 70 OFFCURVE",
"465 32 OFFCURVE",
"415 32 CURVE SMOOTH"
);
},
{
closed = 1;
nodes = (
"295 429 OFFCURVE",
"349 471 OFFCURVE",
"373 567 CURVE SMOOTH",
"397 663 OFFCURVE",
"364 701 OFFCURVE",
"303 701 CURVE SMOOTH",
"241 701 OFFCURVE",
"191 663 OFFCURVE",
"167 568 CURVE SMOOTH",
"143 471 OFFCURVE",
"174 429 OFFCURVE",
"235 429 CURVE SMOOTH"
);
},
{
closed = 1;
nodes = (
"194 461 OFFCURVE",
"185 500 OFFCURVE",
"202 568 CURVE SMOOTH",
"219 635 OFFCURVE",
"246 669 OFFCURVE",
"295 669 CURVE SMOOTH",
"345 669 OFFCURVE",
"355 635 OFFCURVE",
"338 567 CURVE SMOOTH",
"321 499 OFFCURVE",
"293 461 OFFCURVE",
"243 461 CURVE SMOOTH"
);
},
{
closed = 1;
nodes = (
"726 0 OFFCURVE",
"779 42 OFFCURVE",
"803 138 CURVE SMOOTH",
"827 234 OFFCURVE",
"794 272 OFFCURVE",
"733 272 CURVE SMOOTH",
"671 272 OFFCURVE",
"621 234 OFFCURVE",
"597 139 CURVE SMOOTH",
"573 42 OFFCURVE",
"605 0 OFFCURVE",
"666 0 CURVE SMOOTH"
);
},
{
closed = 1;
nodes = (
"624 32 OFFCURVE",
"615 70 OFFCURVE",
"632 139 CURVE SMOOTH",
"649 206 OFFCURVE",
"676 240 OFFCURVE",
"725 240 CURVE SMOOTH",
"775 240 OFFCURVE",
"785 206 OFFCURVE",
"768 138 CURVE SMOOTH",
"751 70 OFFCURVE",
"723 32 OFFCURVE",
"673 32 CURVE SMOOTH"
);
}
);
width = 805;
},
{
layerId = "7271F2A9-EB19-499E-973E-7497F9144823";
paths = (
{
closed = 1;
nodes = (
"596 697 LINE",
"516 720 LINE",
"144 -2 LINE",
"225 -24 LINE"
);
},
{
closed = 1;
nodes = (
"506 0 OFFCURVE",
"561 49 OFFCURVE",
"585 146 CURVE SMOOTH",
"609 243 OFFCURVE",
"578 291 OFFCURVE",
"501 291 CURVE SMOOTH",
"424 291 OFFCURVE",
"369 243 OFFCURVE",
"345 146 CURVE SMOOTH",
"321 49 OFFCURVE",
"352 0 OFFCURVE",
"429 0 CURVE SMOOTH"
);
},
{
closed = 1;
nodes = (
"430 80 OFFCURVE",
"431 100 OFFCURVE",
"443 146 CURVE SMOOTH",
"454 192 OFFCURVE",
"463 211 OFFCURVE",
"481 211 CURVE SMOOTH",
"499 211 OFFCURVE",
"498 192 OFFCURVE",
"487 146 CURVE SMOOTH",
"475 100 OFFCURVE",
"466 80 OFFCURVE",
"448 80 CURVE SMOOTH"
);
},
{
closed = 1;
nodes = (
"316 410 OFFCURVE",
"371 459 OFFCURVE",
"395 556 CURVE SMOOTH",
"419 653 OFFCURVE",
"388 701 OFFCURVE",
"311 701 CURVE SMOOTH",
"234 701 OFFCURVE",
"179 653 OFFCURVE",
"155 556 CURVE SMOOTH",
"131 459 OFFCURVE",
"162 410 OFFCURVE",
"239 410 CURVE SMOOTH"
);
},
{
closed = 1;
nodes = (
"241 490 OFFCURVE",
"242 510 OFFCURVE",
"253 556 CURVE SMOOTH",
"265 602 OFFCURVE",
"273 621 OFFCURVE",
"291 621 CURVE SMOOTH",
"309 621 OFFCURVE",
"309 602 OFFCURVE",
"297 556 CURVE SMOOTH",
"286 510 OFFCURVE",
"277 490 OFFCURVE",
"259 490 CURVE SMOOTH"
);
},
{
closed = 1;
nodes = (
"763 0 OFFCURVE",
"818 49 OFFCURVE",
"842 146 CURVE SMOOTH",
"866 243 OFFCURVE",
"835 291 OFFCURVE",
"758 291 CURVE SMOOTH",
"681 291 OFFCURVE",
"626 243 OFFCURVE",
"602 146 CURVE SMOOTH",
"578 49 OFFCURVE",
"609 0 OFFCURVE",
"686 0 CURVE SMOOTH"
);
},
{
closed = 1;
nodes = (
"687 80 OFFCURVE",
"688 100 OFFCURVE",
"700 146 CURVE SMOOTH",
"711 192 OFFCURVE",
"720 211 OFFCURVE",
"738 211 CURVE SMOOTH",
"756 211 OFFCURVE",
"755 192 OFFCURVE",
"744 146 CURVE SMOOTH",
"732 100 OFFCURVE",
"723 80 OFFCURVE",
"705 80 CURVE SMOOTH"
);
}
);
width = 833;
}
);
unicode = 2030;
},
{
glyphname = zerosuperior;
lastChange = "2017-11-12 23:25:22 +0000";
layers = (
{
layerId = "B420756C-160B-4E3B-8A8F-018354DD19AA";
paths = (
{
closed = 1;
nodes = (
"273 469 OFFCURVE",
"300 475 OFFCURVE",
"324 494 CURVE SMOOTH",
"355 519 OFFCURVE",
"380.408 563.898 OFFCURVE",
"398 635 CURVE SMOOTH",
"428.408 757.9 OFFCURVE",
"393 799 OFFCURVE",
"326 799 CURVE SMOOTH {\nname = hr00;\n}",
"297 799 OFFCURVE",
"270 793 OFFCURVE",
"247 775 CURVE SMOOTH",
"216 751 OFFCURVE",
"190.444 706.141 OFFCURVE",
"173 636 CURVE SMOOTH",
"142.443 513.137 OFFCURVE",
"177 469 OFFCURVE",
"244 469 CURVE SMOOTH"
);
},
{
closed = 1;
nodes = (
"205 503 OFFCURVE",
"185.113 535.971 OFFCURVE",
"210 635 CURVE SMOOTH",
"233.113 726.972 OFFCURVE",
"266 765 OFFCURVE",
"317 765 CURVE SMOOTH",
"370 765 OFFCURVE",
"383.125 724.969 OFFCURVE",
"361 636 CURVE SMOOTH",
"336.125 535.969 OFFCURVE",
"301 503 OFFCURVE",
"253 503 CURVE SMOOTH"
);
}
);
width = 280;
},
{
layerId = "7271F2A9-EB19-499E-973E-7497F9144823";
paths = (
{
closed = 1;
nodes = (
"282 467 OFFCURVE",
"314 471 OFFCURVE",
"340 489 CURVE SMOOTH",
"374 513 OFFCURVE",
"396.85 559.037 OFFCURVE",
"415 632 CURVE SMOOTH",
"446.85 760.037 OFFCURVE",
"410 801 OFFCURVE",
"328 801 CURVE SMOOTH {\nname = hr00;\n}",
"292 801 OFFCURVE",
"260 796 OFFCURVE",
"234 777 CURVE SMOOTH",
"200 752 OFFCURVE",
"175.15 704.963 OFFCURVE",
"157 632 CURVE SMOOTH",
"125.15 503.963 OFFCURVE",
"160 467 OFFCURVE",
"245 467 CURVE SMOOTH"
);
},
{
closed = 1;
nodes = (
"256 562 OFFCURVE",
"250.648 567.088 OFFCURVE",
"267 632 CURVE SMOOTH",
"283.649 698.09 OFFCURVE",
"292 706 OFFCURVE",
"305 706 CURVE SMOOTH",
"319 706 OFFCURVE",
"321.649 698.09 OFFCURVE",
"305 632 CURVE SMOOTH",
"288.648 567.088 OFFCURVE",
"283 562 OFFCURVE",
"269 562 CURVE SMOOTH"
);
}
);
width = 280;
}
);
unicode = 2070;
userData = {
"- fatto in thin\\012- fatto in bold  com.typemytype.robofont.guides" = (
{
angle = 0;
isGlobal = 0;
magnetic = 5;
x = 0;
y = 378;
},
{
angle = 0;
isGlobal = 0;
magnetic = 5;
x = 0;
y = 792;
},
{
angle = 0;
isGlobal = 0;
magnetic = 5;
x = 0;
y = 378;
},
{
angle = 90;
isGlobal = 0;
magnetic = 5;
x = 2709;
y = 0;
},
{
angle = 90;
isGlobal = 0;
magnetic = 5;
x = 2686;
y = 0;
},
{
angle = 90;
isGlobal = 0;
magnetic = 5;
x = 3966;
y = 0;
}
);
};
},
{
glyphname = onesuperior;
lastChange = "2017-11-12 23:25:22 +0000";
layers = (
{
layerId = "B420756C-160B-4E3B-8A8F-018354DD19AA";
paths = (
{
closed = 1;
nodes = (
"285 478 LINE",
"362 790 LINE",
"326 790 LINE",
"211 723 LINE {\nname = hr00;\n}",
"221 695 LINE",
"317 751 LINE",
"249 478 LINE"
);
}
);
width = 280;
},
{
layerId = "7271F2A9-EB19-499E-973E-7497F9144823";
paths = (
{
closed = 1;
nodes = (
"332 478 LINE",
"409 790 LINE",
"313 790 LINE",
"189 715 LINE {\nname = hr00;\n}",
"219 641 LINE",
"274 673 LINE",
"226 478 LINE"
);
}
);
width = 280;
}
);
unicode = 00B9;
userData = {
"- fatto in thin\\012- fatto in bold  com.typemytype.robofont.guides" = (
{
angle = 0;
isGlobal = 0;
magnetic = 5;
x = 0;
y = 378;
}
);
};
},
{
glyphname = twosuperior;
lastChange = "2017-11-12 23:16:04 +0000";
layers = (
{
layerId = "B420756C-160B-4E3B-8A8F-018354DD19AA";
paths = (
{
closed = 1;
nodes = (
"342 478 LINE {\nname = hr00;\n}",
"350 512 LINE",
"202 512 LINE",
"298 593 LINE",
"348 634 OFFCURVE",
"382.235 666.941 OFFCURVE",
"394 714 CURVE SMOOTH",
"408.235 770.942 OFFCURVE",
"383 799 OFFCURVE",
"323 799 CURVE SMOOTH",
"281 799 OFFCURVE",
"226 786 OFFCURVE",
"226 786 CURVE",
"220 753 LINE",
"220 753 OFFCURVE",
"279 765 OFFCURVE",
"313 765 CURVE SMOOTH",
"345 765 OFFCURVE",
"367 751 OFFCURVE",
"358 715 CURVE SMOOTH",
"348 675 OFFCURVE",
"316 647 OFFCURVE",
"279 616 CURVE SMOOTH",
"155 512 LINE",
"147 478 LINE"
);
}
);
width = 280;
},
{
layerId = "7271F2A9-EB19-499E-973E-7497F9144823";
paths = (
{
closed = 1;
nodes = (
"364 478 LINE {\nname = hr00;\n}",
"387 573 LINE",
"293 573 LINE",
"338 601 LINE",
"386 630 OFFCURVE",
"407.765 656.058 OFFCURVE",
"419 701 CURVE SMOOTH",
"436.765 772.059 OFFCURVE",
"416 801 OFFCURVE",
"333 801 CURVE SMOOTH",
"288 801 OFFCURVE",
"213 792 OFFCURVE",
"213 792 CURVE",
"192 693 LINE",
"192 693 OFFCURVE",
"248 699 OFFCURVE",
"270 699 CURVE SMOOTH",
"295 699 OFFCURVE",
"306.104 695.973 OFFCURVE",
"303 684 CURVE SMOOTH",
"299.104 668.973 OFFCURVE",
"284 654 OFFCURVE",
"243 627 CURVE SMOOTH",
"155 568 LINE",
"133 478 LINE"
);
}
);
width = 280;
}
);
unicode = 00B2;
userData = {
"- fatto in thin\\012- fatto in bold  com.typemytype.robofont.guides" = (
{
angle = 0;
isGlobal = 0;
magnetic = 5;
x = 0;
y = 378;
}
);
};
},
{
glyphname = threesuperior;
lastChange = "2017-11-12 23:25:22 +0000";
layers = (
{
layerId = "B420756C-160B-4E3B-8A8F-018354DD19AA";
paths = (
{
closed = 1;
nodes = (
"312 469 OFFCURVE",
"357.247 497.939 OFFCURVE",
"373 562 CURVE SMOOTH",
"387.247 619.94 OFFCURVE",
"368 631 OFFCURVE",
"335 641 CURVE",
"335 641 OFFCURVE",
"388 659 OFFCURVE",
"403 719 CURVE SMOOTH",
"417 775 OFFCURVE",
"392 799 OFFCURVE",
"327 799 CURVE SMOOTH",
"282 799 OFFCURVE",
"226 788 CURVE {\nname = hr00;\n}",
"221 756 LINE",
"221 756 OFFCURVE",
"273 765 OFFCURVE",
"319 765 CURVE SMOOTH",
"363 765 OFFCURVE",
"373 749 OFFCURVE",
"366 719 CURVE SMOOTH",
"357 684 OFFCURVE",
"321 656 OFFCURVE",
"299 656 CURVE SMOOTH",
"234 656 LINE",
"226 622 LINE",
"291 622 LINE",
"325 622 OFFCURVE",
"346.53 607.12 OFFCURVE",
"335 561 CURVE SMOOTH",
"326.529 527.114 OFFCURVE",
"302 503 OFFCURVE",
"258 503 CURVE SMOOTH",
"208 503 OFFCURVE",
"156 512 OFFCURVE",
"156 512 CURVE",
"145 480 LINE",
"145 480 OFFCURVE",
"200 469 OFFCURVE",
"249 469 CURVE SMOOTH"
);
}
);
width = 280;
},
{
layerId = "7271F2A9-EB19-499E-973E-7497F9144823";
paths = (
{
closed = 1;
nodes = (
"320 467 OFFCURVE",
"372.765 500.058 OFFCURVE",
"390 569 CURVE SMOOTH",
"400.765 612.059 OFFCURVE",
"394 632 OFFCURVE",
"374 642 CURVE",
"395 653 OFFCURVE",
"412 678 OFFCURVE",
"420 712 CURVE SMOOTH",
"435 773 OFFCURVE",
"401 801 OFFCURVE",
"321 801 CURVE SMOOTH",
"281 801 OFFCURVE",
"211 792 CURVE {\nname = hr00;\n}",
"194 701 LINE",
"194 701 OFFCURVE",
"243 706 OFFCURVE",
"280 706 CURVE SMOOTH",
"296 706 OFFCURVE",
"306 703 OFFCURVE",
"303 691 CURVE SMOOTH",
"300 681 OFFCURVE",
"292 677 OFFCURVE",
"279 677 CURVE SMOOTH",
"215 677 LINE",
"194 592 LINE",
"260 592 LINE",
"278 592 OFFCURVE",
"286 590 OFFCURVE",
"283 578 CURVE SMOOTH",
"280 566 OFFCURVE",
"271 562 OFFCURVE",
"250 562 CURVE SMOOTH",
"217 562 OFFCURVE",
"157 568 OFFCURVE",
"157 568 CURVE",
"128 475 LINE",
"128 475 OFFCURVE",
"198 467 OFFCURVE",
"247 467 CURVE SMOOTH"
);
}
);
width = 280;
}
);
unicode = 00B3;
userData = {
"- fatto in thin\\012- fatto in bold  com.typemytype.robofont.guides" = (
{
angle = 0;
isGlobal = 0;
magnetic = 5;
x = 0;
y = 378;
}
);
};
},
{
glyphname = foursuperior;
lastChange = "2017-11-12 23:25:22 +0000";
layers = (
{
layerId = "B420756C-160B-4E3B-8A8F-018354DD19AA";
paths = (
{
closed = 1;
nodes = (
"322 478 LINE",
"336 535 LINE",
"373 535 LINE",
"381 569 LINE",
"344 569 LINE",
"366 656 LINE",
"330 656 LINE",
"308 569 LINE",
"204 569 LINE",
"346 790 LINE",
"306 790 LINE",
"162 567 LINE",
"154 535 LINE",
"300 535 LINE",
"286 478 LINE {\nname = hr00;\n}"
);
}
);
width = 280;
},
{
layerId = "7271F2A9-EB19-499E-973E-7497F9144823";
paths = (
{
closed = 1;
nodes = (
"363 478 LINE",
"371 513 LINE",
"382 513 LINE",
"406 608 LINE",
"395 608 LINE",
"418 698 LINE",
"327 698 LINE",
"290 608 LINE",
"263 608 LINE",
"360 790 LINE",
"242 790 LINE",
"153 601 LINE",
"131 513 LINE",
"266 513 LINE",
"258 478 LINE {\nname = hr00;\n}"
);
}
);
width = 280;
}
);
unicode = 2074;
userData = {
"- fatto in thin  com.typemytype.robofont.guides" = (
{
angle = 0;
isGlobal = 0;
magnetic = 5;
x = 0;
y = 378;
}
);
};
},
{
glyphname = fivesuperior;
lastChange = "2017-11-12 23:25:22 +0000";
layers = (
{
layerId = "B420756C-160B-4E3B-8A8F-018354DD19AA";
paths = (
{
closed = 1;
nodes = (
"309 469 OFFCURVE",
"357.331 494.915 OFFCURVE",
"378 576 CURVE SMOOTH",
"396.332 647.916 OFFCURVE",
"359 675 OFFCURVE",
"307 675 CURVE SMOOTH",
"264 675 OFFCURVE",
"236 653 OFFCURVE",
"236 653 CURVE",
"269 755 LINE",
"409 755 LINE",
"417 790 LINE {\nname = hr00;\n}",
"243 790 LINE",
"192 620 LINE",
"223 618 LINE",
"223 618 OFFCURVE",
"258 640 OFFCURVE",
"298 640 CURVE SMOOTH",
"332 640 OFFCURVE",
"351.77 626.059 OFFCURVE",
"339 576 CURVE SMOOTH",
"326.77 528.058 OFFCURVE",
"294 504 OFFCURVE",
"259 504 CURVE SMOOTH",
"216 504 OFFCURVE",
"166 516 OFFCURVE",
"166 516 CURVE",
"154 481 LINE",
"154 481 OFFCURVE",
"205 469 OFFCURVE",
"250 469 CURVE SMOOTH"
);
}
);
width = 280;
},
{
layerId = "7271F2A9-EB19-499E-973E-7497F9144823";
paths = (
{
closed = 1;
nodes = (
"327 471 OFFCURVE",
"372.56 501.855 OFFCURVE",
"393 582 CURVE SMOOTH",
"410.561 650.859 OFFCURVE",
"381 681 OFFCURVE",
"324 681 CURVE SMOOTH",
"308 681 OFFCURVE",
"279 675 OFFCURVE",
"279 675 CURVE",
"288 700 LINE",
"412 700 LINE",
"434 790 LINE {\nname = hr00;\n}",
"227 790 LINE",
"169 599 LINE",
"244 588 LINE",
"244 588 OFFCURVE",
"262 592 OFFCURVE",
"271 592 CURVE SMOOTH",
"281 592 OFFCURVE",
"283.641 587.092 OFFCURVE",
"281 576 CURVE SMOOTH",
"278.638 566.079 OFFCURVE",
"269 561 OFFCURVE",
"252 561 CURVE SMOOTH",
"215 561 OFFCURVE",
"162 570 OFFCURVE",
"162 570 CURVE",
"132 485 LINE",
"132 485 OFFCURVE",
"195 471 OFFCURVE",
"247 471 CURVE SMOOTH"
);
}
);
width = 280;
}
);
unicode = 2075;
userData = {
"- fatto in thin\\012- fatto in bold  com.typemytype.robofont.guides" = (
{
angle = 0;
isGlobal = 0;
magnetic = 5;
x = 0;
y = 378;
}
);
};
},
{
glyphname = sixsuperior;
lastChange = "2017-11-12 23:25:22 +0000";
layers = (
{
layerId = "B420756C-160B-4E3B-8A8F-018354DD19AA";
paths = (
{
closed = 1;
nodes = (
"322 469 OFFCURVE",
"364.344 508.912 OFFCURVE",
"382 579 CURVE SMOOTH",
"397.345 639.914 OFFCURVE",
"375 680 OFFCURVE",
"305 680 CURVE SMOOTH",
"279 680 OFFCURVE",
"246 669 OFFCURVE",
"227 661 CURVE",
"248 738 OFFCURVE",
"281 765 OFFCURVE",
"332 765 CURVE SMOOTH",
"370 765 OFFCURVE",
"408 758 OFFCURVE",
"408 758 CURVE",
"418 790 LINE {\nname = hr00;\n}",
"418 790 OFFCURVE",
"378 799 OFFCURVE",
"341 799 CURVE SMOOTH",
"266 799 OFFCURVE",
"213.226 760.944 OFFCURVE",
"182 635 CURVE SMOOTH",
"153.226 518.944 OFFCURVE",
"181 469 OFFCURVE",
"249 469 CURVE SMOOTH"
);
},
{
closed = 1;
nodes = (
"206 503 OFFCURVE",
"199 547 OFFCURVE",
"217 624 CURVE",
"217 625 OFFCURVE",
"259 646 OFFCURVE",
"296 646 CURVE SMOOTH",
"346 646 OFFCURVE",
"356.471 628.885 OFFCURVE",
"344 579 CURVE SMOOTH",
"333.47 536.88 OFFCURVE",
"309 503 OFFCURVE",
"258 503 CURVE SMOOTH"
);
}
);
width = 280;
},
{
layerId = "7271F2A9-EB19-499E-973E-7497F9144823";
paths = (
{
closed = 1;
nodes = (
"327 467 OFFCURVE",
"379.56 501.855 OFFCURVE",
"400 582 CURVE SMOOTH",
"417.561 650.859 OFFCURVE",
"393 687 OFFCURVE",
"322 687 CURVE SMOOTH",
"312 687 OFFCURVE",
"297 685 OFFCURVE",
"283 682 CURVE",
"286 695 OFFCURVE",
"296 708 OFFCURVE",
"322 708 CURVE SMOOTH",
"350 708 OFFCURVE",
"415 702 OFFCURVE",
"415 702 CURVE",
"442 789 LINE {\nname = hr00;\n}",
"442 789 OFFCURVE",
"377 801 OFFCURVE",
"341 801 CURVE SMOOTH",
"235 801 OFFCURVE",
"188.378 733.905 OFFCURVE",
"160 622 CURVE SMOOTH",
"135.377 524.904 OFFCURVE",
"160 467 OFFCURVE",
"252 467 CURVE SMOOTH"
);
},
{
closed = 1;
nodes = (
"259 559 OFFCURVE",
"256 574 OFFCURVE",
"260 593 CURVE",
"260 593 OFFCURVE",
"269 601 OFFCURVE",
"281 601 CURVE SMOOTH",
"291 601 OFFCURVE",
"295.654 594.094 OFFCURVE",
"292 580 CURVE SMOOTH",
"288.652 567.085 OFFCURVE",
"280 559 OFFCURVE",
"270 559 CURVE SMOOTH"
);
}
);
width = 280;
}
);
unicode = 2076;
userData = {
"- fatto in thin\\012- fatto in bold  com.typemytype.robofont.guides" = (
{
angle = 0;
isGlobal = 0;
magnetic = 5;
x = 0;
y = 378;
}
);
};
},
{
glyphname = sevensuperior;
lastChange = "2017-11-12 23:25:22 +0000";
layers = (
{
layerId = "B420756C-160B-4E3B-8A8F-018354DD19AA";
paths = (
{
closed = 1;
nodes = (
"397 729 LINE",
"412 790 LINE",
"218 790 LINE",
"210 756 LINE {\nname = hr00;\n}",
"364 756 LINE",
"358 731 LINE",
"182 481 LINE",
"221 470 LINE"
);
}
);
width = 280;
},
{
layerId = "7271F2A9-EB19-499E-973E-7497F9144823";
paths = (
{
closed = 1;
nodes = (
"411 689 LINE",
"436 790 LINE",
"209 790 LINE",
"183 685 LINE {\nname = hr00;\n}",
"282 685 LINE",
"279 672 LINE",
"140 489 LINE",
"261 468 LINE"
);
}
);
width = 280;
}
);
unicode = 2077;
userData = {
"- fatto in thin\\012- fatto in bold  com.typemytype.robofont.guides" = (
{
angle = 0;
isGlobal = 0;
magnetic = 5;
x = 0;
y = 378;
}
);
};
},
{
glyphname = eightsuperior;
lastChange = "2017-11-12 23:25:22 +0000";
layers = (
{
layerId = "B420756C-160B-4E3B-8A8F-018354DD19AA";
paths = (
{
closed = 1;
nodes = (
"311 469 OFFCURVE",
"361.27 485.93 OFFCURVE",
"381 563 CURVE SMOOTH",
"393.27 610.932 OFFCURVE",
"377 629 OFFCURVE",
"340 641 CURVE",
"386 654 OFFCURVE",
"404 674 OFFCURVE",
"414 717 CURVE SMOOTH",
"428 772 OFFCURVE",
"397 799 OFFCURVE",
"327 799 CURVE SMOOTH {\nname = hr00;\n}",
"256 799 OFFCURVE",
"213 777 OFFCURVE",
"198 717 CURVE SMOOTH",
"188 674 OFFCURVE",
"201 656 OFFCURVE",
"236 642 CURVE",
"193 628 OFFCURVE",
"167 611 OFFCURVE",
"153 557 CURVE",
"138 493 OFFCURVE",
"180 469 OFFCURVE",
"244 469 CURVE SMOOTH"
);
},
{
closed = 1;
nodes = (
"207 503 OFFCURVE",
"182.46 518.885 OFFCURVE",
"192 558 CURVE SMOOTH",
"202.461 600.89 OFFCURVE",
"224 613 OFFCURVE",
"265 623 CURVE",
"301 623 LINE",
"338 613 OFFCURVE",
"352.484 600.885 OFFCURVE",
"343 562 CURVE SMOOTH",
"332.483 518.879 OFFCURVE",
"302 503 OFFCURVE",
"253 503 CURVE SMOOTH"
);
},
{
closed = 1;
nodes = (
"239 672 OFFCURVE",
"228 683 OFFCURVE",
"236 717 CURVE SMOOTH",
"244 749 OFFCURVE",
"267 765 OFFCURVE",
"318 765 CURVE SMOOTH",
"369 765 OFFCURVE",
"384 749 OFFCURVE",
"376 716 CURVE SMOOTH",
"368 683 OFFCURVE",
"353 671 OFFCURVE",
"310 660 CURVE",
"274 660 LINE"
);
}
);
width = 280;
},
{
layerId = "7271F2A9-EB19-499E-973E-7497F9144823";
paths = (
{
closed = 1;
nodes = (
"328 467 OFFCURVE",
"379.803 493.05 OFFCURVE",
"400 572 CURVE SMOOTH",
"412.804 622.051 OFFCURVE",
"386 640 OFFCURVE",
"386 640 CURVE",
"386 640 OFFCURVE",
"420 666 OFFCURVE",
"431 711 CURVE SMOOTH",
"445 769 OFFCURVE",
"413 801 OFFCURVE",
"329 801 CURVE SMOOTH {\nname = hr00;\n}",
"244 801 OFFCURVE",
"198 769 OFFCURVE",
"184 712 CURVE SMOOTH",
"171 661 OFFCURVE",
"193 641 OFFCURVE",
"193 641 CURVE",
"193 641 OFFCURVE",
"155.235 616.942 OFFCURVE",
"144 572 CURVE SMOOTH",
"124.235 492.941 OFFCURVE",
"163 467 OFFCURVE",
"246 467 CURVE SMOOTH"
);
},
{
closed = 1;
nodes = (
"254 552 OFFCURVE",
"250.263 560.922 OFFCURVE",
"254 574 CURVE SMOOTH",
"256.265 581.929 OFFCURVE",
"264 593 OFFCURVE",
"272 599 CURVE",
"286 599 LINE",
"290 593 OFFCURVE",
"294.265 581.929 OFFCURVE",
"292 574 CURVE SMOOTH",
"288.263 560.922 OFFCURVE",
"280 552 OFFCURVE",
"267 552 CURVE SMOOTH"
);
},
{
closed = 1;
nodes = (
"287 678 OFFCURVE",
"283 689 OFFCURVE",
"285 697 CURVE SMOOTH",
"289 710 OFFCURVE",
"297 716 OFFCURVE",
"308 716 CURVE SMOOTH",
"320 716 OFFCURVE",
"324 709 OFFCURVE",
"321 697 CURVE SMOOTH",
"319 689 OFFCURVE",
"311 678 OFFCURVE",
"304 672 CURVE",
"290 672 LINE"
);
}
);
width = 280;
}
);
unicode = 2078;
userData = {
"- fatto in thin\\012- fatto in bold  com.typemytype.robofont.guides" = (
{
angle = 0;
isGlobal = 0;
magnetic = 5;
x = 0;
y = 378;
}
);
};
},
{
glyphname = ninesuperior;
lastChange = "2017-11-12 23:25:22 +0000";
layers = (
{
layerId = "B420756C-160B-4E3B-8A8F-018354DD19AA";
paths = (
{
closed = 1;
nodes = (
"317 469 OFFCURVE",
"362.123 506.969 OFFCURVE",
"393 631 CURVE SMOOTH",
"421.123 743.969 OFFCURVE",
"397 799 OFFCURVE",
"326 799 CURVE SMOOTH",
"260 799 OFFCURVE",
"209.577 761.862 OFFCURVE",
"193 694 CURVE SMOOTH",
"177.576 630.857 OFFCURVE",
"205 589 OFFCURVE",
"267 589 CURVE SMOOTH",
"303 589 OFFCURVE",
"351 606 OFFCURVE",
"351 606 CURVE",
"332 537 OFFCURVE",
"298 503 OFFCURVE",
"241 503 CURVE SMOOTH",
"204 503 OFFCURVE",
"164 510 OFFCURVE",
"164 510 CURVE",
"153 479 LINE {\nname = hr00;\n}",
"153 479 OFFCURVE",
"195 469 OFFCURVE",
"232 469 CURVE SMOOTH"
);
},
{
closed = 1;
nodes = (
"235 623 OFFCURVE",
"220.765 654.058 OFFCURVE",
"231 695 CURVE SMOOTH",
"242.765 742.059 OFFCURVE",
"275 765 OFFCURVE",
"317 765 CURVE SMOOTH",
"370 765 OFFCURVE",
"377 720 OFFCURVE",
"360 644 CURVE",
"360 644 OFFCURVE",
"310 623 OFFCURVE",
"277 623 CURVE SMOOTH"
);
}
);
width = 280;
},
{
layerId = "7271F2A9-EB19-499E-973E-7497F9144823";
paths = (
{
closed = 1;
nodes = (
"338 467 OFFCURVE",
"380.992 521.002 OFFCURVE",
"410 636 CURVE SMOOTH",
"436.992 743.002 OFFCURVE",
"413 801 OFFCURVE",
"320 801 CURVE SMOOTH",
"245 801 OFFCURVE",
"190.652 759.089 OFFCURVE",
"172 685 CURVE SMOOTH",
"154.651 616.087 OFFCURVE",
"180 581 OFFCURVE",
"248 581 CURVE SMOOTH",
"265 581 OFFCURVE",
"285 586 OFFCURVE",
"284 585 CURVE",
"282 575 OFFCURVE",
"273 562 OFFCURVE",
"246 562 CURVE SMOOTH",
"208 562 OFFCURVE",
"160 568 OFFCURVE",
"160 568 CURVE",
"132 481 LINE {\nname = hr00;\n}",
"132 481 OFFCURVE",
"189 467 OFFCURVE",
"237 467 CURVE SMOOTH"
);
},
{
closed = 1;
nodes = (
"282 663 OFFCURVE",
"275.527 671.11 OFFCURVE",
"279 685 CURVE SMOOTH",
"282.531 699.125 OFFCURVE",
"291 708 OFFCURVE",
"301 708 CURVE SMOOTH",
"313 708 OFFCURVE",
"317 696 OFFCURVE",
"310 669 CURVE",
"310 669 OFFCURVE",
"298 663 OFFCURVE",
"290 663 CURVE SMOOTH"
);
}
);
width = 280;
}
);
unicode = 2079;
userData = {
"- fatto in thin\\012- fatto in bold  com.typemytype.robofont.guides" = (
{
angle = 0;
isGlobal = 0;
magnetic = 5;
x = 0;
y = 378;
}
);
};
},
{
glyphname = Delta;
lastChange = "2017-11-12 23:25:22 +0000";
layers = (
{
layerId = "B420756C-160B-4E3B-8A8F-018354DD19AA";
paths = (
{
closed = 1;
nodes = (
"528 0 LINE",
"527 26 LINE",
"345 660 LINE",
"269 660 LINE",
"87 26 LINE {\nname = hr00;\n}",
"87 0 LINE"
);
},
{
closed = 1;
nodes = (
"294 626 LINE",
"319 626 LINE",
"319 626 OFFCURVE",
"486 34 OFFCURVE",
"486 34 CURVE",
"486 34 OFFCURVE",
"127 34 OFFCURVE",
"127 34 CURVE"
);
}
);
width = 560;
},
{
layerId = "7271F2A9-EB19-499E-973E-7497F9144823";
paths = (
{
closed = 1;
nodes = (
"554 0 LINE",
"554 102 LINE",
"431 660 LINE",
"206 660 LINE",
"82 104 LINE {\nname = hr00;\n}",
"82 0 LINE"
);
},
{
closed = 1;
nodes = (
"305 548 LINE",
"332 548 LINE",
"332 548 OFFCURVE",
"421 114 OFFCURVE",
"421 114 CURVE",
"421 114 OFFCURVE",
"215 114 OFFCURVE",
"215 114 CURVE"
);
}
);
width = 560;
}
);
unicode = 2206;
},
{
glyphname = radical;
lastChange = "2017-11-12 23:25:22 +0000";
layers = (
{
layerId = "B420756C-160B-4E3B-8A8F-018354DD19AA";
paths = (
{
closed = 1;
nodes = (
"401 -140 LINE",
"682 768 LINE",
"645 768 LINE",
"376 -108 LINE",
"368 -108 LINE",
"216 450 LINE",
"175 450 LINE {\nname = hr00;\n}",
"341 -140 LINE"
);
},
{
closed = 1;
nodes = (
"215 416 LINE",
"215 450 LINE",
"123 450 LINE",
"123 416 LINE"
);
}
);
width = 560;
},
{
layerId = "7271F2A9-EB19-499E-973E-7497F9144823";
paths = (
{
closed = 1;
nodes = (
"471 -130 LINE",
"671 791 LINE",
"535 791 LINE",
"372 -16 LINE",
"359 -16 LINE",
"267 440 LINE",
"128 440 LINE {\nname = hr00;\n}",
"257 -130 LINE"
);
},
{
closed = 1;
nodes = (
"257 320 LINE",
"257 440 LINE",
"101 440 LINE",
"101 320 LINE"
);
}
);
width = 560;
}
);
unicode = 221A;
},
{
glyphname = lozenge;
lastChange = "2017-11-12 23:28:58 +0000";
layers = (
{
layerId = "B420756C-160B-4E3B-8A8F-018354DD19AA";
paths = (
{
closed = 1;
nodes = (
"393 0 LINE",
"575 332 LINE",
"393 660 LINE",
"317 660 LINE",
"135 332 LINE {\nname = hr00;\n}",
"317 0 LINE"
);
},
{
closed = 1;
nodes = (
"177 332 LINE",
"341 630 LINE",
"368 630 LINE",
"368 630 OFFCURVE",
"533 332 OFFCURVE",
"533 332 CURVE SMOOTH",
"533 332 OFFCURVE",
"368 34 OFFCURVE",
"368 34 CURVE",
"341 34 LINE"
);
}
);
width = 560;
},
{
layerId = "7271F2A9-EB19-499E-973E-7497F9144823";
paths = (
{
closed = 1;
nodes = (
"443 0 LINE",
"591 336 LINE",
"443 660 LINE",
"268 660 LINE",
"119 336 LINE {\nname = hr00;\n}",
"268 0 LINE"
);
},
{
closed = 1;
nodes = (
"252 330 LINE",
"347 552 LINE",
"364 552 LINE",
"364 552 OFFCURVE",
"458 330 OFFCURVE",
"458 330 CURVE SMOOTH",
"458 330 OFFCURVE",
"364 108 OFFCURVE",
"364 108 CURVE",
"347 108 LINE"
);
}
);
width = 560;
}
);
unicode = 25CA;
},
{
glyphname = product;
lastChange = "2017-11-12 23:25:22 +0000";
layers = (
{
layerId = "B420756C-160B-4E3B-8A8F-018354DD19AA";
paths = (
{
closed = 1;
nodes = (
"253 -151 LINE",
"253 716 LINE",
"521 716 LINE",
"521 -151 LINE {\nname = hr00;\n}",
"557 -151 LINE",
"557 716 LINE",
"637 716 LINE",
"637 750 LINE",
"137 750 LINE",
"137 716 LINE",
"217 716 LINE",
"217 -151 LINE"
);
}
);
width = 560;
},
{
layerId = "7271F2A9-EB19-499E-973E-7497F9144823";
paths = (
{
closed = 1;
nodes = (
"316 -180 LINE",
"316 640 LINE",
"429 640 LINE",
"429 -180 LINE {\nname = hr00;\n}",
"567 -180 LINE",
"567 640 LINE",
"624 640 LINE",
"624 760 LINE",
"125 760 LINE",
"125 640 LINE",
"178 640 LINE",
"178 -180 LINE"
);
}
);
width = 560;
}
);
unicode = 220F;
},
{
glyphname = dagger;
lastChange = "2017-11-12 23:25:22 +0000";
layers = (
{
layerId = "B420756C-160B-4E3B-8A8F-018354DD19AA";
paths = (
{
closed = 1;
nodes = (
"213 -78 LINE",
"340 462 LINE",
"513 460 LINE",
"523 498 LINE",
"350 498 LINE",
"396 698 LINE",
"363 698 LINE",
"315 496 LINE",
"144 498 LINE",
"135 460 LINE {\nname = hr00;\n}",
"306 460 LINE",
"180 -78 LINE"
);
}
);
width = 438;
},
{
layerId = "7271F2A9-EB19-499E-973E-7497F9144823";
paths = (
{
closed = 1;
nodes = (
"271 -70 LINE",
"374 362 LINE",
"512 362 LINE",
"541 497 LINE",
"405 497 LINE",
"445 668 LINE",
"320 668 LINE",
"280 497 LINE",
"142 497 LINE",
"112 362 LINE {\nname = hr00;\n}",
"248 362 LINE",
"147 -70 LINE"
);
}
);
width = 454;
}
);
unicode = 2020;
},
{
glyphname = ogonek;
lastChange = "2017-11-12 23:25:22 +0000";
layers = (
{
layerId = "B420756C-160B-4E3B-8A8F-018354DD19AA";
paths = (
{
closed = 1;
nodes = (
"213 -198 OFFCURVE",
"249 -190 OFFCURVE",
"249 -190 CURVE",
"253 -158 LINE {\nname = hr00;\n}",
"253 -158 OFFCURVE",
"216 -165 OFFCURVE",
"197 -165 CURVE SMOOTH",
"177 -165 OFFCURVE",
"165 -157 OFFCURVE",
"165 -141 CURVE SMOOTH",
"165 -97 OFFCURVE",
"238 -24 OFFCURVE",
"270 3 CURVE",
"237 10 LINE",
"204 -17 OFFCURVE",
"125 -92 OFFCURVE",
"125 -144 CURVE SMOOTH",
"125 -176 OFFCURVE",
"144 -198 OFFCURVE",
"187 -198 CURVE SMOOTH"
);
}
);
width = 412;
},
{
layerId = "7271F2A9-EB19-499E-973E-7497F9144823";
paths = (
{
closed = 1;
nodes = (
"299 -214 OFFCURVE",
"356 -203 OFFCURVE",
"356 -203 CURVE",
"369 -93 LINE {\nname = hr00;\n}",
"369 -93 OFFCURVE",
"339 -96 OFFCURVE",
"332 -96 CURVE SMOOTH",
"322 -96 OFFCURVE",
"319 -89 OFFCURVE",
"319 -82 CURVE SMOOTH",
"319 -58 OFFCURVE",
"370 -9 OFFCURVE",
"393 5 CURVE",
"285 15 LINE",
"250 -9 OFFCURVE",
"175 -76 OFFCURVE",
"175 -137 CURVE SMOOTH",
"175 -188 OFFCURVE",
"207 -214 OFFCURVE",
"258 -214 CURVE SMOOTH"
);
}
);
width = 450;
}
);
unicode = 02DB;
},
{
glyphname = Iogonek;
lastChange = "2017-11-12 23:25:22 +0000";
layers = (
{
layerId = "B420756C-160B-4E3B-8A8F-018354DD19AA";
paths = (
{
closed = 1;
nodes = (
"122 0 LINE",
"284 700 LINE",
"248 700 LINE",
"86 0 LINE {\nname = hr00;\n}"
);
},
{
closed = 1;
nodes = (
"63 -198 OFFCURVE",
"99 -190 OFFCURVE",
"99 -190 CURVE",
"103 -158 LINE {\nname = hr01;\n}",
"103 -158 OFFCURVE",
"66 -165 OFFCURVE",
"47 -165 CURVE SMOOTH",
"27 -165 OFFCURVE",
"15 -157 OFFCURVE",
"15 -141 CURVE SMOOTH",
"15 -97 OFFCURVE",
"88 -27 OFFCURVE",
"122 0 CURVE",
"89 10 LINE",
"56 -17 OFFCURVE",
"-25 -92 OFFCURVE",
"-25 -144 CURVE SMOOTH",
"-25 -176 OFFCURVE",
"-6 -198 OFFCURVE",
"37 -198 CURVE SMOOTH"
);
}
);
width = 208;
},
{
layerId = "7271F2A9-EB19-499E-973E-7497F9144823";
paths = (
{
closed = 1;
nodes = (
"203 0 LINE",
"360 680 LINE",
"222 680 LINE",
"65 0 LINE {\nname = hr00;\n}"
);
},
{
closed = 1;
nodes = (
"105 -214 OFFCURVE",
"162 -203 OFFCURVE",
"162 -203 CURVE",
"175 -93 LINE {\nname = hr01;\n}",
"175 -93 OFFCURVE",
"145 -96 OFFCURVE",
"138 -96 CURVE SMOOTH",
"128 -96 OFFCURVE",
"125 -89 OFFCURVE",
"125 -82 CURVE SMOOTH",
"125 -58 OFFCURVE",
"170 -14 OFFCURVE",
"203 0 CURVE",
"91 15 LINE",
"56 -9 OFFCURVE",
"-19 -76 OFFCURVE",
"-19 -137 CURVE SMOOTH",
"-19 -188 OFFCURVE",
"13 -214 OFFCURVE",
"64 -214 CURVE SMOOTH"
);
}
);
width = 268;
}
);
leftKerningGroup = I;
rightKerningGroup = I;
unicode = 012E;
},
{
glyphname = Dcroat;
lastChange = "2017-11-12 23:25:22 +0000";
layers = (
{
components = (
{
name = D;
transform = "{1, 0, 0, 1, 2, 0}";
}
);
layerId = "B420756C-160B-4E3B-8A8F-018354DD19AA";
paths = (
{
closed = 1;
nodes = (
"363 332 LINE",
"372 370 LINE",
"96 370 LINE",
"89 332 LINE {\nname = hr00;\n}"
);
}
);
width = 610;
},
{
components = (
{
name = D;
transform = "{1, 0, 0, 1, 8, 0}";
}
);
layerId = "7271F2A9-EB19-499E-973E-7497F9144823";
paths = (
{
closed = 1;
nodes = (
"384 275 LINE",
"414 411 LINE",
"111 411 LINE",
"82 275 LINE {\nname = hr00;\n}"
);
}
);
width = 613;
}
);
leftKerningGroup = I;
rightKerningGroup = D;
unicode = 0110;
},
{
glyphname = Oslashacute;
lastChange = "2017-11-12 23:25:22 +0000";
layers = (
{
components = (
{
name = O;
transform = "{1, 0, 0, 1, 1, 0}";
}
);
layerId = "B420756C-160B-4E3B-8A8F-018354DD19AA";
paths = (
{
closed = 1;
nodes = (
"410 332 LINE",
"713 777 LINE",
"683 791 LINE",
"381 348 LINE",
"80 -94 LINE",
"107 -110 LINE"
);
},
{
closed = 1;
nodes = (
"647 885 LINE",
"637 919 LINE",
"433 823 LINE",
"442 793 LINE"
);
}
);
width = 638;
},
{
components = (
{
name = O;
transform = "{1, 0, 0, 1, 1, 0}";
}
);
layerId = "7271F2A9-EB19-499E-973E-7497F9144823";
paths = (
{
closed = 1;
nodes = (
"424 325 LINE",
"729 774 LINE",
"655 805 LINE",
"354 363 LINE",
"54 -81 LINE",
"120 -121 LINE"
);
},
{
closed = 1;
nodes = (
"652 832 LINE",
"641 962 LINE",
"377 871 LINE",
"388 755 LINE"
);
}
);
width = 617;
}
);
leftKerningGroup = O;
rightKerningGroup = O;
unicode = 01FE;
},
{
glyphname = currency;
lastChange = "2017-11-12 23:25:22 +0000";
layers = (
{
layerId = "B420756C-160B-4E3B-8A8F-018354DD19AA";
paths = (
{
closed = 1;
nodes = (
"283 65 OFFCURVE",
"391 65 OFFCURVE",
"457 132 CURVE SMOOTH",
"524 198 OFFCURVE",
"524 306 OFFCURVE",
"457 372 CURVE SMOOTH",
"391 439 OFFCURVE",
"283 439 OFFCURVE",
"217 372 CURVE SMOOTH",
"150 306 OFFCURVE",
"150 198 OFFCURVE",
"217 132 CURVE SMOOTH"
);
},
{
closed = 1;
nodes = (
"254 144 LINE",
"229 169 LINE",
"134 75 LINE",
"160 49 LINE"
);
},
{
closed = 1;
nodes = (
"191 209 OFFCURVE",
"191 295 OFFCURVE",
"242 347 CURVE SMOOTH",
"294 398 OFFCURVE",
"380 398 OFFCURVE",
"432 347 CURVE SMOOTH",
"483 295 OFFCURVE",
"483 209 OFFCURVE",
"432 157 CURVE SMOOTH",
"380 106 OFFCURVE",
"294 106 OFFCURVE",
"242 157 CURVE SMOOTH"
);
},
{
closed = 1;
nodes = (
"254 360 LINE",
"160 455 LINE",
"134 429 LINE",
"229 335 LINE"
);
},
{
closed = 1;
nodes = (
"540 75 LINE",
"445 169 LINE",
"420 144 LINE",
"514 49 LINE"
);
},
{
closed = 1;
nodes = (
"540 429 LINE",
"514 455 LINE",
"420 360 LINE",
"445 335 LINE"
);
}
);
width = 560;
},
{
layerId = "7271F2A9-EB19-499E-973E-7497F9144823";
paths = (
{
closed = 1;
nodes = (
"277 37 OFFCURVE",
"401 37 OFFCURVE",
"478 113 CURVE SMOOTH",
"554 190 OFFCURVE",
"554 314 OFFCURVE",
"478 391 CURVE SMOOTH",
"401 467 OFFCURVE",
"277 467 OFFCURVE",
"200 391 CURVE SMOOTH",
"124 314 OFFCURVE",
"124 190 OFFCURVE",
"200 113 CURVE SMOOTH"
);
},
{
closed = 1;
nodes = (
"290 111 LINE",
"198 203 LINE",
"89 94 LINE",
"181 2 LINE"
);
},
{
closed = 1;
nodes = (
"257 228 OFFCURVE",
"257 276 OFFCURVE",
"286 305 CURVE SMOOTH",
"315 334 OFFCURVE",
"363 334 OFFCURVE",
"392 305 CURVE SMOOTH",
"421 276 OFFCURVE",
"421 228 OFFCURVE",
"392 199 CURVE SMOOTH",
"363 170 OFFCURVE",
"315 170 OFFCURVE",
"286 199 CURVE SMOOTH"
);
},
{
closed = 1;
nodes = (
"290 393 LINE",
"181 502 LINE",
"89 410 LINE",
"198 301 LINE"
);
},
{
closed = 1;
nodes = (
"589 94 LINE",
"480 203 LINE",
"388 111 LINE",
"497 2 LINE"
);
},
{
closed = 1;
nodes = (
"589 410 LINE",
"497 502 LINE",
"388 393 LINE",
"480 301 LINE"
);
}
);
width = 560;
}
);
unicode = 00A4;
},
{
glyphname = logicalnot;
lastChange = "2017-11-12 23:25:22 +0000";
layers = (
{
layerId = "B420756C-160B-4E3B-8A8F-018354DD19AA";
paths = (
{
closed = 1;
nodes = (
"552 126 LINE",
"552 332 LINE",
"130 332 LINE {\nname = hr00;\n}",
"130 298 LINE",
"516 298 LINE",
"516 126 LINE"
);
}
);
width = 560;
},
{
layerId = "7271F2A9-EB19-499E-973E-7497F9144823";
paths = (
{
closed = 1;
nodes = (
"549 104 LINE",
"549 358 LINE",
"113 358 LINE {\nname = hr00;\n}",
"113 238 LINE",
"429 238 LINE",
"429 104 LINE"
);
}
);
width = 560;
}
);
unicode = 00AC;
},
{
glyphname = infinity;
lastChange = "2017-11-12 23:25:22 +0000";
layers = (
{
layerId = "B420756C-160B-4E3B-8A8F-018354DD19AA";
paths = (
{
closed = 1;
nodes = (
"559 121 OFFCURVE",
"595 187 OFFCURVE",
"595 292 CURVE SMOOTH",
"595 397 OFFCURVE",
"559 463 OFFCURVE",
"481 463 CURVE SMOOTH",
"393 463 OFFCURVE",
"365 390 OFFCURVE",
"332 292 CURVE",
"365 195 OFFCURVE",
"393 121 OFFCURVE",
"479 121 CURVE SMOOTH"
);
},
{
closed = 1;
nodes = (
"301 121 OFFCURVE",
"319 158 OFFCURVE",
"362 292 CURVE {\nname = hr00;\n}",
"329 390 OFFCURVE",
"301 463 OFFCURVE",
"213 463 CURVE SMOOTH",
"135 463 OFFCURVE",
"99 397 OFFCURVE",
"99 292 CURVE SMOOTH",
"99 187 OFFCURVE",
"135 121 OFFCURVE",
"215 121 CURVE SMOOTH"
);
},
{
closed = 1;
nodes = (
"159 156 OFFCURVE",
"137 214 OFFCURVE",
"137 292 CURVE SMOOTH",
"137 380 OFFCURVE",
"158 428 OFFCURVE",
"214 428 CURVE SMOOTH",
"288 428 OFFCURVE",
"305 355 OFFCURVE",
"332 292 CURVE",
"294 193 OFFCURVE",
"288 156 OFFCURVE",
"214 156 CURVE SMOOTH"
);
},
{
closed = 1;
nodes = (
"406 156 OFFCURVE",
"389 229 OFFCURVE",
"362 292 CURVE",
"389 355 OFFCURVE",
"406 428 OFFCURVE",
"480 428 CURVE SMOOTH",
"536 428 OFFCURVE",
"557 380 OFFCURVE",
"557 292 CURVE SMOOTH",
"557 204 OFFCURVE",
"535 156 OFFCURVE",
"480 156 CURVE SMOOTH"
);
}
);
width = 560;
},
{
layerId = "7271F2A9-EB19-499E-973E-7497F9144823";
paths = (
{
closed = 1;
nodes = (
"551 121 OFFCURVE",
"600 177 OFFCURVE",
"600 292 CURVE SMOOTH",
"600 407 OFFCURVE",
"551 463 OFFCURVE",
"463 463 CURVE SMOOTH",
"395 463 OFFCURVE",
"350 426 OFFCURVE",
"312 292 CURVE",
"350 158 OFFCURVE",
"395 121 OFFCURVE",
"461 121 CURVE SMOOTH"
);
},
{
closed = 1;
nodes = (
"299 121 OFFCURVE",
"344 158 OFFCURVE",
"382 292 CURVE {\nname = hr00;\n}",
"344 426 OFFCURVE",
"299 463 OFFCURVE",
"231 463 CURVE SMOOTH",
"143 463 OFFCURVE",
"94 407 OFFCURVE",
"94 291 CURVE SMOOTH",
"94 177 OFFCURVE",
"143 121 OFFCURVE",
"233 121 CURVE SMOOTH"
);
},
{
closed = 1;
nodes = (
"225 236 OFFCURVE",
"216 259 OFFCURVE",
"216 291 CURVE SMOOTH",
"216 325 OFFCURVE",
"224 348 OFFCURVE",
"252 348 CURVE SMOOTH",
"271 348 OFFCURVE",
"285 326 OFFCURVE",
"302 292 CURVE",
"285 260 OFFCURVE",
"271 236 OFFCURVE",
"252 236 CURVE SMOOTH"
);
},
{
closed = 1;
nodes = (
"423 236 OFFCURVE",
"409 260 OFFCURVE",
"392 292 CURVE",
"409 326 OFFCURVE",
"423 348 OFFCURVE",
"442 348 CURVE SMOOTH",
"470 348 OFFCURVE",
"478 325 OFFCURVE",
"478 291 CURVE SMOOTH",
"478 259 OFFCURVE",
"469 236 OFFCURVE",
"442 236 CURVE SMOOTH"
);
}
);
width = 560;
}
);
unicode = 221E;
userData = {
"- Fatto in thin\\012- Fatto in bold  com.typemytype.robofont.guides" = (
{
angle = 0;
isGlobal = 0;
magnetic = 5;
x = 0;
y = 292;
}
);
};
},
{
glyphname = integral;
lastChange = "2017-11-12 23:25:22 +0000";
layers = (
{
layerId = "B420756C-160B-4E3B-8A8F-018354DD19AA";
paths = (
{
closed = 1;
nodes = (
"329 -179 OFFCURVE",
"365 -134 OFFCURVE",
"365 0 CURVE {\nname = hr00;\n}",
"365 564 LINE",
"365 704 OFFCURVE",
"400 746 OFFCURVE",
"457 746 CURVE SMOOTH",
"497 746 OFFCURVE",
"538 741 OFFCURVE",
"538 741 CURVE",
"540 773 LINE",
"540 773 OFFCURVE",
"502 779 OFFCURVE",
"457 779 CURVE SMOOTH",
"377 779 OFFCURVE",
"330 727 OFFCURVE",
"330 564 CURVE SMOOTH",
"330 0 LINE",
"330 -110 OFFCURVE",
"305 -146 OFFCURVE",
"238 -146 CURVE SMOOTH",
"206 -146 OFFCURVE",
"158 -141 OFFCURVE",
"158 -141 CURVE",
"156 -174 LINE",
"156 -174 OFFCURVE",
"203 -179 OFFCURVE",
"238 -179 CURVE SMOOTH"
);
}
);
width = 560;
},
{
layerId = "7271F2A9-EB19-499E-973E-7497F9144823";
paths = (
{
closed = 1;
nodes = (
"349 -199 OFFCURVE",
"416 -158 OFFCURVE",
"416 -16 CURVE {\nname = hr00;\n}",
"416 592 LINE",
"416 642 OFFCURVE",
"426 661 OFFCURVE",
"464 661 CURVE SMOOTH",
"496 661 OFFCURVE",
"528 657 OFFCURVE",
"528 657 CURVE",
"532 767 LINE",
"532 767 OFFCURVE",
"465 781 OFFCURVE",
"427 781 CURVE SMOOTH",
"317 781 OFFCURVE",
"278 736 OFFCURVE",
"278 593 CURVE SMOOTH",
"278 -13 LINE",
"278 -63 OFFCURVE",
"265 -79 OFFCURVE",
"227 -79 CURVE SMOOTH",
"199 -79 OFFCURVE",
"174 -76 OFFCURVE",
"174 -76 CURVE",
"170 -186 LINE",
"170 -186 OFFCURVE",
"228 -199 OFFCURVE",
"267 -199 CURVE SMOOTH"
);
}
);
width = 560;
}
);
unicode = 222B;
},
{
glyphname = partialdiff;
lastChange = "2017-11-12 23:25:22 +0000";
layers = (
{
layerId = "B420756C-160B-4E3B-8A8F-018354DD19AA";
paths = (
{
closed = 1;
nodes = (
"509 -9 OFFCURVE",
"572 116 OFFCURVE",
"572 371 CURVE SMOOTH",
"572 638 OFFCURVE",
"498 739 OFFCURVE",
"352 739 CURVE SMOOTH",
"267 739 OFFCURVE",
"182 685 OFFCURVE",
"182 685 CURVE {\nname = hr00;\n}",
"186 653 LINE",
"186 653 OFFCURVE",
"274 705 OFFCURVE",
"346 705 CURVE SMOOTH",
"479 705 OFFCURVE",
"532 608 OFFCURVE",
"535 391 CURVE",
"535 391 OFFCURVE",
"434 425 OFFCURVE",
"346 425 CURVE SMOOTH",
"220 425 OFFCURVE",
"142 340 OFFCURVE",
"142 214 CURVE SMOOTH",
"142 62 OFFCURVE",
"215 -9 OFFCURVE",
"357 -9 CURVE SMOOTH"
);
},
{
closed = 1;
nodes = (
"242 25 OFFCURVE",
"178 92 OFFCURVE",
"178 214 CURVE SMOOTH",
"178 318 OFFCURVE",
"241 391 OFFCURVE",
"348 391 CURVE SMOOTH",
"429 391 OFFCURVE",
"536 356 OFFCURVE",
"536 356 CURVE",
"534 139 OFFCURVE",
"486 25 OFFCURVE",
"357 25 CURVE SMOOTH"
);
}
);
width = 560;
},
{
layerId = "7271F2A9-EB19-499E-973E-7497F9144823";
paths = (
{
closed = 1;
nodes = (
"526 -9 OFFCURVE",
"599 106 OFFCURVE",
"599 347 CURVE SMOOTH",
"599 593 OFFCURVE",
"526 712 OFFCURVE",
"343 712 CURVE SMOOTH",
"247 712 OFFCURVE",
"162 667 OFFCURVE",
"162 667 CURVE {\nname = hr00;\n}",
"166 564 LINE",
"166 564 OFFCURVE",
"247 598 OFFCURVE",
"320 598 CURVE SMOOTH",
"420 598 OFFCURVE",
"447 550 OFFCURVE",
"455 414 CURVE",
"455 414 OFFCURVE",
"396 438 OFFCURVE",
"328 438 CURVE SMOOTH",
"188 438 OFFCURVE",
"109 358 OFFCURVE",
"109 216 CURVE SMOOTH",
"109 64 OFFCURVE",
"191 -9 OFFCURVE",
"344 -9 CURVE SMOOTH"
);
},
{
closed = 1;
nodes = (
"277 105 OFFCURVE",
"253 148 OFFCURVE",
"253 216 CURVE SMOOTH",
"253 278 OFFCURVE",
"276 324 OFFCURVE",
"345 324 CURVE SMOOTH",
"417 324 OFFCURVE",
"455 302 OFFCURVE",
"455 302 CURVE",
"455 160 OFFCURVE",
"416 105 OFFCURVE",
"344 105 CURVE SMOOTH"
);
}
);
width = 560;
}
);
unicode = 2202;
},
{
glyphname = Omega;
lastChange = "2017-11-12 23:25:22 +0000";
layers = (
{
layerId = "B420756C-160B-4E3B-8A8F-018354DD19AA";
paths = (
{
closed = 1;
nodes = (
"277 -9 LINE",
"277 20 LINE",
"277 20 OFFCURVE",
"156 258 OFFCURVE",
"156 360 CURVE SMOOTH",
"156 540 OFFCURVE",
"176 636 OFFCURVE",
"327 636 CURVE SMOOTH",
"476 636 OFFCURVE",
"498 540 OFFCURVE",
"498 360 CURVE SMOOTH",
"498 258 OFFCURVE",
"377 20 OFFCURVE",
"377 20 CURVE",
"377 -9 LINE",
"566 -9 LINE",
"566 25 LINE",
"416 25 LINE",
"416 25 OFFCURVE",
"536 250 OFFCURVE",
"536 370 CURVE SMOOTH",
"536 564 OFFCURVE",
"500 670 OFFCURVE",
"327 670 CURVE SMOOTH",
"154 670 OFFCURVE",
"118 564 OFFCURVE",
"118 370 CURVE SMOOTH",
"118 250 OFFCURVE",
"237 25 OFFCURVE",
"237 25 CURVE",
"88 25 LINE {\nname = hr00;\n}",
"88 -9 LINE"
);
}
);
width = 560;
},
{
layerId = "7271F2A9-EB19-499E-973E-7497F9144823";
paths = (
{
closed = 1;
nodes = (
"323 -9 LINE",
"323 90 LINE",
"323 90 OFFCURVE",
"245 225 OFFCURVE",
"245 350 CURVE SMOOTH",
"245 496 OFFCURVE",
"258 552 OFFCURVE",
"343 552 CURVE SMOOTH",
"428 552 OFFCURVE",
"441 496 OFFCURVE",
"441 350 CURVE SMOOTH",
"441 225 OFFCURVE",
"363 90 OFFCURVE",
"363 90 CURVE",
"363 -9 LINE",
"571 -9 LINE",
"571 105 LINE",
"491 105 LINE",
"491 105 OFFCURVE",
"583 213 OFFCURVE",
"583 385 CURVE SMOOTH",
"583 584 OFFCURVE",
"516 672 OFFCURVE",
"343 672 CURVE SMOOTH",
"170 672 OFFCURVE",
"103 584 OFFCURVE",
"103 385 CURVE SMOOTH",
"103 213 OFFCURVE",
"195 105 OFFCURVE",
"195 105 CURVE",
"115 105 LINE {\nname = hr00;\n}",
"115 -9 LINE"
);
}
);
width = 560;
}
);
unicode = 2126;
userData = {
"[LA] THIN-BOLD omega ricostruito su base del dic sans e sull'altezza dei numeri  com.typemytype.robofont.guides" = (
{
angle = 0;
isGlobal = 0;
magnetic = 5;
x = 0;
y = 310;
},
{
angle = 0;
isGlobal = 0;
magnetic = 5;
x = 0;
y = 34;
},
{
angle = 0;
isGlobal = 0;
magnetic = 5;
x = 0;
y = 500;
},
{
angle = 0;
isGlobal = 0;
magnetic = 5;
x = 0;
y = 514;
},
{
angle = 0;
isGlobal = 0;
magnetic = 5;
x = 0;
y = 145;
},
{
angle = 0;
isGlobal = 0;
magnetic = 5;
x = 0;
y = 133;
},
{
angle = 0;
isGlobal = 0;
magnetic = 5;
x = 0;
y = -9;
},
{
angle = 90;
isGlobal = 0;
magnetic = 5;
x = 275;
y = 0;
}
);
};
},
{
glyphname = zero.slash;
lastChange = "2017-11-12 23:25:22 +0000";
layers = (
{
layerId = "B420756C-160B-4E3B-8A8F-018354DD19AA";
paths = (
{
closed = 1;
nodes = (
"648 786 LINE",
"618 798 LINE",
"35 -104 LINE",
"64 -115 LINE"
);
},
{
closed = 1;
nodes = (
"500 -9 OFFCURVE",
"606 248 OFFCURVE",
"606 475 CURVE SMOOTH",
"606 601 OFFCURVE",
"541 670 OFFCURVE",
"416 670 CURVE SMOOTH {\nname = hr01;\n}",
"201 670 OFFCURVE",
"106 388 OFFCURVE",
"106 180 CURVE SMOOTH",
"106 58 OFFCURVE",
"175 -9 OFFCURVE",
"292 -9 CURVE SMOOTH"
);
},
{
closed = 1;
nodes = (
"202 25 OFFCURVE",
"143 79 OFFCURVE",
"143 183 CURVE SMOOTH",
"143 372 OFFCURVE",
"223 636 OFFCURVE",
"416 636 CURVE SMOOTH",
"515 636 OFFCURVE",
"569 574 OFFCURVE",
"569 475 CURVE SMOOTH",
"569 272 OFFCURVE",
"479 25 OFFCURVE",
"292 25 CURVE SMOOTH"
);
}
);
width = 560;
},
{
layerId = "7271F2A9-EB19-499E-973E-7497F9144823";
paths = (
{
closed = 1;
nodes = (
"695 767 LINE",
"611 799 LINE",
"30 -93 LINE",
"111 -123 LINE"
);
},
{
closed = 1;
nodes = (
"537 -12 OFFCURVE",
"626 228 OFFCURVE",
"626 458 CURVE SMOOTH",
"626 603 OFFCURVE",
"545 672 OFFCURVE",
"411 672 CURVE SMOOTH {\nname = hr01;\n}",
"237 672 OFFCURVE",
"87 505 OFFCURVE",
"87 208 CURVE SMOOTH",
"87 76 OFFCURVE",
"175 -12 OFFCURVE",
"298 -12 CURVE SMOOTH"
);
},
{
closed = 1;
nodes = (
"264 115 OFFCURVE",
"236 159 OFFCURVE",
"236 221 CURVE SMOOTH",
"236 376 OFFCURVE",
"287 545 OFFCURVE",
"397 545 CURVE SMOOTH",
"448 545 OFFCURVE",
"476 518 OFFCURVE",
"476 437 CURVE SMOOTH",
"476 300 OFFCURVE",
"425 115 OFFCURVE",
"313 115 CURVE SMOOTH"
);
}
);
width = 560;
}
);
},
{
glyphname = eng;
lastChange = "2017-11-12 23:25:22 +0000";
layers = (
{
layerId = "B420756C-160B-4E3B-8A8F-018354DD19AA";
paths = (
{
closed = 1;
nodes = (
"348 -161 OFFCURVE",
"387 -122 OFFCURVE",
"414 -5 CURVE",
"475 258 LINE SMOOTH",
"486 304 OFFCURVE",
"499 361 OFFCURVE",
"499 394 CURVE SMOOTH",
"499 481 OFFCURVE",
"466 509 OFFCURVE",
"380 509 CURVE SMOOTH",
"311 509 OFFCURVE",
"237 455 OFFCURVE",
"204 423 CURVE",
"224 500 LINE",
"190 500 LINE",
"73 0 LINE",
"106 0 LINE",
"196 385 LINE",
"196 385 OFFCURVE",
"288 473 OFFCURVE",
"373 473 CURVE SMOOTH",
"439 473 OFFCURVE",
"465 451 OFFCURVE",
"465 394 CURVE SMOOTH",
"465 361 OFFCURVE",
"456 315 OFFCURVE",
"443 258 CURVE",
"387 20 LINE SMOOTH",
"359 -98 OFFCURVE",
"328 -131 OFFCURVE",
"215 -193 CURVE",
"221 -228 LINE"
);
}
);
width = 485;
},
{
layerId = "7271F2A9-EB19-499E-973E-7497F9144823";
paths = (
{
closed = 1;
nodes = (
"378 -180 OFFCURVE",
"421 -125 OFFCURVE",
"453 7 CURVE",
"514 261 LINE SMOOTH",
"526 313 OFFCURVE",
"537 366 OFFCURVE",
"527 422 CURVE SMOOTH",
"517 478 OFFCURVE",
"480 511 OFFCURVE",
"411 511 CURVE SMOOTH",
"362 511 OFFCURVE",
"315 475 OFFCURVE",
"285 452 CURVE",
"297 499 LINE",
"170 499 LINE",
"52 0 LINE",
"179 0 LINE",
"259 342 LINE",
"259 342 OFFCURVE",
"324 386 OFFCURVE",
"355 386 CURVE SMOOTH",
"382 386 OFFCURVE",
"394 371 OFFCURVE",
"397 349 CURVE SMOOTH",
"400 325 OFFCURVE",
"396 293 OFFCURVE",
"388 261 CURVE",
"326 2 LINE SMOOTH",
"310 -66 OFFCURVE",
"295 -81 OFFCURVE",
"194 -132 CURVE",
"226 -246 LINE"
);
}
);
width = 502;
}
);
leftKerningGroup = n;
rightKerningGroup = n;
unicode = 014B;
},
{
glyphname = Eng;
lastChange = "2017-11-12 23:25:22 +0000";
layers = (
{
layerId = "B420756C-160B-4E3B-8A8F-018354DD19AA";
paths = (
{
closed = 1;
nodes = (
"121 0 LINE",
"275 667 LINE",
"300 667 LINE",
"450 0 LINE",
"531 0 LINE",
"693 700 LINE",
"658 700 LINE",
"504 33 LINE",
"480 33 LINE",
"331 700 LINE",
"248 700 LINE",
"86 0 LINE"
);
},
{
closed = 1;
nodes = (
"484 -171 OFFCURVE",
"500 -138 OFFCURVE",
"533 7 CURVE SMOOTH",
"669 600 LINE",
"635 600 LINE",
"500 16 LINE",
"470 -115 OFFCURVE",
"454 -138 OFFCURVE",
"352 -138 CURVE",
"346 -171 LINE"
);
}
);
width = 617;
},
{
layerId = "7271F2A9-EB19-499E-973E-7497F9144823";
paths = (
{
closed = 1;
nodes = (
"195 0 LINE",
"322 543 LINE",
"334 543 LINE",
"378 0 LINE",
"586 0 LINE",
"743 680 LINE",
"610 680 LINE",
"489 147 LINE",
"477 147 LINE",
"441 680 LINE",
"222 680 LINE",
"65 0 LINE"
);
},
{
closed = 1;
nodes = (
"516 -210 OFFCURVE",
"543 -188 OFFCURVE",
"585 -6 CURVE SMOOTH",
"711 539 LINE",
"579 539 LINE",
"453 -6 LINE",
"435 -84 OFFCURVE",
"421 -88 OFFCURVE",
"368 -90 CURVE",
"345 -210 LINE"
);
}
);
width = 651;
}
);
leftKerningGroup = I;
rightKerningGroup = I;
unicode = 014A;
},
{
glyphname = lessequal;
lastChange = "2017-11-12 23:25:22 +0000";
layers = (
{
layerId = "B420756C-160B-4E3B-8A8F-018354DD19AA";
paths = (
{
closed = 1;
nodes = (
"533 161 LINE",
"155 309 LINE",
"533 446 LINE {\nname = hr00;\n}",
"533 485 LINE",
"109 326 LINE",
"109 290 LINE",
"533 122 LINE"
);
},
{
closed = 1;
nodes = (
"533 24 LINE",
"533 58 LINE",
"109 58 LINE",
"109 24 LINE"
);
}
);
width = 560;
},
{
layerId = "7271F2A9-EB19-499E-973E-7497F9144823";
paths = (
{
closed = 1;
nodes = (
"539 283 LINE",
"267 337 LINE",
"539 386 LINE {\nname = hr00;\n}",
"539 516 LINE",
"118 390 LINE",
"118 274 LINE",
"539 153 LINE"
);
},
{
closed = 1;
nodes = (
"539 19 LINE",
"539 139 LINE",
"118 139 LINE",
"118 19 LINE"
);
}
);
width = 560;
}
);
unicode = 2264;
},
{
glyphname = dcaron;
lastChange = "2017-11-12 23:25:22 +0000";
layers = (
{
components = (
{
name = d;
}
);
layerId = "B420756C-160B-4E3B-8A8F-018354DD19AA";
paths = (
{
closed = 1;
nodes = (
"615 480 LINE",
"666 700 LINE {\nname = hr00;\n}",
"634 700 LINE",
"583 480 LINE"
);
}
);
width = 494;
},
{
components = (
{
name = d;
}
);
layerId = "7271F2A9-EB19-499E-973E-7497F9144823";
paths = (
{
closed = 1;
nodes = (
"744 429 LINE",
"804 680 LINE {\nname = hr00;\n}",
"682 680 LINE",
"621 429 LINE"
);
}
);
width = 637;
}
);
leftKerningGroup = a;
rightKerningGroup = lcaron;
unicode = 010F;
},
{
glyphname = aringacute;
lastChange = "2017-11-12 23:25:22 +0000";
layers = (
{
components = (
{
name = a;
},
{
name = ring;
transform = "{1, 0, 0, 1, -19, 0}";
}
);
layerId = "B420756C-160B-4E3B-8A8F-018354DD19AA";
paths = (
{
closed = 1;
nodes = (
"536 865 LINE",
"529 900 LINE",
"326 805 LINE",
"332 775 LINE {\nname = hr00;\n}"
);
}
);
width = 482;
},
{
components = (
{
name = a;
},
{
name = ring;
transform = "{1, 0, 0, 1, 23, 0}";
}
);
layerId = "7271F2A9-EB19-499E-973E-7497F9144823";
paths = (
{
closed = 1;
nodes = (
"629 836 LINE",
"618 966 LINE",
"354 875 LINE",
"365 758 LINE {\nname = hr00;\n}"
);
}
);
width = 528;
}
);
leftKerningGroup = a;
rightKerningGroup = a;
unicode = 01FB;
},
{
glyphname = dcroat;
lastChange = "2017-11-12 23:25:22 +0000";
layers = (
{
components = (
{
name = d;
}
);
layerId = "B420756C-160B-4E3B-8A8F-018354DD19AA";
paths = (
{
closed = 1;
nodes = (
"606 617 LINE",
"615 653 LINE",
"362 653 LINE",
"354 617 LINE"
);
}
);
width = 481;
},
{
components = (
{
name = d;
}
);
layerId = "7271F2A9-EB19-499E-973E-7497F9144823";
paths = (
{
closed = 1;
nodes = (
"653 547 LINE",
"681 666 LINE",
"372 666 LINE",
"345 547 LINE"
);
}
);
width = 528;
}
);
leftKerningGroup = a;
rightKerningGroup = d;
unicode = 0111;
},
{
glyphname = tcaron;
lastChange = "2017-11-12 23:25:22 +0000";
layers = (
{
components = (
{
name = t;
}
);
layerId = "B420756C-160B-4E3B-8A8F-018354DD19AA";
paths = (
{
closed = 1;
nodes = (
"476 480 LINE",
"527 700 LINE {\nname = hr00;\n}",
"495 700 LINE",
"444 480 LINE"
);
}
);
width = 362;
},
{
components = (
{
name = t;
}
);
layerId = "7271F2A9-EB19-499E-973E-7497F9144823";
paths = (
{
closed = 1;
nodes = (
"571 429 LINE",
"631 680 LINE {\nname = hr00;\n}",
"509 680 LINE",
"448 429 LINE"
);
}
);
width = 464;
}
);
leftKerningGroup = t;
unicode = 0165;
},
{
glyphname = tbar;
lastChange = "2017-11-12 23:25:22 +0000";
layers = (
{
components = (
{
name = t;
transform = "{1, 0, 0, 1, 3, 0}";
}
);
layerId = "B420756C-160B-4E3B-8A8F-018354DD19AA";
paths = (
{
closed = 1;
nodes = (
"363 291 LINE",
"372 323 LINE",
"119 323 LINE",
"111 291 LINE {\nname = hr00;\n}"
);
}
);
width = 316;
},
{
components = (
{
name = t;
transform = "{1, 0, 0, 1, 2, 0}";
}
);
layerId = "7271F2A9-EB19-499E-973E-7497F9144823";
paths = (
{
closed = 1;
nodes = (
"344 200 LINE",
"369 316 LINE",
"91 316 LINE",
"66 200 LINE {\nname = hr00;\n}"
);
}
);
width = 332;
}
);
leftKerningGroup = t;
rightKerningGroup = t;
unicode = 0167;
},
{
glyphname = Hbar;
lastChange = "2017-11-12 23:25:58 +0000";
layers = (
{
layerId = "B420756C-160B-4E3B-8A8F-018354DD19AA";
paths = (
{
closed = 1;
nodes = (
"130 0 LINE",
"207 334 LINE",
"593 334 LINE",
"516 0 LINE {\nname = hr00;\n}",
"550 0 LINE",
"711 700 LINE",
"677 700 LINE",
"601 370 LINE",
"215 370 LINE",
"291 700 LINE",
"257 700 LINE",
"96 0 LINE"
);
},
{
closed = 1;
nodes = (
"756 517 LINE",
"766 553 LINE",
"133 553 LINE",
"126 517 LINE {\nname = hr01;\n}"
);
}
);
width = 645;
},
{
layerId = "7271F2A9-EB19-499E-973E-7497F9144823";
paths = (
{
closed = 1;
nodes = (
"201 0 LINE",
"265 278 LINE",
"491 278 LINE",
"427 0 LINE {\nname = hr00;\n}",
"559 0 LINE",
"716 680 LINE",
"584 680 LINE",
"521 407 LINE",
"295 407 LINE",
"358 680 LINE",
"226 680 LINE",
"69 0 LINE"
);
},
{
closed = 1;
nodes = (
"731 481 LINE",
"761 600 LINE",
"143 600 LINE",
"115 484 LINE"
);
}
);
width = 628;
}
);
leftKerningGroup = I;
rightKerningGroup = I;
unicode = 0126;
},
{
glyphname = Tbar;
lastChange = "2017-11-12 23:25:22 +0000";
layers = (
{
components = (
{
name = T;
transform = "{1, 0, 0, 1, 2, 0}";
}
);
layerId = "B420756C-160B-4E3B-8A8F-018354DD19AA";
paths = (
{
closed = 1;
nodes = (
"503 327 LINE",
"514 363 LINE",
"134 363 LINE",
"125 327 LINE"
);
}
);
width = 482;
},
{
components = (
{
name = T;
transform = "{1, 0, 0, 1, 3, 0}";
}
);
layerId = "7271F2A9-EB19-499E-973E-7497F9144823";
paths = (
{
closed = 1;
nodes = (
"482 248 LINE",
"511 367 LINE",
"124 367 LINE",
"97 248 LINE"
);
}
);
width = 461;
}
);
leftKerningGroup = T;
rightKerningGroup = T;
unicode = 0166;
},
{
glyphname = commaaccent;
lastChange = "2017-11-12 23:25:22 +0000";
layers = (
{
layerId = "B420756C-160B-4E3B-8A8F-018354DD19AA";
paths = (
{
closed = 1;
nodes = (
"3 -265 LINE",
"91 -73 LINE",
"57 -73 LINE {\nname = hr00;\n}",
"-23 -265 LINE"
);
}
);
width = 161;
},
{
layerId = "7271F2A9-EB19-499E-973E-7497F9144823";
paths = (
{
closed = 1;
nodes = (
"36 -309 LINE",
"143 -72 LINE",
"20 -72 LINE {\nname = hr00;\n}",
"-77 -309 LINE"
);
}
);
width = 161;
}
);
unicode = F6C3;
},
{
glyphname = periodcentered.cap;
lastChange = "2017-11-12 23:25:22 +0000";
layers = (
{
layerId = "B420756C-160B-4E3B-8A8F-018354DD19AA";
paths = (
{
closed = 1;
nodes = (
"179 300 LINE",
"197 383 LINE",
"159 383 LINE",
"141 300 LINE {\nname = hr00;\n}"
);
}
);
width = 182;
},
{
layerId = "7271F2A9-EB19-499E-973E-7497F9144823";
paths = (
{
closed = 1;
nodes = (
"201 247 LINE",
"239 416 LINE",
"104 416 LINE",
"66 247 LINE {\nname = hr00;\n}"
);
}
);
width = 152;
}
);
},
{
glyphname = hyphen.cap;
lastChange = "2017-11-12 23:25:22 +0000";
layers = (
{
layerId = "B420756C-160B-4E3B-8A8F-018354DD19AA";
paths = (
{
closed = 1;
nodes = (
"377 282 LINE",
"386 317 LINE",
"142 317 LINE",
"134 282 LINE {\nname = hr00;\n}"
);
}
);
width = 382;
},
{
layerId = "7271F2A9-EB19-499E-973E-7497F9144823";
paths = (
{
closed = 1;
nodes = (
"313 235 LINE",
"343 355 LINE",
"90 355 LINE",
"60 235 LINE {\nname = hr00;\n}"
);
}
);
width = 267;
}
);
leftKerningGroup = hyphen.cap;
rightKerningGroup = hyphen.cap;
},
{
glyphname = v;
lastChange = "2017-11-12 23:25:22 +0000";
layers = (
{
layerId = "B420756C-160B-4E3B-8A8F-018354DD19AA";
paths = (
{
closed = 1;
nodes = (
"266 0 LINE",
"532 500 LINE",
"494 500 LINE",
"246 32 LINE",
"206 32 LINE",
"183 500 LINE",
"147 500 LINE {\nname = hr00;\n}",
"172 0 LINE"
);
}
);
width = 448;
},
{
layerId = "7271F2A9-EB19-499E-973E-7497F9144823";
paths = (
{
closed = 1;
nodes = (
"332 0 LINE",
"567 500 LINE",
"432 500 LINE",
"261 111 LINE",
"243 111 LINE",
"257 500 LINE",
"126 500 LINE {\nname = hr00;\n}",
"122 0 LINE"
);
}
);
width = 463;
}
);
unicode = 0076;
},
{
glyphname = e;
lastChange = "2017-11-12 23:25:22 +0000";
layers = (
{
layerId = "B420756C-160B-4E3B-8A8F-018354DD19AA";
paths = (
{
closed = 1;
nodes = (
"323 -9 OFFCURVE",
"409 21 OFFCURVE",
"409 21 CURVE",
"409 54 LINE",
"409 54 OFFCURVE",
"322 25 OFFCURVE",
"245 25 CURVE SMOOTH {\nname = hr00;\n}",
"177 25 OFFCURVE",
"134 65 OFFCURVE",
"134 138 CURVE SMOOTH",
"134 168 OFFCURVE",
"140 214 OFFCURVE",
"149 250 CURVE",
"212 250 LINE",
"396 250 OFFCURVE",
"494 288 OFFCURVE",
"494 406 CURVE SMOOTH",
"494 478 OFFCURVE",
"442 509 OFFCURVE",
"364 509 CURVE SMOOTH",
"181 509 OFFCURVE",
"97 298 OFFCURVE",
"97 131 CURVE SMOOTH",
"97 39 OFFCURVE",
"154 -9 OFFCURVE",
"237 -9 CURVE SMOOTH"
);
},
{
closed = 1;
nodes = (
"191 394 OFFCURVE",
"251 477 OFFCURVE",
"363 477 CURVE SMOOTH",
"424 477 OFFCURVE",
"458 457 OFFCURVE",
"458 405 CURVE SMOOTH",
"458 307 OFFCURVE",
"376 282 OFFCURVE",
"221 282 CURVE SMOOTH",
"156 282 LINE"
);
}
);
width = 452;
},
{
layerId = "7271F2A9-EB19-499E-973E-7497F9144823";
paths = (
{
closed = 1;
nodes = (
"346 -12 OFFCURVE",
"439 16 OFFCURVE",
"439 16 CURVE",
"454 115 LINE",
"454 115 OFFCURVE",
"356 102 OFFCURVE",
"288 102 CURVE SMOOTH {\nname = hr00;\n}",
"248 102 OFFCURVE",
"215 121 OFFCURVE",
"215 161 CURVE SMOOTH",
"215 173 OFFCURVE",
"216 187 OFFCURVE",
"218 195 CURVE",
"253 195 LINE",
"444 195 OFFCURVE",
"530 231 OFFCURVE",
"530 362 CURVE SMOOTH",
"530 469 OFFCURVE",
"462 511 OFFCURVE",
"355 511 CURVE SMOOTH",
"160 511 OFFCURVE",
"81 339 OFFCURVE",
"81 158 CURVE SMOOTH",
"81 41 OFFCURVE",
"135 -12 OFFCURVE",
"250 -12 CURVE SMOOTH"
);
},
{
closed = 1;
nodes = (
"250 366 OFFCURVE",
"289 403 OFFCURVE",
"348 403 CURVE SMOOTH",
"380 403 OFFCURVE",
"398 392 OFFCURVE",
"398 360 CURVE SMOOTH",
"398 313 OFFCURVE",
"368 294 OFFCURVE",
"274 294 CURVE SMOOTH",
"233 294 LINE"
);
}
);
width = 476;
}
);
leftKerningGroup = o;
rightKerningGroup = e;
unicode = 0065;
},
{
glyphname = p;
lastChange = "2017-11-12 23:25:22 +0000";
layers = (
{
layerId = "B420756C-160B-4E3B-8A8F-018354DD19AA";
paths = (
{
closed = 1;
nodes = (
"55 -230 LINE",
"110 8 LINE",
"110 8 OFFCURVE",
"184 -9 OFFCURVE",
"253 -9 CURVE SMOOTH",
"412 -9 OFFCURVE",
"501 217 OFFCURVE",
"501 377 CURVE SMOOTH",
"501 465 OFFCURVE",
"464 509 OFFCURVE",
"381 509 CURVE SMOOTH",
"287 509 OFFCURVE",
"197 386 OFFCURVE",
"197 386 CURVE",
"223 500 LINE",
"189 500 LINE",
"20 -230 LINE {\nname = hr00;\n}"
);
},
{
closed = 1;
nodes = (
"187 23 OFFCURVE",
"117 39 OFFCURVE",
"117 39 CURVE",
"184 328 LINE",
"184 328 OFFCURVE",
"292 476 OFFCURVE",
"374 476 CURVE SMOOTH",
"437 476 OFFCURVE",
"464 445 OFFCURVE",
"464 377 CURVE SMOOTH",
"464 242 OFFCURVE",
"392 23 OFFCURVE",
"253 23 CURVE SMOOTH"
);
}
);
width = 480;
},
{
layerId = "7271F2A9-EB19-499E-973E-7497F9144823";
paths = (
{
closed = 1;
nodes = (
"139 -210 LINE",
"190 10 LINE",
"190 10 OFFCURVE",
"264 -11 OFFCURVE",
"311 -11 CURVE SMOOTH",
"477 -11 OFFCURVE",
"563 173 OFFCURVE",
"563 342 CURVE SMOOTH",
"563 439 OFFCURVE",
"519 512 OFFCURVE",
"418 512 CURVE SMOOTH",
"352 512 OFFCURVE",
"291 448 OFFCURVE",
"291 448 CURVE",
"301 500 LINE",
"170 500 LINE",
"7 -210 LINE {\nname = hr00;\n}"
);
},
{
closed = 1;
nodes = (
"273 103 OFFCURVE",
"215 117 OFFCURVE",
"215 117 CURVE",
"263 326 LINE",
"263 326 OFFCURVE",
"339 398 OFFCURVE",
"376 398 CURVE SMOOTH",
"412 398 OFFCURVE",
"427 370 OFFCURVE",
"427 334 CURVE SMOOTH",
"427 243 OFFCURVE",
"386 103 OFFCURVE",
"311 103 CURVE SMOOTH"
);
}
);
width = 527;
}
);
leftKerningGroup = n;
rightKerningGroup = b;
unicode = 0070;
},
{
glyphname = q;
lastChange = "2017-11-12 23:25:22 +0000";
layers = (
{
layerId = "B420756C-160B-4E3B-8A8F-018354DD19AA";
paths = (
{
closed = 1;
nodes = (
"355 -220 LINE",
"519 489 LINE",
"519 489 OFFCURVE",
"411 509 OFFCURVE",
"342 509 CURVE SMOOTH",
"183 509 OFFCURVE",
"94 281 OFFCURVE",
"94 120 CURVE SMOOTH",
"94 39 OFFCURVE",
"132 -9 OFFCURVE",
"213 -9 CURVE SMOOTH {\nname = hr00;\n}",
"309 -9 OFFCURVE",
"397 113 OFFCURVE",
"397 113 CURVE",
"321 -220 LINE"
);
},
{
closed = 1;
nodes = (
"157 24 OFFCURVE",
"131 57 OFFCURVE",
"131 122 CURVE SMOOTH",
"131 266 OFFCURVE",
"207 477 OFFCURVE",
"342 477 CURVE SMOOTH",
"410 477 OFFCURVE",
"478 462 OFFCURVE",
"478 462 CURVE",
"411 171 LINE",
"411 171 OFFCURVE",
"304 24 OFFCURVE",
"222 24 CURVE SMOOTH"
);
}
);
width = 479;
},
{
layerId = "7271F2A9-EB19-499E-973E-7497F9144823";
paths = (
{
closed = 1;
nodes = (
"425 -210 LINE",
"583 478 LINE",
"583 478 OFFCURVE",
"417 511 OFFCURVE",
"332 511 CURVE SMOOTH",
"170 511 OFFCURVE",
"80 334 OFFCURVE",
"80 162 CURVE SMOOTH",
"80 54 OFFCURVE",
"129 -12 OFFCURVE",
"224 -12 CURVE SMOOTH {\nname = hr00;\n}",
"296 -12 OFFCURVE",
"352 53 OFFCURVE",
"352 53 CURVE",
"291 -210 LINE"
);
},
{
closed = 1;
nodes = (
"231 102 OFFCURVE",
"216 130 OFFCURVE",
"216 166 CURVE SMOOTH",
"216 265 OFFCURVE",
"261 397 OFFCURVE",
"331 397 CURVE SMOOTH",
"369 397 OFFCURVE",
"428 383 OFFCURVE",
"428 383 CURVE",
"380 174 LINE",
"380 174 OFFCURVE",
"304 102 OFFCURVE",
"267 102 CURVE SMOOTH"
);
}
);
width = 526;
}
);
leftKerningGroup = a;
rightKerningGroup = u;
unicode = 0071;
},
{
glyphname = f;
lastChange = "2017-11-12 23:25:22 +0000";
layers = (
{
layerId = "B420756C-160B-4E3B-8A8F-018354DD19AA";
paths = (
{
closed = 1;
nodes = (
"66 -230 LINE",
"125 0 LINE",
"234 468 LINE {\nname = hr00;\n}",
"385 468 LINE",
"394 500 LINE",
"240 500 LINE",
"254 557 LINE",
"281 665 OFFCURVE",
"309 707 OFFCURVE",
"374 707 CURVE SMOOTH",
"408 707 OFFCURVE",
"450 700 OFFCURVE",
"450 700 CURVE",
"458 731 LINE",
"458 731 OFFCURVE",
"414 739 OFFCURVE",
"381 739 CURVE SMOOTH",
"296 739 OFFCURVE",
"250.583 692.1 OFFCURVE",
"219 559 CURVE SMOOTH",
"205 500 LINE",
"142 500 LINE",
"134 468 LINE",
"198 468 LINE",
"37 -230 LINE"
);
}
);
width = 297;
},
{
layerId = "7271F2A9-EB19-499E-973E-7497F9144823";
paths = (
{
closed = 1;
nodes = (
"147 -211 LINE",
"210 0 LINE",
"300 386 LINE {\nname = hr00;\n}",
"402 386 LINE",
"430 500 LINE",
"325 500 LINE",
"330 519 LINE",
"340 560 OFFCURVE",
"350 598 OFFCURVE",
"384 598 CURVE SMOOTH",
"414 598 OFFCURVE",
"449 591 OFFCURVE",
"449 591 CURVE",
"473 689 LINE",
"473 689 OFFCURVE",
"424 712 OFFCURVE",
"378 712 CURVE SMOOTH",
"267 712 OFFCURVE",
"229.594 654.378 OFFCURVE",
"196 520 CURVE SMOOTH",
"191 500 LINE",
"148 500 LINE",
"120 384 LINE",
"166 384 LINE",
"26 -211 LINE"
);
}
);
width = 328;
}
);
unicode = 0066;
},
{
glyphname = i;
lastChange = "2017-11-12 23:25:22 +0000";
layers = (
{
layerId = "B420756C-160B-4E3B-8A8F-018354DD19AA";
paths = (
{
closed = 1;
nodes = (
"108 0 LINE",
"224 500 LINE",
"189 500 LINE",
"73 0 LINE {\nname = hr00;\n}"
);
},
{
closed = 1;
nodes = (
"256 638 LINE",
"270 698 LINE",
"234 698 LINE",
"220 638 LINE"
);
}
);
width = 182;
},
{
layerId = "7271F2A9-EB19-499E-973E-7497F9144823";
paths = (
{
closed = 1;
nodes = (
"189 0 LINE",
"304 500 LINE",
"170 500 LINE",
"55 0 LINE {\nname = hr00;\n}"
);
},
{
closed = 1;
nodes = (
"317 552 LINE",
"348 689 LINE",
"213 689 LINE",
"181 552 LINE"
);
}
);
width = 243;
}
);
leftKerningGroup = i;
rightKerningGroup = i;
unicode = 0069;
},
{
glyphname = j;
lastChange = "2017-11-12 23:25:22 +0000";
layers = (
{
layerId = "B420756C-160B-4E3B-8A8F-018354DD19AA";
paths = (
{
closed = 1;
nodes = (
"56 -171 OFFCURVE",
"72.258 -154.06 OFFCURVE",
"108 0 CURVE SMOOTH",
"224 500 LINE",
"189 500 LINE",
"73 0 LINE SMOOTH {\nname = hr00;\n}",
"42.848 -129.965 OFFCURVE",
"31 -144 OFFCURVE",
"-99 -209 CURVE",
"-87 -239 LINE"
);
},
{
closed = 1;
nodes = (
"258 642 LINE",
"271 700 LINE",
"236 700 LINE",
"223 642 LINE"
);
}
);
width = 182;
},
{
layerId = "7271F2A9-EB19-499E-973E-7497F9144823";
paths = (
{
closed = 1;
nodes = (
"147 -153 OFFCURVE",
"157.247 -138.057 OFFCURVE",
"189 0 CURVE SMOOTH",
"304 500 LINE",
"170 500 LINE",
"55 0 LINE SMOOTH {\nname = hr00;\n}",
"40.972 -60.993 OFFCURVE",
"34 -69 OFFCURVE",
"-70 -123 CURVE",
"-28 -230 LINE"
);
},
{
closed = 1;
nodes = (
"315 543 LINE",
"346 680 LINE",
"211 680 LINE",
"179 543 LINE"
);
}
);
width = 243;
}
);
leftKerningGroup = i;
rightKerningGroup = i;
unicode = 006A;
},
{
glyphname = l;
lastChange = "2017-11-12 23:25:22 +0000";
layers = (
{
layerId = "B420756C-160B-4E3B-8A8F-018354DD19AA";
paths = (
{
closed = 1;
nodes = (
"115 0 LINE",
"284 730 LINE",
"249 730 LINE",
"80 0 LINE {\nname = hr00;\n}"
);
}
);
width = 195;
},
{
layerId = "7271F2A9-EB19-499E-973E-7497F9144823";
paths = (
{
closed = 1;
nodes = (
"189 0 LINE",
"350 700 LINE",
"216 700 LINE",
"55 0 LINE {\nname = hr00;\n}"
);
}
);
width = 244;
}
);
leftKerningGroup = l;
rightKerningGroup = l;
unicode = 006C;
},
{
glyphname = r;
lastChange = "2017-11-12 23:25:22 +0000";
layers = (
{
layerId = "B420756C-160B-4E3B-8A8F-018354DD19AA";
paths = (
{
closed = 1;
nodes = (
"109 0 LINE",
"199 389 LINE",
"199 389 OFFCURVE",
"322 458 OFFCURVE",
"396 475 CURVE",
"404 510 LINE",
"307 487 OFFCURVE",
"207 424 OFFCURVE",
"207 424 CURVE",
"224 500 LINE",
"190 500 LINE",
"73 0 LINE {\nname = hr00;\n}"
);
}
);
width = 304;
},
{
layerId = "7271F2A9-EB19-499E-973E-7497F9144823";
paths = (
{
closed = 1;
nodes = (
"189 0 LINE",
"262 315 LINE",
"262 315 OFFCURVE",
"354 357 OFFCURVE",
"403 372 CURVE",
"442 512 LINE",
"367 502 OFFCURVE",
"285 428 OFFCURVE",
"285 428 CURVE",
"303 500 LINE",
"170 500 LINE",
"55 0 LINE {\nname = hr00;\n}"
);
}
);
width = 334;
}
);
leftKerningGroup = n;
rightKerningGroup = r;
unicode = 0072;
},
{
glyphname = s;
lastChange = "2017-11-12 23:25:22 +0000";
layers = (
{
layerId = "B420756C-160B-4E3B-8A8F-018354DD19AA";
paths = (
{
closed = 1;
nodes = (
"318 -9 OFFCURVE",
"415 50 OFFCURVE",
"415 168 CURVE SMOOTH",
"415 239 OFFCURVE",
"366.965 254.843 OFFCURVE",
"276 275 CURVE SMOOTH",
"190.965 293.843 OFFCURVE",
"170 307 OFFCURVE",
"170 348 CURVE SMOOTH",
"170 416 OFFCURVE",
"228 477 OFFCURVE",
"317 477 CURVE SMOOTH",
"381 477 OFFCURVE",
"470 464 OFFCURVE",
"470 464 CURVE",
"479 495 LINE {\nname = hr00;\n}",
"479 495 OFFCURVE",
"387 509 OFFCURVE",
"324 509 CURVE SMOOTH",
"209 509 OFFCURVE",
"134 434 OFFCURVE",
"134 342 CURVE SMOOTH",
"134 278 OFFCURVE",
"178.036 261.164 OFFCURVE",
"261 243 CURVE SMOOTH",
"347.036 224.164 OFFCURVE",
"379 215 OFFCURVE",
"379 161 CURVE SMOOTH",
"379 65 OFFCURVE",
"298 23 OFFCURVE",
"208 23 CURVE",
"151 23 OFFCURVE",
"61 39 OFFCURVE",
"61 39 CURVE",
"54 7 LINE",
"54 7 OFFCURVE",
"138 -9 OFFCURVE",
"203 -9 CURVE SMOOTH"
);
}
);
width = 427;
},
{
layerId = "7271F2A9-EB19-499E-973E-7497F9144823";
paths = (
{
closed = 1;
nodes = (
"349 -12 OFFCURVE",
"444 48 OFFCURVE",
"444 178 CURVE SMOOTH",
"444 255 OFFCURVE",
"396.027 274.085 OFFCURVE",
"311 301 CURVE SMOOTH",
"257.027 318.085 OFFCURVE",
"240 326 OFFCURVE",
"240 348 CURVE SMOOTH",
"240 375 OFFCURVE",
"261 397 OFFCURVE",
"302 397 CURVE SMOOTH",
"367 397 OFFCURVE",
"470 381 OFFCURVE",
"470 381 CURVE",
"494 480 LINE {\nname = hr00;\n}",
"494 480 OFFCURVE",
"420 511 OFFCURVE",
"314 511 CURVE SMOOTH",
"206 511 OFFCURVE",
"106 443 OFFCURVE",
"106 313 CURVE SMOOTH",
"106 241 OFFCURVE",
"160.025 213.087 OFFCURVE",
"245 189 CURVE SMOOTH",
"287.025 177.087 OFFCURVE",
"307 169 OFFCURVE",
"307 151 CURVE SMOOTH",
"307 123 OFFCURVE",
"289 102 OFFCURVE",
"234 102 CURVE",
"167 102 OFFCURVE",
"71 120 OFFCURVE",
"71 120 CURVE",
"46 22 LINE",
"46 22 OFFCURVE",
"122 -12 OFFCURVE",
"219 -12 CURVE SMOOTH"
);
}
);
width = 432;
}
);
leftKerningGroup = s;
rightKerningGroup = s;
unicode = 0073;
},
{
glyphname = t;
lastChange = "2017-11-12 23:25:22 +0000";
layers = (
{
layerId = "B420756C-160B-4E3B-8A8F-018354DD19AA";
paths = (
{
closed = 1;
nodes = (
"254 -9 OFFCURVE",
"305 -1 OFFCURVE",
"305 -1 CURVE",
"307 30 LINE",
"307 30 OFFCURVE",
"249 23 OFFCURVE",
"223 23 CURVE SMOOTH",
"178 23 OFFCURVE",
"159 47 OFFCURVE",
"159 82 CURVE SMOOTH",
"159 109 OFFCURVE",
"166 148 OFFCURVE",
"174 182 CURVE SMOOTH",
"241 468 LINE",
"404 468 LINE {\nname = hr00;\n}",
"412 500 LINE",
"249 500 LINE",
"289 662 LINE",
"254 662 LINE",
"215 500 LINE",
"141 500 LINE",
"133 468 LINE",
"206 468 LINE",
"139 182 LINE",
"131 150 OFFCURVE",
"122 111 OFFCURVE",
"122 77 CURVE SMOOTH",
"122 18 OFFCURVE",
"159 -9 OFFCURVE",
"218 -9 CURVE SMOOTH"
);
}
);
width = 311;
},
{
layerId = "7271F2A9-EB19-499E-973E-7497F9144823";
paths = (
{
closed = 1;
nodes = (
"271 -12 OFFCURVE",
"324 11 OFFCURVE",
"324 11 CURVE",
"335 107 LINE",
"335 107 OFFCURVE",
"293 102 OFFCURVE",
"267 102 CURVE SMOOTH",
"246 102 OFFCURVE",
"238 111 OFFCURVE",
"238 130 CURVE SMOOTH",
"238 144 OFFCURVE",
"242 169 OFFCURVE",
"246 186 CURVE SMOOTH",
"292 386 LINE",
"396 386 LINE {\nname = hr00;\n}",
"424 500 LINE",
"319 500 LINE",
"348 628 LINE",
"214 628 LINE",
"185 500 LINE",
"134 500 LINE",
"104 386 LINE",
"158 386 LINE",
"114 198 LINE",
"106 165 OFFCURVE",
"99 127 OFFCURVE",
"99 96 CURVE SMOOTH",
"99 37 OFFCURVE",
"137 -12 OFFCURVE",
"212 -12 CURVE SMOOTH"
);
}
);
width = 329;
}
);
leftKerningGroup = t;
rightKerningGroup = t;
unicode = 0074;
},
{
glyphname = B;
lastChange = "2017-11-12 23:25:22 +0000";
layers = (
{
layerId = "B420756C-160B-4E3B-8A8F-018354DD19AA";
paths = (
{
closed = 1;
nodes = (
"313 0 LINE",
"481 0 OFFCURVE",
"575 91 OFFCURVE",
"575 243 CURVE SMOOTH",
"575 314 OFFCURVE",
"536 348 OFFCURVE",
"479 363 CURVE",
"552 387 OFFCURVE",
"620 461 OFFCURVE",
"620 572 CURVE SMOOTH",
"620 668 OFFCURVE",
"567 700 OFFCURVE",
"462 700 CURVE SMOOTH",
"247 700 LINE {\nname = hr00;\n}",
"86 0 LINE"
);
},
{
closed = 1;
nodes = (
"201 343 LINE",
"388 343 LINE SMOOTH",
"469 343 OFFCURVE",
"537 325 OFFCURVE",
"537 242 CURVE SMOOTH",
"537 114 OFFCURVE",
"460 33 OFFCURVE",
"321 33 CURVE SMOOTH",
"130 33 LINE"
);
},
{
closed = 1;
nodes = (
"275 667 LINE",
"455 667 LINE SMOOTH",
"543 667 OFFCURVE",
"583 647 OFFCURVE",
"583 571 CURVE SMOOTH",
"583 465 OFFCURVE",
"510 376 OFFCURVE",
"396 376 CURVE SMOOTH",
"208 376 LINE"
);
}
);
width = 580;
},
{
layerId = "7271F2A9-EB19-499E-973E-7497F9144823";
paths = (
{
closed = 1;
nodes = (
"321 0 LINE",
"502 0 OFFCURVE",
"589 107 OFFCURVE",
"589 232 CURVE SMOOTH",
"589 282 OFFCURVE",
"579 317 OFFCURVE",
"524 350 CURVE",
"593 392 OFFCURVE",
"636 441 OFFCURVE",
"636 533 CURVE SMOOTH",
"636 634 OFFCURVE",
"569 680 OFFCURVE",
"458 680 CURVE SMOOTH",
"222 680 LINE {\nname = hr00;\n}",
"65 0 LINE"
);
},
{
closed = 1;
nodes = (
"269 285 LINE",
"382 285 LINE SMOOTH",
"427 285 OFFCURVE",
"447 268 OFFCURVE",
"447 229 CURVE SMOOTH",
"447 164 OFFCURVE",
"408 118 OFFCURVE",
"348 118 CURVE SMOOTH",
"230 118 LINE"
);
},
{
closed = 1;
nodes = (
"333 562 LINE",
"436 562 LINE SMOOTH",
"477 562 OFFCURVE",
"495 542 OFFCURVE",
"495 505 CURVE SMOOTH",
"495 442 OFFCURVE",
"452 400 OFFCURVE",
"398 400 CURVE SMOOTH",
"295 400 LINE"
);
}
);
width = 573;
}
);
leftKerningGroup = I;
unicode = 0042;
userData = {
"[MP] 22 06 2011\\012Wt0 Sl1\\012rettifica curva inferiore\\012Wt1 Sl1\\012spostamento punto\\012di congiunzione curve\\012\\012[NM] 030211\\012Wt0 SI0\\012- regolazione manipolatori, altezza\\012- curva vert. +1 pt, asta vert. +2 pt, asta orizz. + 2 pt.\\012Wt1 SI0\\012- regolazione manipolatori, altez  com.typemytype.robofont.guides" = (
{
angle = 0;
isGlobal = 0;
magnetic = 5;
x = 0;
y = 761;
},
{
angle = 0;
isGlobal = 0;
magnetic = 5;
x = 0;
y = 690;
},
{
angle = 90;
isGlobal = 0;
magnetic = 5;
x = -224;
y = 0;
},
{
angle = 90;
isGlobal = 0;
magnetic = 5;
x = -215;
y = 0;
},
{
angle = 90;
isGlobal = 0;
magnetic = 5;
x = 133;
y = 0;
}
);
};
},
{
glyphname = C;
lastChange = "2017-11-12 23:25:22 +0000";
layers = (
{
layerId = "B420756C-160B-4E3B-8A8F-018354DD19AA";
paths = (
{
closed = 1;
nodes = (
"386 -9 OFFCURVE",
"473 11 OFFCURVE",
"473 11 CURVE",
"474 44 LINE {\nname = hr00;\n}",
"474 44 OFFCURVE",
"391 25 OFFCURVE",
"311 25 CURVE SMOOTH",
"205 25 OFFCURVE",
"159 78 OFFCURVE",
"159 190 CURVE SMOOTH",
"159 388 OFFCURVE",
"261 675 OFFCURVE",
"465 675 CURVE SMOOTH",
"537 675 OFFCURVE",
"624 658 OFFCURVE",
"624 658 CURVE",
"632 690 LINE",
"632 690 OFFCURVE",
"546 709 OFFCURVE",
"469 709 CURVE SMOOTH",
"232 709 OFFCURVE",
"121 403 OFFCURVE",
"121 190 CURVE SMOOTH",
"121 59 OFFCURVE",
"182 -9 OFFCURVE",
"306 -9 CURVE SMOOTH"
);
}
);
width = 510;
},
{
layerId = "7271F2A9-EB19-499E-973E-7497F9144823";
paths = (
{
closed = 1;
nodes = (
"380 -12 OFFCURVE",
"473 14 OFFCURVE",
"473 14 CURVE",
"484 121 LINE {\nname = hr00;\n}",
"484 121 OFFCURVE",
"400 108 OFFCURVE",
"322 108 CURVE SMOOTH",
"265 108 OFFCURVE",
"241 140 OFFCURVE",
"241 195 CURVE SMOOTH",
"241 385 OFFCURVE",
"315 572 OFFCURVE",
"444 572 CURVE SMOOTH",
"526 572 OFFCURVE",
"588 560 OFFCURVE",
"588 560 CURVE",
"620 662 LINE",
"620 662 OFFCURVE",
"531 692 OFFCURVE",
"449 692 CURVE SMOOTH",
"190 692 OFFCURVE",
"99 396 OFFCURVE",
"99 185 CURVE SMOOTH",
"99 59 OFFCURVE",
"165 -12 OFFCURVE",
"304 -12 CURVE SMOOTH"
);
}
);
width = 494;
}
);
leftKerningGroup = O;
rightKerningGroup = C;
unicode = 0043;
userData = {
"[MP] 22 06 2011\\012Wt0 Sl1\\012- rettifica taglio termin. inferiore\\012- rettifica curva in basso a sn\\012\\012[MN]280111\\012Wt0 SI0:\\012controllo e sistemazione stems, regolazione over shooting, regolazione manipolatori.\\012Wt1 SI0:\\012regolazione stems, aumento over shooting, sistemazione manipolatori.\\012Wt0 SI1:\\012regolazione over shooting, sistemazione stems.\\012Wt1 SI1:\\012control  com.typemytype.robofont.guides" = (
{
angle = 0;
isGlobal = 0;
magnetic = 5;
x = 0;
y = 641;
},
{
angle = 0;
isGlobal = 0;
magnetic = 5;
x = 0;
y = 744;
},
{
angle = 90;
isGlobal = 0;
magnetic = 5;
x = 628;
y = 0;
}
);
};
},
{
glyphname = O;
lastChange = "2017-11-12 23:25:22 +0000";
layers = (
{
layerId = "B420756C-160B-4E3B-8A8F-018354DD19AA";
paths = (
{
closed = 1;
nodes = (
"401 -9 OFFCURVE",
"459 15 OFFCURVE",
"507 55 CURVE SMOOTH",
"619 150 OFFCURVE",
"674 334 OFFCURVE",
"674 503 CURVE SMOOTH",
"674 645 OFFCURVE",
"604 709 OFFCURVE",
"463 709 CURVE SMOOTH",
"393 709 OFFCURVE",
"333 681 OFFCURVE",
"283 634 CURVE SMOOTH",
"179 537 OFFCURVE",
"122 360 OFFCURVE",
"122 197 CURVE SMOOTH",
"122 46 OFFCURVE",
"180 -9 OFFCURVE",
"333 -9 CURVE SMOOTH"
);
},
{
closed = 1;
nodes = (
"207 24 OFFCURVE",
"159 71 OFFCURVE",
"159 196 CURVE SMOOTH",
"159 344 OFFCURVE",
"218 546 OFFCURVE",
"336 633 CURVE SMOOTH",
"373 660 OFFCURVE",
"415 676 OFFCURVE",
"463 676 CURVE SMOOTH",
"582 676 OFFCURVE",
"636 622 OFFCURVE",
"636 504 CURVE SMOOTH",
"636 351 OFFCURVE",
"585 156 OFFCURVE",
"469 69 CURVE SMOOTH",
"431 41 OFFCURVE",
"386 24 OFFCURVE",
"333 24 CURVE SMOOTH {\nname = hr00;\n}"
);
}
);
width = 636;
},
{
layerId = "7271F2A9-EB19-499E-973E-7497F9144823";
paths = (
{
closed = 1;
nodes = (
"386 -12 OFFCURVE",
"456 8 OFFCURVE",
"505 46 CURVE SMOOTH",
"619 135 OFFCURVE",
"669 312 OFFCURVE",
"669 484 CURVE SMOOTH",
"669 631 OFFCURVE",
"583 692 OFFCURVE",
"448 692 CURVE SMOOTH",
"373 692 OFFCURVE",
"308 669 OFFCURVE",
"257 625 CURVE SMOOTH",
"151 533 OFFCURVE",
"101 362 OFFCURVE",
"101 196 CURVE SMOOTH",
"101 52 OFFCURVE",
"183 -12 OFFCURVE",
"315 -12 CURVE SMOOTH"
);
},
{
closed = 1;
nodes = (
"267 108 OFFCURVE",
"243 137 OFFCURVE",
"243 210 CURVE SMOOTH",
"243 310 OFFCURVE",
"280 472 OFFCURVE",
"351 542 CURVE SMOOTH",
"373 564 OFFCURVE",
"402 572 OFFCURVE",
"432 572 CURVE SMOOTH",
"503 572 OFFCURVE",
"527 543 OFFCURVE",
"527 470 CURVE SMOOTH",
"527 356 OFFCURVE",
"489 208 OFFCURVE",
"423 142 CURVE SMOOTH",
"400 119 OFFCURVE",
"370 108 OFFCURVE",
"339 108 CURVE SMOOTH {\nname = hr00;\n}"
);
}
);
width = 615;
}
);
leftKerningGroup = O;
rightKerningGroup = O;
unicode = 004F;
userData = {
"[MP] 15 07 2011\\012Wt1 Sl1\\012aggiunto due punti \\012nelle curve S/E e N/W\\012\\012\\012[MN] 280111\\012Wt0 SI0:\\012regolazione stems, altezza e over shooting.\\012Wt1 SI1:\\012regolazione stens,altezza, over shooting\\012sistemazione manipolatori punti.\\012Wt0: sistemazione stems,altezza. over s  com.typemytype.robofont.guides" = (
{
angle = 90;
isGlobal = 0;
magnetic = 5;
x = 115;
y = 0;
}
);
};
},
{
glyphname = P;
lastChange = "2017-11-12 23:25:22 +0000";
layers = (
{
layerId = "B420756C-160B-4E3B-8A8F-018354DD19AA";
paths = (
{
closed = 1;
nodes = (
"122 0 LINE",
"181 256 LINE {\nname = hr00;\n}",
"377 256 LINE SMOOTH",
"546 256 OFFCURVE",
"626 397 OFFCURVE",
"626 555 CURVE SMOOTH",
"626 649 OFFCURVE",
"583 700 OFFCURVE",
"481 700 CURVE",
"248 700 LINE",
"86 0 LINE"
);
},
{
closed = 1;
nodes = (
"276 666 LINE",
"473 666 LINE SMOOTH",
"556 666 OFFCURVE",
"588 628 OFFCURVE",
"588 555 CURVE SMOOTH",
"588 420 OFFCURVE",
"527 290 OFFCURVE",
"385 290 CURVE SMOOTH",
"189 290 LINE"
);
}
);
width = 547;
},
{
layerId = "7271F2A9-EB19-499E-973E-7497F9144823";
paths = (
{
closed = 1;
nodes = (
"203 0 LINE",
"248 196 LINE {\nname = hr00;\n}",
"333 196 LINE SMOOTH",
"512 196 OFFCURVE",
"628 293 OFFCURVE",
"628 488 CURVE SMOOTH",
"628 622 OFFCURVE",
"566 680 OFFCURVE",
"418 680 CURVE",
"222 680 LINE",
"65 0 LINE"
);
},
{
closed = 1;
nodes = (
"332 560 LINE",
"408 560 LINE SMOOTH",
"465 560 OFFCURVE",
"486 536 OFFCURVE",
"486 486 CURVE SMOOTH",
"486 377 OFFCURVE",
"435 316 OFFCURVE",
"351 316 CURVE SMOOTH",
"276 316 LINE"
);
}
);
width = 547;
}
);
leftKerningGroup = I;
unicode = 0050;
},
{
glyphname = zero;
lastChange = "2017-11-12 23:25:22 +0000";
layers = (
{
layerId = "B420756C-160B-4E3B-8A8F-018354DD19AA";
paths = (
{
closed = 1;
nodes = (
"497 -9 OFFCURVE",
"606 258 OFFCURVE",
"606 485 CURVE SMOOTH",
"606 607 OFFCURVE",
"538 670 OFFCURVE",
"416 670 CURVE SMOOTH {\nname = hr00;\n}",
"204 670 OFFCURVE",
"106 378 OFFCURVE",
"106 170 CURVE SMOOTH",
"106 51 OFFCURVE",
"177 -9 OFFCURVE",
"292 -9 CURVE SMOOTH"
);
},
{
closed = 1;
nodes = (
"202 24 OFFCURVE",
"142 69 OFFCURVE",
"142 173 CURVE SMOOTH",
"142 352 OFFCURVE",
"226 637 OFFCURVE",
"416 637 CURVE SMOOTH",
"515 637 OFFCURVE",
"570 584 OFFCURVE",
"570 485 CURVE SMOOTH",
"570 282 OFFCURVE",
"476 24 OFFCURVE",
"292 24 CURVE SMOOTH"
);
}
);
width = 560;
},
{
layerId = "7271F2A9-EB19-499E-973E-7497F9144823";
paths = (
{
closed = 1;
nodes = (
"485 -12 OFFCURVE",
"617 173 OFFCURVE",
"617 460 CURVE SMOOTH",
"617 594 OFFCURVE",
"555 672 OFFCURVE",
"401 672 CURVE SMOOTH {\nname = hr00;\n}",
"227 672 OFFCURVE",
"95 487 OFFCURVE",
"95 200 CURVE SMOOTH",
"95 66 OFFCURVE",
"157 -12 OFFCURVE",
"311 -12 CURVE SMOOTH"
);
},
{
closed = 1;
nodes = (
"252 106 OFFCURVE",
"236 144 OFFCURVE",
"236 218 CURVE SMOOTH",
"236 357 OFFCURVE",
"297 554 OFFCURVE",
"398 554 CURVE SMOOTH",
"460 554 OFFCURVE",
"476 516 OFFCURVE",
"476 440 CURVE SMOOTH",
"476 303 OFFCURVE",
"415 106 OFFCURVE",
"313 106 CURVE SMOOTH"
);
}
);
width = 560;
}
);
unicode = 0030;
},
{
glyphname = one;
lastChange = "2017-11-12 23:25:22 +0000";
layers = (
{
layerId = "B420756C-160B-4E3B-8A8F-018354DD19AA";
paths = (
{
closed = 1;
nodes = (
"366 0 LINE",
"517 661 LINE",
"485 661 LINE",
"256 533 LINE {\nname = hr00;\n}",
"264 501 LINE",
"470 614 LINE",
"330 0 LINE"
);
}
);
width = 560;
},
{
layerId = "7271F2A9-EB19-499E-973E-7497F9144823";
paths = (
{
closed = 1;
nodes = (
"416 0 LINE",
"568 660 LINE",
"449 660 LINE",
"194 516 LINE {\nname = hr00;\n}",
"231 408 LINE",
"394 498 LINE",
"279 0 LINE"
);
}
);
width = 560;
}
);
unicode = 0031;
},
{
glyphname = I;
lastChange = "2017-11-12 23:25:22 +0000";
layers = (
{
layerId = "B420756C-160B-4E3B-8A8F-018354DD19AA";
paths = (
{
closed = 1;
nodes = (
"122 0 LINE",
"284 700 LINE",
"248 700 LINE",
"86 0 LINE {\nname = hr00;\n}"
);
}
);
width = 208;
},
{
layerId = "7271F2A9-EB19-499E-973E-7497F9144823";
paths = (
{
closed = 1;
nodes = (
"203 0 LINE",
"360 680 LINE",
"222 680 LINE",
"65 0 LINE {\nname = hr00;\n}"
);
}
);
width = 268;
}
);
leftKerningGroup = I;
rightKerningGroup = I;
unicode = 0049;
},
{
glyphname = X;
lastChange = "2017-11-12 23:25:22 +0000";
layers = (
{
layerId = "B420756C-160B-4E3B-8A8F-018354DD19AA";
paths = (
{
closed = 1;
nodes = (
"64 0 LINE",
"330 316 LINE",
"446 0 LINE",
"482 0 LINE",
"357 344 LINE",
"651 700 LINE",
"607 700 LINE",
"343 379 LINE",
"227 700 LINE {\nname = hr00;\n}",
"191 700 LINE",
"315 350 LINE",
"20 0 LINE"
);
}
);
width = 509;
},
{
layerId = "7271F2A9-EB19-499E-973E-7497F9144823";
paths = (
{
closed = 1;
nodes = (
"146 0 LINE",
"315 243 LINE",
"370 0 LINE",
"515 0 LINE",
"421 342 LINE",
"671 680 LINE",
"526 680 LINE",
"362 441 LINE",
"313 680 LINE {\nname = hr00;\n}",
"167 680 LINE",
"257 343 LINE",
"1 0 LINE"
);
}
);
width = 520;
}
);
unicode = 0058;
},
{
glyphname = Y;
lastChange = "2017-11-12 23:25:22 +0000";
layers = (
{
layerId = "B420756C-160B-4E3B-8A8F-018354DD19AA";
paths = (
{
closed = 1;
nodes = (
"256 0 LINE",
"326 301 LINE",
"627 700 LINE {\nname = hr00;\n}",
"587 700 LINE",
"317 339 LINE",
"214 700 LINE",
"178 700 LINE",
"291 308 LINE",
"220 0 LINE"
);
}
);
width = 485;
},
{
layerId = "7271F2A9-EB19-499E-973E-7497F9144823";
paths = (
{
closed = 1;
nodes = (
"313 0 LINE",
"381 288 LINE",
"661 680 LINE {\nname = hr00;\n}",
"515 680 LINE",
"346 415 LINE",
"298 680 LINE",
"158 680 LINE",
"253 294 LINE",
"185 0 LINE"
);
}
);
width = 504;
}
);
leftKerningGroup = Y;
rightKerningGroup = Y;
unicode = 0059;
},
{
glyphname = D;
lastChange = "2017-11-12 23:25:22 +0000";
layers = (
{
layerId = "B420756C-160B-4E3B-8A8F-018354DD19AA";
paths = (
{
closed = 1;
nodes = (
"323 0 LINE SMOOTH",
"545 0 OFFCURVE",
"646 293 OFFCURVE",
"646 495 CURVE SMOOTH",
"646 632 OFFCURVE",
"600 700 OFFCURVE",
"476 700 CURVE",
"248 700 LINE",
"86 0 LINE {\nname = hr00;\n}"
);
},
{
closed = 1;
nodes = (
"276 667 LINE",
"469 667 LINE SMOOTH",
"572 667 OFFCURVE",
"608 612 OFFCURVE",
"608 495 CURVE SMOOTH",
"608 308 OFFCURVE",
"511 33 OFFCURVE",
"332 33 CURVE",
"131 33 LINE"
);
}
);
width = 608;
},
{
layerId = "7271F2A9-EB19-499E-973E-7497F9144823";
paths = (
{
closed = 1;
nodes = (
"309 0 LINE SMOOTH",
"553 0 OFFCURVE",
"660 247 OFFCURVE",
"660 473 CURVE SMOOTH",
"660 636 OFFCURVE",
"554 680 OFFCURVE",
"436 680 CURVE",
"222 680 LINE",
"65 0 LINE {\nname = hr00;\n}"
);
},
{
closed = 1;
nodes = (
"332 560 LINE",
"408 560 LINE SMOOTH",
"476 560 OFFCURVE",
"518 541 OFFCURVE",
"518 473 CURVE SMOOTH",
"518 349 OFFCURVE",
"465 120 OFFCURVE",
"321 120 CURVE",
"231 120 LINE"
);
}
);
width = 605;
}
);
leftKerningGroup = I;
rightKerningGroup = D;
unicode = 0044;
userData = {
"[MP] 22 06 2011\\012Wt0/Wt1 Sl1\\012- rettifica curva\\012\\012[NM] 24/01/11\\012Wt0 SI0:\\012modifica V stems e H stems\\012regolazione manipolatori.\\012Wt1 SI0:\\012modifica v stems e h stems. \\012Wt0 SI1:\\012modifica spessori stems.regolazione inclinazione e altezza\\012Wt1 SI1:\\012modifica spessori  com.typemytype.robofont.guides" = (
{
angle = 0;
isGlobal = 0;
magnetic = 5;
x = 0;
y = 799;
},
{
angle = 90;
isGlobal = 0;
magnetic = 5;
x = 221;
y = 0;
},
{
angle = 90;
isGlobal = 0;
magnetic = 5;
x = 255;
y = 0;
}
);
};
},
{
glyphname = G;
lastChange = "2017-11-12 23:25:22 +0000";
layers = (
{
layerId = "B420756C-160B-4E3B-8A8F-018354DD19AA";
paths = (
{
closed = 1;
nodes = (
"409 -9 OFFCURVE",
"511 19 OFFCURVE",
"511 19 CURVE",
"587 346 LINE",
"419 346 LINE",
"411 313 LINE {\nname = hr00;\n}",
"543 313 LINE",
"481 46 LINE",
"481 46 OFFCURVE",
"392 24 OFFCURVE",
"320 24 CURVE SMOOTH",
"215 24 OFFCURVE",
"159 70 OFFCURVE",
"159 175 CURVE SMOOTH",
"159 385 OFFCURVE",
"253 676 OFFCURVE",
"463 676 CURVE SMOOTH",
"553 676 OFFCURVE",
"655 654 OFFCURVE",
"655 654 CURVE",
"665 684 LINE",
"665 684 OFFCURVE",
"566 709 OFFCURVE",
"471 709 CURVE SMOOTH",
"228 709 OFFCURVE",
"121 414 OFFCURVE",
"121 175 CURVE SMOOTH",
"121 49 OFFCURVE",
"192 -9 OFFCURVE",
"318 -9 CURVE SMOOTH"
);
}
);
width = 575;
},
{
layerId = "7271F2A9-EB19-499E-973E-7497F9144823";
paths = (
{
closed = 1;
nodes = (
"453 -12 OFFCURVE",
"521 14 OFFCURVE",
"521 14 CURVE",
"606 378 LINE",
"405 378 LINE",
"378 264 LINE {\nname = hr00;\n}",
"442 264 LINE",
"407 113 LINE",
"407 113 OFFCURVE",
"378 108 OFFCURVE",
"344 108 CURVE SMOOTH",
"284 108 OFFCURVE",
"244 134 OFFCURVE",
"244 201 CURVE SMOOTH",
"244 355 OFFCURVE",
"302 572 OFFCURVE",
"454 572 CURVE SMOOTH",
"542 572 OFFCURVE",
"641 552 OFFCURVE",
"641 552 CURVE",
"673 652 LINE",
"673 652 OFFCURVE",
"575 692 OFFCURVE",
"465 692 CURVE SMOOTH",
"215 692 OFFCURVE",
"102 456 OFFCURVE",
"102 202 CURVE SMOOTH",
"102 59 OFFCURVE",
"180 -12 OFFCURVE",
"327 -12 CURVE SMOOTH"
);
}
);
width = 568;
}
);
leftKerningGroup = O;
rightKerningGroup = G;
unicode = 0047;
userData = {
"[MP] 15 07 2011\\012Wt1 Sl1\\012manip. sn nodo curva superiore\\012a sn. di 5 pt\\012\\012\\012[MN] 040211\\012Wt0 SI0:\\012regolazione v stems e h stems, regolazione over shooting\\012Wt1 SI0:\\012regolazione stems, aumento over shooting sup.\\012Wt0 SI1:\\012regolazione stems, aumento over shooting sup.\\012Wt1 SI1:\\012regolazione stems, dim. over shootig sup.  com.typemytype.robofont.guides" = (
{
angle = 0;
isGlobal = 0;
magnetic = 5;
x = 0;
y = 178;
},
{
angle = 0;
isGlobal = 0;
magnetic = 5;
x = 0;
y = -12;
},
{
angle = 90;
isGlobal = 0;
magnetic = 5;
x = 126;
y = 0;
}
);
};
},
{
glyphname = J;
lastChange = "2017-11-12 23:25:22 +0000";
layers = (
{
layerId = "B420756C-160B-4E3B-8A8F-018354DD19AA";
paths = (
{
closed = 1;
nodes = (
"145 -71 OFFCURVE",
"161.526 -37.891 OFFCURVE",
"195 107 CURVE SMOOTH",
"332 700 LINE {\nname = hr00;\n}",
"296 700 LINE",
"161 116 LINE",
"131 -15 OFFCURVE",
"115 -38 OFFCURVE",
"13 -38 CURVE",
"7 -71 LINE"
);
}
);
width = 253;
},
{
layerId = "7271F2A9-EB19-499E-973E-7497F9144823";
paths = (
{
closed = 1;
nodes = (
"181 -69 OFFCURVE",
"209.927 -46.983 OFFCURVE",
"252 135 CURVE SMOOTH",
"378 680 LINE {\nname = hr00;\n}",
"240 680 LINE",
"114 135 LINE",
"96 57 OFFCURVE",
"82 53 OFFCURVE",
"29 51 CURVE",
"6 -69 LINE"
);
}
);
width = 283;
}
);
leftKerningGroup = J;
rightKerningGroup = J;
unicode = 004A;
userData = {
"[MP] 18 07 2011\\012Wt0 Sl1\\012rettifica spessore asta vert.\\012\\012[MP] 15 07 2011\\012Wt1 Sl1\\012- segmento inferiore a sn di 4 pt\\012- punto 1/6 a sn 1 pt\\012\\012\\012[MN] 280111\\012Wt0 SI0: \\012correzione altezza, stems, sist. manipolatori.\\012Wt1 SI0:\\012correzione altezza, stems. sist.mnipolat  com.typemytype.robofont.guides" = (
{
angle = 90;
isGlobal = 0;
magnetic = 5;
x = 390;
y = 0;
}
);
};
},
{
glyphname = R;
lastChange = "2017-11-12 23:25:22 +0000";
layers = (
{
layerId = "B420756C-160B-4E3B-8A8F-018354DD19AA";
paths = (
{
closed = 1;
nodes = (
"122 0 LINE",
"189 288 LINE",
"400 288 LINE {\nname = hr00;\n}",
"488 0 LINE",
"524 0 LINE",
"435 292 LINE",
"512 306 OFFCURVE",
"629 375 OFFCURVE",
"629 551 CURVE SMOOTH",
"629 661 OFFCURVE",
"573 700 OFFCURVE",
"470 700 CURVE",
"248 700 LINE",
"86 0 LINE"
);
},
{
closed = 1;
nodes = (
"276 667 LINE",
"462 667 LINE SMOOTH",
"550 667 OFFCURVE",
"591 639 OFFCURVE",
"591 551 CURVE SMOOTH",
"591 412 OFFCURVE",
"508 321 OFFCURVE",
"383 321 CURVE",
"196 321 LINE"
);
}
);
width = 568;
},
{
layerId = "7271F2A9-EB19-499E-973E-7497F9144823";
paths = (
{
closed = 1;
nodes = (
"203 0 LINE",
"253 216 LINE",
"348 216 LINE {\nname = hr00;\n}",
"393 0 LINE",
"531 0 LINE",
"476 235 LINE",
"559 268 OFFCURVE",
"628 356 OFFCURVE",
"628 486 CURVE SMOOTH",
"628 625 OFFCURVE",
"559 680 OFFCURVE",
"418 680 CURVE",
"222 680 LINE",
"65 0 LINE"
);
},
{
closed = 1;
nodes = (
"333 562 LINE",
"410 562 LINE SMOOTH",
"467 562 OFFCURVE",
"486 537 OFFCURVE",
"486 480 CURVE SMOOTH",
"486 405 OFFCURVE",
"444 334 OFFCURVE",
"369 334 CURVE",
"280 334 LINE"
);
}
);
width = 559;
}
);
leftKerningGroup = I;
rightKerningGroup = R;
unicode = 0052;
},
{
glyphname = S;
lastChange = "2017-11-12 23:25:22 +0000";
layers = (
{
layerId = "B420756C-160B-4E3B-8A8F-018354DD19AA";
paths = (
{
closed = 1;
nodes = (
"404 -9 OFFCURVE",
"498 85 OFFCURVE",
"498 233 CURVE SMOOTH",
"498 324 OFFCURVE",
"448 350 OFFCURVE",
"354 378 CURVE SMOOTH",
"256 407 OFFCURVE",
"209 423 OFFCURVE",
"209 492 CURVE SMOOTH",
"209 617 OFFCURVE",
"290 676 OFFCURVE",
"415 676 CURVE SMOOTH",
"485 676 OFFCURVE",
"587 658 OFFCURVE",
"587 658 CURVE",
"593 688 LINE {\nname = hr00;\n}",
"593 688 OFFCURVE",
"502 709 OFFCURVE",
"422 709 CURVE SMOOTH",
"274 709 OFFCURVE",
"172 638 OFFCURVE",
"172 492 CURVE SMOOTH",
"172 399 OFFCURVE",
"235 374 OFFCURVE",
"339 345 CURVE SMOOTH",
"429 320 OFFCURVE",
"460 302 OFFCURVE",
"460 232 CURVE SMOOTH",
"460 107 OFFCURVE",
"387 24 OFFCURVE",
"262 24 CURVE SMOOTH",
"185 24 OFFCURVE",
"67 41 OFFCURVE",
"67 41 CURVE",
"60 8 LINE",
"60 8 OFFCURVE",
"168 -9 OFFCURVE",
"256 -9 CURVE SMOOTH"
);
}
);
width = 502;
},
{
layerId = "7271F2A9-EB19-499E-973E-7497F9144823";
paths = (
{
closed = 1;
nodes = (
"412 -12 OFFCURVE",
"515 69 OFFCURVE",
"515 223 CURVE SMOOTH",
"515 312 OFFCURVE",
"491 349 OFFCURVE",
"379 399 CURVE SMOOTH",
"297 436 OFFCURVE",
"286 448 OFFCURVE",
"286 485 CURVE SMOOTH",
"286 538 OFFCURVE",
"321 574 OFFCURVE",
"381 574 CURVE SMOOTH",
"451 574 OFFCURVE",
"561 556 OFFCURVE",
"561 556 CURVE",
"586 654 LINE {\nname = hr00;\n}",
"586 654 OFFCURVE",
"486 692 OFFCURVE",
"377 692 CURVE SMOOTH",
"234 692 OFFCURVE",
"146 595 OFFCURVE",
"146 469 CURVE SMOOTH",
"146 379 OFFCURVE",
"184 338 OFFCURVE",
"274 297 CURVE SMOOTH",
"362 257 OFFCURVE",
"375 245 OFFCURVE",
"375 207 CURVE SMOOTH",
"375 132 OFFCURVE",
"331 108 OFFCURVE",
"256 108 CURVE SMOOTH",
"186 108 OFFCURVE",
"73 128 OFFCURVE",
"73 128 CURVE",
"50 29 LINE",
"50 29 OFFCURVE",
"152 -12 OFFCURVE",
"258 -12 CURVE SMOOTH"
);
}
);
width = 495;
}
);
leftKerningGroup = S;
rightKerningGroup = S;
unicode = 0053;
},
{
glyphname = U;
lastChange = "2017-11-12 23:25:22 +0000";
layers = (
{
layerId = "B420756C-160B-4E3B-8A8F-018354DD19AA";
paths = (
{
closed = 1;
nodes = (
"459 -9 OFFCURVE",
"526 64 OFFCURVE",
"557 197 CURVE SMOOTH",
"673 700 LINE",
"637 700 LINE",
"521 198 LINE",
"495 85 OFFCURVE",
"437 25 OFFCURVE",
"313 25 CURVE SMOOTH",
"216 25 OFFCURVE",
"155 57 OFFCURVE",
"155 130 CURVE SMOOTH",
"155 151 OFFCURVE",
"159.208 181.951 OFFCURVE",
"165 207 CURVE SMOOTH",
"279 700 LINE {\nname = hr00;\n}",
"243 700 LINE",
"129 207 LINE",
"123 183 OFFCURVE",
"119 149 OFFCURVE",
"119 129 CURVE SMOOTH",
"119 34 OFFCURVE",
"195 -9 OFFCURVE",
"311 -9 CURVE SMOOTH"
);
}
);
width = 593;
},
{
layerId = "7271F2A9-EB19-499E-973E-7497F9144823";
paths = (
{
closed = 1;
nodes = (
"470 -12 OFFCURVE",
"550 61 OFFCURVE",
"589 231 CURVE SMOOTH",
"693 680 LINE",
"555 680 LINE",
"451 231 LINE",
"432 147 OFFCURVE",
"409 108 OFFCURVE",
"322 108 CURVE SMOOTH",
"272 108 OFFCURVE",
"240 118 OFFCURVE",
"240 165 CURVE SMOOTH",
"240 189 OFFCURVE",
"244.129 209.97 OFFCURVE",
"249 231 CURVE SMOOTH",
"353 680 LINE {\nname = hr00;\n}",
"215 680 LINE",
"116 253 LINE",
"109 221 OFFCURVE",
"103 178 OFFCURVE",
"103 142 CURVE SMOOTH",
"103 36 OFFCURVE",
"186 -12 OFFCURVE",
"310 -12 CURVE SMOOTH"
);
}
);
width = 595;
}
);
leftKerningGroup = U;
rightKerningGroup = U;
unicode = 0055;
userData = {
"[MP] 18 07 2011\\012Wt0 Sl1\\012rettifica spessore aste vert.\\012\\012[MN] 210211 \\012Wt0 Sl0: corr. stems, manipolatori e overshooting. \\012Wt1 Sl0: corr. stems, overshooting, manipolatori, controllo altezza.\\012Wt0 Sl1: corr. stems,manipolatori,  ang. inclinazione.\\012Wt1 Sl: corr.stems,manipolatori,overshooting, ang. inclinazione.  com.typemytype.robofont.guides" = (
{
angle = 0;
isGlobal = 0;
magnetic = 5;
x = 0;
y = 680;
},
{
angle = 90;
isGlobal = 0;
magnetic = 5;
x = -20;
y = 0;
}
);
};
},
{
glyphname = fraction;
lastChange = "2017-11-12 23:25:22 +0000";
layers = (
{
layerId = "B420756C-160B-4E3B-8A8F-018354DD19AA";
paths = (
{
closed = 1;
nodes = (
"306 666 LINE",
"273 680 LINE",
"-152 -8 LINE",
"-119 -21 LINE {\nname = hr00;\n}"
);
}
);
width = 0;
},
{
layerId = "7271F2A9-EB19-499E-973E-7497F9144823";
paths = (
{
closed = 1;
nodes = (
"399 666 LINE",
"273 710 LINE",
"-158 12 LINE",
"-32 -32 LINE {\nname = hr00;\n}"
);
}
);
width = 73;
}
);
unicode = 2044;
},
{
glyphname = w;
lastChange = "2017-11-12 23:25:22 +0000";
layers = (
{
layerId = "B420756C-160B-4E3B-8A8F-018354DD19AA";
paths = (
{
closed = 1;
nodes = (
"229 0 LINE",
"456 447 LINE",
"473 0 LINE",
"547 0 LINE",
"789 500 LINE",
"752 500 LINE",
"525 32 LINE",
"508 32 LINE",
"488 490 LINE",
"443 490 LINE",
"207 32 LINE",
"191 32 LINE",
"185 500 LINE",
"150 500 LINE {\nname = hr00;\n}",
"157 0 LINE"
);
}
);
width = 710;
},
{
layerId = "7271F2A9-EB19-499E-973E-7497F9144823";
paths = (
{
closed = 1;
nodes = (
"325 0 LINE",
"451 311 LINE",
"432 0 LINE",
"655 0 LINE",
"859 500 LINE",
"724 500 LINE",
"575 114 LINE",
"552 114 LINE",
"572 490 LINE",
"420 490 LINE",
"261 114 LINE",
"238 114 LINE",
"270 500 LINE",
"135 500 LINE {\nname = hr00;\n}",
"106 0 LINE"
);
}
);
width = 762;
}
);
leftKerningGroup = w;
rightKerningGroup = w;
unicode = 0077;
},
{
glyphname = x;
lastChange = "2017-11-12 23:25:22 +0000";
layers = (
{
layerId = "B420756C-160B-4E3B-8A8F-018354DD19AA";
paths = (
{
closed = 1;
nodes = (
"70 0 LINE",
"258 223 LINE",
"341 0 LINE",
"380 0 LINE",
"286 247 LINE",
"502 500 LINE",
"459 500 LINE",
"269 273 LINE",
"183 500 LINE",
"145 500 LINE",
"240 250 LINE",
"27 0 LINE"
);
}
);
width = 411;
},
{
layerId = "7271F2A9-EB19-499E-973E-7497F9144823";
paths = (
{
closed = 1;
nodes = (
"145 0 LINE",
"247 147 LINE",
"286 0 LINE",
"422 0 LINE",
"342 240 LINE",
"539 500 LINE",
"403 500 LINE",
"299 347 LINE",
"260 500 LINE",
"124 500 LINE",
"202 250 LINE",
"6 0 LINE"
);
}
);
width = 430;
}
);
unicode = 0078;
},
{
glyphname = y;
lastChange = "2017-11-12 23:25:22 +0000";
layers = (
{
layerId = "B420756C-160B-4E3B-8A8F-018354DD19AA";
paths = (
{
closed = 1;
nodes = (
"145 -228 LINE",
"532 500 LINE",
"494 500 LINE",
"246 32 LINE",
"206 32 LINE",
"183 500 LINE",
"147 500 LINE {\nname = hr00;\n}",
"172 0 LINE",
"230 0 LINE",
"107 -228 LINE"
);
}
);
width = 448;
},
{
layerId = "7271F2A9-EB19-499E-973E-7497F9144823";
paths = (
{
closed = 1;
nodes = (
"235 -210 LINE",
"567 500 LINE",
"432 500 LINE",
"258 111 LINE",
"243 111 LINE",
"257 500 LINE",
"126 500 LINE {\nname = hr00;\n}",
"122 0 LINE",
"205 0 LINE",
"102 -210 LINE"
);
}
);
width = 464;
}
);
leftKerningGroup = y;
rightKerningGroup = y;
unicode = 0079;
},
{
glyphname = z;
lastChange = "2017-11-12 23:25:22 +0000";
layers = (
{
layerId = "B420756C-160B-4E3B-8A8F-018354DD19AA";
paths = (
{
closed = 1;
nodes = (
"380 0 LINE",
"387 32 LINE",
"90 32 LINE",
"490 468 LINE",
"495 500 LINE",
"156 500 LINE {\nname = hr00;\n}",
"148 468 LINE",
"444 468 LINE",
"44 32 LINE",
"41 0 LINE"
);
}
);
width = 420;
},
{
layerId = "7271F2A9-EB19-499E-973E-7497F9144823";
paths = (
{
closed = 1;
nodes = (
"379 0 LINE",
"408 114 LINE",
"216 114 LINE",
"468 389 LINE",
"496 500 LINE",
"151 500 LINE {\nname = hr00;\n}",
"122 386 LINE",
"310 386 LINE",
"59 112 LINE",
"34 0 LINE"
);
}
);
width = 414;
}
);
leftKerningGroup = z;
rightKerningGroup = z;
unicode = 007A;
},
{
glyphname = k;
lastChange = "2017-11-12 23:25:22 +0000";
layers = (
{
layerId = "B420756C-160B-4E3B-8A8F-018354DD19AA";
paths = (
{
closed = 1;
nodes = (
"109 0 LINE",
"169 261 LINE",
"253 261 LINE",
"362 0 LINE",
"401 0 LINE",
"288 274 LINE",
"524 500 LINE",
"478 500 LINE",
"261 293 LINE",
"177 293 LINE",
"278 730 LINE",
"243 730 LINE",
"74 0 LINE {\nname = hr00;\n}"
);
}
);
width = 431;
},
{
layerId = "7271F2A9-EB19-499E-973E-7497F9144823";
paths = (
{
closed = 1;
nodes = (
"189 0 LINE",
"235 201 LINE",
"275 207 LINE",
"323 0 LINE",
"460 0 LINE",
"394 259 LINE",
"568 499 LINE",
"421 499 LINE",
"294 318 LINE",
"260 311 LINE",
"350 700 LINE",
"216 700 LINE",
"55 0 LINE {\nname = hr00;\n}"
);
}
);
width = 467;
}
);
leftKerningGroup = h;
rightKerningGroup = k;
unicode = 006B;
},
